%TF.GenerationSoftware,KiCad,Pcbnew,10.0.3*%
%TF.CreationDate,2026-06-05T10:07:03+05:30*%
%TF.ProjectId,Tamagotchi,54616d61-676f-4746-9368-692e6b696361,rev?*%
%TF.SameCoordinates,Original*%
%TF.FileFunction,Soldermask,Top*%
%TF.FilePolarity,Negative*%
%FSLAX46Y46*%
G04 Gerber Fmt 4.6, Leading zero omitted, Abs format (unit mm)*
G04 Created by KiCad (PCBNEW 10.0.3) date 2026-06-05 10:07:03*
%MOMM*%
%LPD*%
G01*
G04 APERTURE LIST*
%ADD10C,3.200000*%
%ADD11C,1.600000*%
%ADD12C,2.500000*%
%ADD13C,1.800000*%
%ADD14R,1.700000X1.700000*%
%ADD15C,1.700000*%
%ADD16C,2.200000*%
%ADD17C,1.524000*%
G04 APERTURE END LIST*
D10*
%TO.C,REF\u002A\u002A*%
X52350000Y-82700000D03*
%TD*%
D11*
%TO.C,SW3*%
X92350000Y-105200000D03*
X97150000Y-105200000D03*
X92350000Y-108200000D03*
X97150000Y-108200000D03*
%TD*%
%TO.C,SW1*%
X63350000Y-105200000D03*
X68150000Y-105200000D03*
X63350000Y-108200000D03*
X68150000Y-108200000D03*
%TD*%
%TO.C,SW2*%
X77850000Y-107200000D03*
X82650000Y-107200000D03*
X77850000Y-110200000D03*
X82650000Y-110200000D03*
%TD*%
D10*
%TO.C,REF\u002A\u002A*%
X108150000Y-82700000D03*
%TD*%
D12*
%TO.C,U2*%
X68600000Y-70800000D03*
X68600000Y-94600000D03*
X91900000Y-70800000D03*
X91900000Y-94600000D03*
D13*
X76440000Y-70240000D03*
X78980000Y-70240000D03*
X81520000Y-70240000D03*
X84060000Y-70240000D03*
%TD*%
D14*
%TO.C,BT1*%
X81280000Y-43180000D03*
D15*
X78740000Y-43180000D03*
%TD*%
D16*
%TO.C,BUZZER1*%
X83500000Y-82700000D03*
X77000000Y-82700000D03*
%TD*%
D17*
%TO.C,U1*%
X72630000Y-121740000D03*
X72630000Y-119200000D03*
X72630000Y-116660000D03*
X72630000Y-114120000D03*
X72630000Y-111580000D03*
X72630000Y-109040000D03*
X72630000Y-106500000D03*
X87870000Y-106500000D03*
X87870000Y-109040000D03*
X87870000Y-111580000D03*
X87870000Y-114120000D03*
X87870000Y-116660000D03*
X87870000Y-119200000D03*
X87870000Y-121740000D03*
%TD*%
M02*
