%TF.GenerationSoftware,KiCad,Pcbnew,10.0.3*%
%TF.CreationDate,2026-06-05T10:07:03+05:30*%
%TF.ProjectId,Tamagotchi,54616d61-676f-4746-9368-692e6b696361,rev?*%
%TF.SameCoordinates,Original*%
%TF.FileFunction,Copper,L1,Top*%
%TF.FilePolarity,Positive*%
%FSLAX46Y46*%
G04 Gerber Fmt 4.6, Leading zero omitted, Abs format (unit mm)*
G04 Created by KiCad (PCBNEW 10.0.3) date 2026-06-05 10:07:03*
%MOMM*%
%LPD*%
G01*
G04 APERTURE LIST*
G04 Aperture macros list*
%AMRoundRect*
0 Rectangle with rounded corners*
0 $1 Rounding radius*
0 $2 $3 $4 $5 $6 $7 $8 $9 X,Y pos of 4 corners*
0 Add a 4 corners polygon primitive as box body*
4,1,4,$2,$3,$4,$5,$6,$7,$8,$9,$2,$3,0*
0 Add four circle primitives for the rounded corners*
1,1,$1+$1,$2,$3*
1,1,$1+$1,$4,$5*
1,1,$1+$1,$6,$7*
1,1,$1+$1,$8,$9*
0 Add four rect primitives between the rounded corners*
20,1,$1+$1,$2,$3,$4,$5,0*
20,1,$1+$1,$4,$5,$6,$7,0*
20,1,$1+$1,$6,$7,$8,$9,0*
20,1,$1+$1,$8,$9,$2,$3,0*%
G04 Aperture macros list end*
%TA.AperFunction,ComponentPad*%
%ADD10C,1.600000*%
%TD*%
%TA.AperFunction,ComponentPad*%
%ADD11C,1.800000*%
%TD*%
%TA.AperFunction,ComponentPad*%
%ADD12R,1.700000X1.700000*%
%TD*%
%TA.AperFunction,ComponentPad*%
%ADD13C,1.700000*%
%TD*%
%TA.AperFunction,ComponentPad*%
%ADD14C,2.200000*%
%TD*%
%TA.AperFunction,ComponentPad*%
%ADD15C,1.524000*%
%TD*%
%TA.AperFunction,ComponentPad*%
%ADD16RoundRect,0.250000X1.000000X0.300000X-1.000000X0.300000X-1.000000X-0.300000X1.000000X-0.300000X0*%
%TD*%
%TA.AperFunction,ViaPad*%
%ADD17C,0.600000*%
%TD*%
%TA.AperFunction,Conductor*%
%ADD18C,0.200000*%
%TD*%
G04 APERTURE END LIST*
D10*
%TO.P,SW3,1,1_1*%
%TO.N,GND*%
X92350000Y-105200000D03*
X97150000Y-105200000D03*
%TO.P,SW3,2,2_2*%
%TO.N,Net-(U1-GPIO4_A2_D2)*%
X92350000Y-108200000D03*
X97150000Y-108200000D03*
%TD*%
%TO.P,SW1,1,1_1*%
%TO.N,GND*%
X63350000Y-105200000D03*
X68150000Y-105200000D03*
%TO.P,SW1,2,2_2*%
%TO.N,Net-(U1-GPIO2_A0_D0)*%
X63350000Y-108200000D03*
X68150000Y-108200000D03*
%TD*%
%TO.P,SW2,1,1_1*%
%TO.N,GND*%
X77850000Y-107200000D03*
X82650000Y-107200000D03*
%TO.P,SW2,2,2_2*%
%TO.N,Net-(U1-GPIO3_A1_D1)*%
X77850000Y-110200000D03*
X82650000Y-110200000D03*
%TD*%
D11*
%TO.P,U2,1,GND_1*%
%TO.N,GND*%
X76440000Y-70240000D03*
%TO.P,U2,2,VCC_2*%
%TO.N,+3V3*%
X78980000Y-70240000D03*
%TO.P,U2,3,SCL_3*%
%TO.N,Net-(U1-GPIO7_D5_SCL)*%
X81520000Y-70240000D03*
%TO.P,U2,4,SDA_4*%
%TO.N,Net-(U1-GPIO6_D4_SDA)*%
X84060000Y-70240000D03*
%TD*%
D12*
%TO.P,BT1,1,+_1*%
%TO.N,+BATT*%
X81280000Y-43180000D03*
D13*
%TO.P,BT1,2,-_2*%
%TO.N,GND*%
X78740000Y-43180000D03*
%TD*%
D14*
%TO.P,BUZZER1,1,+_1*%
%TO.N,Net-(BUZZER1-+)*%
X83500000Y-82700000D03*
%TO.P,BUZZER1,2,-_2*%
%TO.N,GND*%
X77000000Y-82700000D03*
%TD*%
D15*
%TO.P,U1,1,GPIO2_A0_D0_1*%
%TO.N,Net-(U1-GPIO2_A0_D0)*%
X72630000Y-121740000D03*
%TO.P,U1,2,GPIO3_A1_D1_2*%
%TO.N,Net-(U1-GPIO3_A1_D1)*%
X72630000Y-119200000D03*
%TO.P,U1,3,GPIO4_A2_D2_3*%
%TO.N,Net-(U1-GPIO4_A2_D2)*%
X72630000Y-116660000D03*
%TO.P,U1,4,GPIO5_A3_D3_4*%
%TO.N,unconnected-(U1-GPIO5_A3_D3-Pad4)*%
X72630000Y-114120000D03*
%TO.P,U1,5,GPIO6_D4_SDA_5*%
%TO.N,Net-(U1-GPIO6_D4_SDA)*%
X72630000Y-111580000D03*
%TO.P,U1,6,GPIO7_D5_SCL_6*%
%TO.N,Net-(U1-GPIO7_D5_SCL)*%
X72630000Y-109040000D03*
%TO.P,U1,7,GPIO21_D6_TX_7*%
%TO.N,unconnected-(U1-GPIO21_D6_TX-Pad7)*%
X72630000Y-106500000D03*
%TO.P,U1,8,GPIO20_D7_RX_8*%
%TO.N,unconnected-(U1-GPIO20_D7_RX-Pad8)*%
X87870000Y-106500000D03*
%TO.P,U1,9,GPIO8_D8_SCK_9*%
%TO.N,unconnected-(U1-GPIO8_D8_SCK-Pad9)*%
X87870000Y-109040000D03*
%TO.P,U1,10,GPIO9_D9_MISO_10*%
%TO.N,unconnected-(U1-GPIO9_D9_MISO-Pad10)_1*%
X87870000Y-111580000D03*
%TO.P,U1,11,GPIO10_D10_MOSI_11*%
%TO.N,Net-(BUZZER1-+)*%
X87870000Y-114120000D03*
%TO.P,U1,12,3V3_12*%
%TO.N,+3V3*%
X87870000Y-116660000D03*
%TO.P,U1,13,GND_13*%
%TO.N,GND*%
X87870000Y-119200000D03*
%TO.P,U1,14,VBUS_14*%
%TO.N,+5V*%
X87870000Y-121740000D03*
D16*
%TO.P,U1,15,BAT_15*%
%TO.N,+BATT*%
X75805000Y-114506000D03*
%TO.P,U1,16,GND_16*%
%TO.N,GND*%
X75805000Y-116411000D03*
%TD*%
D17*
%TO.N,Net-(U1-GPIO4_A2_D2)*%
X92300000Y-111150000D03*
%TO.N,+3V3*%
X86050000Y-116600000D03*
X76400000Y-73500000D03*
%TO.N,Net-(U1-GPIO7_D5_SCL)*%
X80550000Y-72300000D03*
X74200000Y-109000000D03*
%TO.N,Net-(BUZZER1-+)*%
X84700000Y-84600000D03*
X85450000Y-111650000D03*
%TD*%
%TO.N,Net-(U1-GPIO4_A2_D2)*%
D18*
X92350000Y-111100000D02*
X92300000Y-111150000D01*
X92350000Y-108200000D02*
X92350000Y-111100000D01*
X92350000Y-108200000D02*
X97150000Y-108200000D01*
%TO.N,Net-(U1-GPIO2_A0_D0)*%
X68150000Y-108200000D02*
X63350000Y-108200000D01*
X68150000Y-117260000D02*
X68150000Y-108200000D01*
X72630000Y-121740000D02*
X68150000Y-117260000D01*
%TO.N,Net-(U1-GPIO3_A1_D1)*%
X76286237Y-122856237D02*
X89823948Y-122856238D01*
X91350000Y-118638105D02*
X87893895Y-115182000D01*
X91350000Y-121600000D02*
X91350000Y-118638105D01*
X82650000Y-110450000D02*
X82650000Y-110200000D01*
X89823948Y-122856238D02*
X90215729Y-122734271D01*
X87893895Y-115182000D02*
X87382000Y-115182000D01*
X90215729Y-122734271D02*
X91350000Y-121600000D01*
X72630000Y-119200000D02*
X76286237Y-122856237D01*
X82650000Y-110200000D02*
X77850000Y-110200000D01*
X87382000Y-115182000D02*
X82650000Y-110450000D01*
%TO.N,+3V3*%
X76400000Y-73500000D02*
X76400000Y-72820000D01*
X86110000Y-116660000D02*
X86050000Y-116600000D01*
X87870000Y-116660000D02*
X86110000Y-116660000D01*
X76400000Y-72820000D02*
X78980000Y-70240000D01*
%TO.N,Net-(U1-GPIO7_D5_SCL)*%
X80550000Y-71210000D02*
X81520000Y-70240000D01*
X74160000Y-109040000D02*
X74200000Y-109000000D01*
X72630000Y-109040000D02*
X74160000Y-109040000D01*
X80550000Y-72300000D02*
X80550000Y-71210000D01*
%TO.N,Net-(U1-GPIO6_D4_SDA)*%
X70050000Y-115581895D02*
X70050000Y-95412742D01*
X72630000Y-111580000D02*
X73692000Y-112642000D01*
X75350000Y-90112742D02*
X75350000Y-78950000D01*
X73069895Y-117722000D02*
X72190105Y-117722000D01*
X72190105Y-117722000D02*
X70050000Y-115581895D01*
X75350000Y-78950000D02*
X84060000Y-70240000D01*
X70050000Y-95412742D02*
X75350000Y-90112742D01*
X73692000Y-112642000D02*
X73692000Y-117099895D01*
X73692000Y-117099895D02*
X73069895Y-117722000D01*
%TO.N,Net-(BUZZER1-+)*%
X84700000Y-84600000D02*
X84650000Y-84550000D01*
X85450000Y-111700000D02*
X85450000Y-111650000D01*
X87870000Y-114120000D02*
X85450000Y-111700000D01*
X84650000Y-83850000D02*
X83500000Y-82700000D01*
X84650000Y-84550000D02*
X84650000Y-83850000D01*
%TD*%
%TA.AperFunction,Conductor*%
%TO.N,GND*%
G36*
X80482801Y-41210910D02*
G01*
X80486066Y-41210969D01*
X81227457Y-41234207D01*
X81230711Y-41234351D01*
X81977430Y-41277495D01*
X81980570Y-41277718D01*
X82724421Y-41340398D01*
X82728198Y-41340776D01*
X83392114Y-41417565D01*
X83396467Y-41418148D01*
X84050755Y-41517732D01*
X84057038Y-41518855D01*
X85184196Y-41750613D01*
X85192318Y-41752571D01*
X86157880Y-42020161D01*
X86298455Y-42059119D01*
X86305655Y-42061352D01*
X87481988Y-42465834D01*
X87488224Y-42468169D01*
X88643190Y-42936560D01*
X88649179Y-42939175D01*
X89826972Y-43491271D01*
X89832701Y-43494140D01*
X90926039Y-44077873D01*
X90980619Y-44107013D01*
X90986146Y-44110149D01*
X92034595Y-44741002D01*
X92113185Y-44788290D01*
X92118467Y-44791652D01*
X93209609Y-45525672D01*
X93214865Y-45529410D01*
X94515632Y-46506800D01*
X94520847Y-46510943D01*
X95356858Y-47212740D01*
X95767197Y-47557203D01*
X95771977Y-47561431D01*
X97003385Y-48708180D01*
X97007730Y-48712430D01*
X98182347Y-49919042D01*
X98186347Y-49923350D01*
X99375811Y-51267140D01*
X99379447Y-51271442D01*
X99978793Y-52014517D01*
X100507423Y-52669917D01*
X100510505Y-52673901D01*
X101680001Y-54250830D01*
X101682555Y-54254405D01*
X102795690Y-55872135D01*
X102798359Y-55876181D01*
X104266272Y-58198949D01*
X104269007Y-58203488D01*
X105635820Y-60585947D01*
X105638339Y-60590562D01*
X106909694Y-63041884D01*
X106911997Y-63046564D01*
X108079165Y-65549231D01*
X108081269Y-65554000D01*
X109144127Y-68108112D01*
X109146026Y-68112961D01*
X110100707Y-70709414D01*
X110102406Y-70714352D01*
X110945425Y-73344020D01*
X110946917Y-73349037D01*
X111678529Y-76013136D01*
X111679693Y-76017712D01*
X112208576Y-78277240D01*
X112209465Y-78281355D01*
X112661412Y-80557820D01*
X112662223Y-80562341D01*
X113009027Y-82725966D01*
X113009716Y-82730898D01*
X113269200Y-84905364D01*
X113269703Y-84910467D01*
X113429406Y-86969184D01*
X113429702Y-86974454D01*
X113501578Y-89036421D01*
X113501644Y-89042202D01*
X113478763Y-90984237D01*
X113478530Y-90990518D01*
X113357418Y-92926608D01*
X113356819Y-92933282D01*
X113106474Y-95072052D01*
X113105445Y-95079087D01*
X112733112Y-97198922D01*
X112731681Y-97205891D01*
X112238424Y-99300744D01*
X112236580Y-99307671D01*
X111626431Y-101359311D01*
X111624170Y-101366175D01*
X110895595Y-103378645D01*
X110892939Y-103385363D01*
X110048448Y-105351868D01*
X110045385Y-105358461D01*
X109098417Y-107249505D01*
X109094950Y-107255946D01*
X108038222Y-109087703D01*
X108034383Y-109093927D01*
X106871747Y-110859856D01*
X106867435Y-110865993D01*
X105621946Y-112529291D01*
X105617150Y-112535298D01*
X104271310Y-114117864D01*
X104266151Y-114123563D01*
X102821986Y-115622657D01*
X102817677Y-115626917D01*
X101979745Y-116415688D01*
X101976464Y-116418667D01*
X101108588Y-117179008D01*
X101104893Y-117182120D01*
X100259161Y-117866704D01*
X100255021Y-117869913D01*
X99381966Y-118517556D01*
X99377683Y-118520595D01*
X98483441Y-119126993D01*
X98479016Y-119129858D01*
X97559139Y-119698110D01*
X97554887Y-119700621D01*
X96567440Y-120257558D01*
X96563384Y-120259747D01*
X95558733Y-120778156D01*
X95553162Y-120780857D01*
X93707902Y-121619182D01*
X93700727Y-121622174D01*
X91810057Y-122341894D01*
X91802801Y-122344402D01*
X91777602Y-122352247D01*
X91707742Y-122353380D01*
X91648359Y-122316563D01*
X91618307Y-122253486D01*
X91627128Y-122184176D01*
X91653059Y-122146174D01*
X91708506Y-122090728D01*
X91708511Y-122090724D01*
X91718714Y-122080520D01*
X91718716Y-122080520D01*
X91830520Y-121968716D01*
X91909577Y-121831784D01*
X91950500Y-121679057D01*
X91950500Y-118727165D01*
X91950501Y-118727152D01*
X91950501Y-118559049D01*
X91939383Y-118517556D01*
X91909577Y-118406321D01*
X91892958Y-118377536D01*
X91830524Y-118269395D01*
X91830518Y-118269387D01*
X88755968Y-115194838D01*
X88722483Y-115133515D01*
X88727467Y-115063823D01*
X88755964Y-115019480D01*
X88832981Y-114942464D01*
X88949787Y-114781694D01*
X89040005Y-114604632D01*
X89101413Y-114415636D01*
X89132500Y-114219361D01*
X89132500Y-114020639D01*
X89101413Y-113824364D01*
X89070709Y-113729866D01*
X89040006Y-113635370D01*
X89040005Y-113635367D01*
X88992501Y-113542136D01*
X88949787Y-113458306D01*
X88832981Y-113297536D01*
X88692464Y-113157019D01*
X88531694Y-113040213D01*
X88375218Y-112960484D01*
X88324423Y-112912510D01*
X88307628Y-112844689D01*
X88330165Y-112778554D01*
X88375218Y-112739515D01*
X88531694Y-112659787D01*
X88692464Y-112542981D01*
X88832981Y-112402464D01*
X88949787Y-112241694D01*
X89040005Y-112064632D01*
X89101413Y-111875636D01*
X89132500Y-111679361D01*
X89132500Y-111480639D01*
X89101413Y-111284364D01*
X89054413Y-111139711D01*
X89040006Y-111095370D01*
X89040005Y-111095367D01*
X88949786Y-110918305D01*
X88948473Y-110916498D01*
X88832981Y-110757536D01*
X88692464Y-110617019D01*
X88531694Y-110500213D01*
X88375218Y-110420484D01*
X88324423Y-110372510D01*
X88307628Y-110304689D01*
X88330165Y-110238554D01*
X88375218Y-110199515D01*
X88531694Y-110119787D01*
X88692464Y-110002981D01*
X88832981Y-109862464D01*
X88949787Y-109701694D01*
X89040005Y-109524632D01*
X89101413Y-109335636D01*
X89132500Y-109139361D01*
X89132500Y-108940639D01*
X89101413Y-108744364D01*
X89040005Y-108555368D01*
X89040005Y-108555367D01*
X88949786Y-108378305D01*
X88924071Y-108342911D01*
X88832981Y-108217536D01*
X88713093Y-108097648D01*
X91049500Y-108097648D01*
X91049500Y-108302351D01*
X91081522Y-108504534D01*
X91144781Y-108699223D01*
X91237715Y-108881613D01*
X91358028Y-109047213D01*
X91358034Y-109047219D01*
X91502781Y-109191966D01*
X91668390Y-109312287D01*
X91681793Y-109319116D01*
X91732589Y-109367088D01*
X91749500Y-109429601D01*
X91749500Y-110517059D01*
X91729815Y-110584098D01*
X91713181Y-110604740D01*
X91678213Y-110639707D01*
X91678210Y-110639711D01*
X91590609Y-110770814D01*
X91590602Y-110770827D01*
X91530264Y-110916498D01*
X91530261Y-110916510D01*
X91499500Y-111071153D01*
X91499500Y-111228846D01*
X91530261Y-111383489D01*
X91530264Y-111383501D01*
X91590602Y-111529172D01*
X91590609Y-111529185D01*
X91678210Y-111660288D01*
X91678213Y-111660292D01*
X91789707Y-111771786D01*
X91789711Y-111771789D01*
X91920814Y-111859390D01*
X91920827Y-111859397D01*
X92066498Y-111919735D01*
X92066503Y-111919737D01*
X92221153Y-111950499D01*
X92221156Y-111950500D01*
X92221158Y-111950500D01*
X92378844Y-111950500D01*
X92378845Y-111950499D01*
X92533497Y-111919737D01*
X92679179Y-111859394D01*
X92810289Y-111771789D01*
X92921789Y-111660289D01*
X93009394Y-111529179D01*
X93069737Y-111383497D01*
X93100500Y-111228842D01*
X93100500Y-111071158D01*
X93100500Y-111071155D01*
X93100499Y-111071153D01*
X93074531Y-110940606D01*
X93069737Y-110916503D01*
X93055284Y-110881610D01*
X93009397Y-110770828D01*
X93009396Y-110770827D01*
X93009394Y-110770821D01*
X92971396Y-110713953D01*
X92950520Y-110647276D01*
X92950500Y-110645064D01*
X92950500Y-109429601D01*
X92970185Y-109362562D01*
X93018206Y-109319116D01*
X93031610Y-109312287D01*
X93197219Y-109191966D01*
X93341966Y-109047219D01*
X93341968Y-109047215D01*
X93341971Y-109047213D01*
X93462284Y-108881614D01*
X93462285Y-108881613D01*
X93462287Y-108881610D01*
X93469117Y-108868204D01*
X93517091Y-108817409D01*
X93579602Y-108800500D01*
X95920398Y-108800500D01*
X95987437Y-108820185D01*
X96030883Y-108868205D01*
X96037715Y-108881614D01*
X96158028Y-109047213D01*
X96302786Y-109191971D01*
X96457749Y-109304556D01*
X96468390Y-109312287D01*
X96547864Y-109352781D01*
X96650776Y-109405218D01*
X96650778Y-109405218D01*
X96650781Y-109405220D01*
X96725818Y-109429601D01*
X96845465Y-109468477D01*
X96946557Y-109484488D01*
X97047648Y-109500500D01*
X97047649Y-109500500D01*
X97252351Y-109500500D01*
X97252352Y-109500500D01*
X97454534Y-109468477D01*
X97649219Y-109405220D01*
X97831610Y-109312287D01*
X97940067Y-109233489D01*
X97997213Y-109191971D01*
X97997215Y-109191968D01*
X97997219Y-109191966D01*
X98141966Y-109047219D01*
X98141968Y-109047215D01*
X98141971Y-109047213D01*
X98226024Y-108931522D01*
X98262287Y-108881610D01*
X98355220Y-108699219D01*
X98418477Y-108504534D01*
X98450500Y-108302352D01*
X98450500Y-108097648D01*
X98418477Y-107895466D01*
X98413893Y-107881359D01*
X98382351Y-107784281D01*
X98355220Y-107700781D01*
X98355218Y-107700778D01*
X98355218Y-107700776D01*
X98303919Y-107600098D01*
X98262287Y-107518390D01*
X98225181Y-107467317D01*
X98141971Y-107352786D01*
X97997213Y-107208028D01*
X97831613Y-107087715D01*
X97831612Y-107087714D01*
X97831610Y-107087713D01*
X97774653Y-107058691D01*
X97649223Y-106994781D01*
X97454534Y-106931522D01*
X97279995Y-106903878D01*
X97252352Y-106899500D01*
X97047648Y-106899500D01*
X97023329Y-106903351D01*
X96845465Y-106931522D01*
X96650776Y-106994781D01*
X96468386Y-107087715D01*
X96302786Y-107208028D01*
X96158028Y-107352786D01*
X96037715Y-107518385D01*
X96030883Y-107531795D01*
X95982909Y-107582591D01*
X95920398Y-107599500D01*
X93579602Y-107599500D01*
X93512563Y-107579815D01*
X93469117Y-107531795D01*
X93462284Y-107518385D01*
X93341971Y-107352786D01*
X93197213Y-107208028D01*
X93031613Y-107087715D01*
X93031612Y-107087714D01*
X93031610Y-107087713D01*
X92974653Y-107058691D01*
X92849223Y-106994781D01*
X92654534Y-106931522D01*
X92479995Y-106903878D01*
X92452352Y-106899500D01*
X92247648Y-106899500D01*
X92223329Y-106903351D01*
X92045465Y-106931522D01*
X91850776Y-106994781D01*
X91668386Y-107087715D01*
X91502786Y-107208028D01*
X91358028Y-107352786D01*
X91237715Y-107518386D01*
X91144781Y-107700776D01*
X91081522Y-107895465D01*
X91049500Y-108097648D01*
X88713093Y-108097648D01*
X88692464Y-108077019D01*
X88531694Y-107960213D01*
X88375218Y-107880484D01*
X88324423Y-107832510D01*
X88307628Y-107764689D01*
X88330165Y-107698554D01*
X88375218Y-107659515D01*
X88531694Y-107579787D01*
X88692464Y-107462981D01*
X88832981Y-107322464D01*
X88949787Y-107161694D01*
X89040005Y-106984632D01*
X89101413Y-106795636D01*
X89132500Y-106599361D01*
X89132500Y-106400639D01*
X89123617Y-106344555D01*
X89108897Y-106251612D01*
X89104924Y-106226533D01*
X89101413Y-106204364D01*
X89040005Y-106015368D01*
X89040005Y-106015367D01*
X88981222Y-105900000D01*
X88949787Y-105838306D01*
X88832981Y-105677536D01*
X88692464Y-105537019D01*
X88531694Y-105420213D01*
X88354632Y-105329994D01*
X88354629Y-105329993D01*
X88165637Y-105268587D01*
X88067498Y-105253043D01*
X87969361Y-105237500D01*
X87770639Y-105237500D01*
X87705214Y-105247862D01*
X87574362Y-105268587D01*
X87385370Y-105329993D01*
X87385367Y-105329994D01*
X87208305Y-105420213D01*
X87047533Y-105537021D01*
X86907021Y-105677533D01*
X86790213Y-105838305D01*
X86699994Y-106015367D01*
X86699993Y-106015370D01*
X86638587Y-106204362D01*
X86607500Y-106400639D01*
X86607500Y-106599360D01*
X86638587Y-106795637D01*
X86699993Y-106984629D01*
X86699994Y-106984632D01*
X86757597Y-107097682D01*
X86790213Y-107161694D01*
X86907019Y-107322464D01*
X87047536Y-107462981D01*
X87208306Y-107579787D01*
X87326832Y-107640179D01*
X87364780Y-107659515D01*
X87415576Y-107707490D01*
X87432371Y-107775311D01*
X87409833Y-107841446D01*
X87364780Y-107880485D01*
X87208305Y-107960213D01*
X87047533Y-108077021D01*
X86907021Y-108217533D01*
X86790213Y-108378305D01*
X86699994Y-108555367D01*
X86699993Y-108555370D01*
X86638587Y-108744362D01*
X86607500Y-108940639D01*
X86607500Y-109139360D01*
X86638587Y-109335637D01*
X86699993Y-109524629D01*
X86699994Y-109524632D01*
X86779031Y-109679748D01*
X86790213Y-109701694D01*
X86907019Y-109862464D01*
X87047536Y-110002981D01*
X87208306Y-110119787D01*
X87298647Y-110165818D01*
X87364780Y-110199515D01*
X87415576Y-110247490D01*
X87432371Y-110315311D01*
X87409833Y-110381446D01*
X87364780Y-110420485D01*
X87208305Y-110500213D01*
X87047533Y-110617021D01*
X86907021Y-110757533D01*
X86790213Y-110918305D01*
X86699994Y-111095367D01*
X86699993Y-111095370D01*
X86638587Y-111284362D01*
X86614137Y-111438736D01*
X86607500Y-111480639D01*
X86607500Y-111679361D01*
X86609697Y-111693231D01*
X86605654Y-111724504D01*
X86603405Y-111755960D01*
X86601209Y-111758892D01*
X86600740Y-111762524D01*
X86580432Y-111786646D01*
X86561533Y-111811893D01*
X86558102Y-111813172D01*
X86555743Y-111815975D01*
X86525615Y-111825289D01*
X86496069Y-111836310D01*
X86492489Y-111835531D01*
X86488991Y-111836613D01*
X86458608Y-111828160D01*
X86427796Y-111821458D01*
X86423823Y-111818484D01*
X86421677Y-111817887D01*
X86399542Y-111800307D01*
X86286819Y-111687584D01*
X86253334Y-111626261D01*
X86250500Y-111599903D01*
X86250500Y-111571155D01*
X86250499Y-111571153D01*
X86219737Y-111416503D01*
X86219735Y-111416498D01*
X86159397Y-111270827D01*
X86159390Y-111270814D01*
X86071789Y-111139711D01*
X86071786Y-111139707D01*
X85960292Y-111028213D01*
X85960288Y-111028210D01*
X85829185Y-110940609D01*
X85829172Y-110940602D01*
X85683501Y-110880264D01*
X85683489Y-110880261D01*
X85528845Y-110849500D01*
X85528842Y-110849500D01*
X85371158Y-110849500D01*
X85371155Y-110849500D01*
X85216510Y-110880261D01*
X85216498Y-110880264D01*
X85070827Y-110940602D01*
X85070814Y-110940609D01*
X84939711Y-111028210D01*
X84939707Y-111028213D01*
X84828213Y-111139707D01*
X84828210Y-111139711D01*
X84740609Y-111270814D01*
X84740602Y-111270827D01*
X84688448Y-111396741D01*
X84644607Y-111451145D01*
X84578313Y-111473210D01*
X84510614Y-111455931D01*
X84486206Y-111436970D01*
X83882535Y-110833300D01*
X83849050Y-110771977D01*
X83853917Y-110703918D01*
X83853714Y-110703852D01*
X83853980Y-110703031D01*
X83854034Y-110702286D01*
X83855117Y-110699533D01*
X83855218Y-110699223D01*
X83855220Y-110699219D01*
X83918477Y-110504534D01*
X83950500Y-110302352D01*
X83950500Y-110097648D01*
X83918477Y-109895466D01*
X83855220Y-109700781D01*
X83855218Y-109700778D01*
X83855218Y-109700776D01*
X83821503Y-109634607D01*
X83762287Y-109518390D01*
X83749289Y-109500500D01*
X83641971Y-109352786D01*
X83497213Y-109208028D01*
X83331613Y-109087715D01*
X83331612Y-109087714D01*
X83331610Y-109087713D01*
X83274653Y-109058691D01*
X83149223Y-108994781D01*
X82954534Y-108931522D01*
X82779995Y-108903878D01*
X82752352Y-108899500D01*
X82547648Y-108899500D01*
X82523329Y-108903351D01*
X82345465Y-108931522D01*
X82150776Y-108994781D01*
X81968386Y-109087715D01*
X81802786Y-109208028D01*
X81658028Y-109352786D01*
X81537715Y-109518385D01*
X81530883Y-109531795D01*
X81482909Y-109582591D01*
X81420398Y-109599500D01*
X79079602Y-109599500D01*
X79012563Y-109579815D01*
X78969117Y-109531795D01*
X78962284Y-109518385D01*
X78841971Y-109352786D01*
X78697213Y-109208028D01*
X78531613Y-109087715D01*
X78531612Y-109087714D01*
X78531610Y-109087713D01*
X78474653Y-109058691D01*
X78349223Y-108994781D01*
X78154534Y-108931522D01*
X77979995Y-108903878D01*
X77952352Y-108899500D01*
X77747648Y-108899500D01*
X77723329Y-108903351D01*
X77545465Y-108931522D01*
X77350776Y-108994781D01*
X77168386Y-109087715D01*
X77002786Y-109208028D01*
X76858028Y-109352786D01*
X76737715Y-109518386D01*
X76644781Y-109700776D01*
X76581522Y-109895465D01*
X76549500Y-110097648D01*
X76549500Y-110302352D01*
X76549870Y-110304689D01*
X76581522Y-110504534D01*
X76644781Y-110699223D01*
X76681852Y-110771977D01*
X76737027Y-110880264D01*
X76737715Y-110881613D01*
X76858028Y-111047213D01*
X77002786Y-111191971D01*
X77129954Y-111284362D01*
X77168390Y-111312287D01*
X77284607Y-111371503D01*
X77350776Y-111405218D01*
X77350778Y-111405218D01*
X77350781Y-111405220D01*
X77453933Y-111438736D01*
X77545465Y-111468477D01*
X77625302Y-111481122D01*
X77747648Y-111500500D01*
X77747649Y-111500500D01*
X77952351Y-111500500D01*
X77952352Y-111500500D01*
X78154534Y-111468477D01*
X78349219Y-111405220D01*
X78531610Y-111312287D01*
X78646458Y-111228846D01*
X78697213Y-111191971D01*
X78697215Y-111191968D01*
X78697219Y-111191966D01*
X78841966Y-111047219D01*
X78841968Y-111047215D01*
X78841971Y-111047213D01*
X78962284Y-110881614D01*
X78962285Y-110881613D01*
X78962287Y-110881610D01*
X78969117Y-110868204D01*
X79017091Y-110817409D01*
X79079602Y-110800500D01*
X81420398Y-110800500D01*
X81487437Y-110820185D01*
X81530883Y-110868205D01*
X81537715Y-110881614D01*
X81658028Y-111047213D01*
X81802786Y-111191971D01*
X81929954Y-111284362D01*
X81968390Y-111312287D01*
X82084607Y-111371503D01*
X82150776Y-111405218D01*
X82150778Y-111405218D01*
X82150781Y-111405220D01*
X82253933Y-111438736D01*
X82345465Y-111468477D01*
X82425302Y-111481122D01*
X82547648Y-111500500D01*
X82547649Y-111500500D01*
X82752349Y-111500500D01*
X82752352Y-111500500D01*
X82775337Y-111496859D01*
X82844628Y-111505813D01*
X82882416Y-111531651D01*
X86959978Y-115609214D01*
X86993463Y-115670537D01*
X86988479Y-115740229D01*
X86959979Y-115784575D01*
X86907021Y-115837533D01*
X86787349Y-116002248D01*
X86785487Y-116000895D01*
X86740517Y-116041333D01*
X86671553Y-116052544D01*
X86607475Y-116024691D01*
X86599263Y-116017184D01*
X86560292Y-115978213D01*
X86560288Y-115978210D01*
X86429185Y-115890609D01*
X86429172Y-115890602D01*
X86283501Y-115830264D01*
X86283489Y-115830261D01*
X86128845Y-115799500D01*
X86128842Y-115799500D01*
X85971158Y-115799500D01*
X85971155Y-115799500D01*
X85816510Y-115830261D01*
X85816498Y-115830264D01*
X85670827Y-115890602D01*
X85670814Y-115890609D01*
X85539711Y-115978210D01*
X85539707Y-115978213D01*
X85428213Y-116089707D01*
X85428210Y-116089711D01*
X85340609Y-116220814D01*
X85340602Y-116220827D01*
X85280264Y-116366498D01*
X85280261Y-116366510D01*
X85249500Y-116521153D01*
X85249500Y-116678846D01*
X85280261Y-116833489D01*
X85280264Y-116833501D01*
X85340602Y-116979172D01*
X85340609Y-116979185D01*
X85428210Y-117110288D01*
X85428213Y-117110292D01*
X85539707Y-117221786D01*
X85539711Y-117221789D01*
X85670814Y-117309390D01*
X85670827Y-117309397D01*
X85754906Y-117344223D01*
X85816503Y-117369737D01*
X85971153Y-117400499D01*
X85971156Y-117400500D01*
X85971158Y-117400500D01*
X86128844Y-117400500D01*
X86128845Y-117400499D01*
X86283497Y-117369737D01*
X86429179Y-117309394D01*
X86471078Y-117281397D01*
X86489125Y-117275746D01*
X86505034Y-117265523D01*
X86535993Y-117261071D01*
X86537755Y-117260520D01*
X86539969Y-117260500D01*
X86683270Y-117260500D01*
X86750309Y-117280185D01*
X86787191Y-117317866D01*
X86787349Y-117317752D01*
X86788127Y-117318823D01*
X86789000Y-117319715D01*
X86790210Y-117321690D01*
X86799452Y-117334410D01*
X86907019Y-117482464D01*
X87047536Y-117622981D01*
X87208306Y-117739787D01*
X87365332Y-117819796D01*
X87416127Y-117867769D01*
X87432922Y-117935590D01*
X87410385Y-118001725D01*
X87365332Y-118040764D01*
X87208566Y-118120641D01*
X87171283Y-118147729D01*
X87171282Y-118147730D01*
X87785906Y-118762352D01*
X87698429Y-118785792D01*
X87597070Y-118844311D01*
X87514311Y-118927070D01*
X87455792Y-119028429D01*
X87432352Y-119115905D01*
X86817730Y-118501282D01*
X86817729Y-118501283D01*
X86790643Y-118538564D01*
X86700457Y-118715562D01*
X86639075Y-118904476D01*
X86639075Y-118904479D01*
X86608000Y-119100678D01*
X86608000Y-119299321D01*
X86639075Y-119495520D01*
X86639075Y-119495523D01*
X86700457Y-119684437D01*
X86790641Y-119861432D01*
X86817730Y-119898715D01*
X87432352Y-119284093D01*
X87455792Y-119371571D01*
X87514311Y-119472930D01*
X87597070Y-119555689D01*
X87698429Y-119614208D01*
X87785905Y-119637647D01*
X87171283Y-120252268D01*
X87171283Y-120252269D01*
X87208567Y-120279358D01*
X87365331Y-120359234D01*
X87416127Y-120407209D01*
X87432922Y-120475030D01*
X87410384Y-120541165D01*
X87365331Y-120580204D01*
X87208305Y-120660213D01*
X87047533Y-120777021D01*
X86907021Y-120917533D01*
X86790213Y-121078305D01*
X86699994Y-121255367D01*
X86699993Y-121255370D01*
X86638587Y-121444362D01*
X86607500Y-121640639D01*
X86607500Y-121839360D01*
X86638587Y-122035639D01*
X86657361Y-122093420D01*
X86659356Y-122163261D01*
X86623275Y-122223094D01*
X86560574Y-122253921D01*
X86539430Y-122255737D01*
X76586334Y-122255737D01*
X76519295Y-122236052D01*
X76498653Y-122219418D01*
X73893762Y-119614527D01*
X73860277Y-119553204D01*
X73860843Y-119500478D01*
X73860651Y-119500448D01*
X73860857Y-119499143D01*
X73860871Y-119497891D01*
X73861409Y-119495646D01*
X73861413Y-119495636D01*
X73892500Y-119299361D01*
X73892500Y-119100639D01*
X73861413Y-118904364D01*
X73803834Y-118727152D01*
X73800006Y-118715370D01*
X73800005Y-118715367D01*
X73720356Y-118559049D01*
X73709787Y-118538306D01*
X73592981Y-118377536D01*
X73515968Y-118300523D01*
X73511632Y-118292581D01*
X73504385Y-118287157D01*
X73495147Y-118262392D01*
X73482484Y-118239201D01*
X73483129Y-118230174D01*
X73479966Y-118221693D01*
X73485582Y-118195869D01*
X73487468Y-118169509D01*
X73493285Y-118160456D01*
X73494816Y-118153420D01*
X73515961Y-118125172D01*
X73515966Y-118125165D01*
X73520490Y-118120641D01*
X73550415Y-118090716D01*
X73550416Y-118090713D01*
X74050506Y-117590623D01*
X74050511Y-117590619D01*
X74060714Y-117580415D01*
X74060716Y-117580415D01*
X74172520Y-117468611D01*
X74222164Y-117382623D01*
X74272729Y-117334410D01*
X74341336Y-117321186D01*
X74394647Y-117339087D01*
X74474254Y-117388189D01*
X74474257Y-117388189D01*
X74518224Y-117344223D01*
X75367352Y-116495094D01*
X75390792Y-116582571D01*
X75449311Y-116683930D01*
X75532070Y-116766689D01*
X75633429Y-116825208D01*
X75720905Y-116848647D01*
X75108552Y-117460998D01*
X75108553Y-117460999D01*
X76501446Y-117460999D01*
X76501446Y-117460998D01*
X75889095Y-116848647D01*
X75976571Y-116825208D01*
X76077930Y-116766689D01*
X76160689Y-116683930D01*
X76219208Y-116582571D01*
X76242647Y-116495094D01*
X77135741Y-117388189D01*
X77135742Y-117388189D01*
X77273345Y-117303315D01*
X77397315Y-117179345D01*
X77489356Y-117030124D01*
X77489358Y-117030119D01*
X77544505Y-116863697D01*
X77544506Y-116863690D01*
X77554999Y-116760986D01*
X77554999Y-116061028D01*
X77554998Y-116061012D01*
X77544505Y-115958302D01*
X77489358Y-115791880D01*
X77489356Y-115791875D01*
X77397315Y-115642654D01*
X77301195Y-115546534D01*
X77267710Y-115485211D01*
X77272694Y-115415519D01*
X77301191Y-115371176D01*
X77397712Y-115274656D01*
X77489814Y-115125334D01*
X77544999Y-114958797D01*
X77555500Y-114856009D01*
X77555499Y-114155992D01*
X77544999Y-114053203D01*
X77489814Y-113886666D01*
X77397712Y-113737344D01*
X77273656Y-113613288D01*
X77128405Y-113523697D01*
X77124336Y-113521187D01*
X77124331Y-113521185D01*
X77122862Y-113520698D01*
X76957797Y-113466001D01*
X76957795Y-113466000D01*
X76855010Y-113455500D01*
X74754998Y-113455500D01*
X74754981Y-113455501D01*
X74652203Y-113466000D01*
X74652200Y-113466001D01*
X74485668Y-113521185D01*
X74485666Y-113521185D01*
X74485666Y-113521186D01*
X74485662Y-113521187D01*
X74485661Y-113521189D01*
X74481595Y-113523697D01*
X74414202Y-113542136D01*
X74347539Y-113521212D01*
X74302770Y-113467569D01*
X74292500Y-113418157D01*
X74292500Y-112731060D01*
X74292501Y-112731047D01*
X74292501Y-112562945D01*
X74292501Y-112562943D01*
X74251577Y-112410215D01*
X74172520Y-112273284D01*
X73893761Y-111994526D01*
X73860277Y-111933204D01*
X73860843Y-111880478D01*
X73860651Y-111880448D01*
X73860857Y-111879143D01*
X73860871Y-111877891D01*
X73861409Y-111875646D01*
X73861413Y-111875636D01*
X73892500Y-111679361D01*
X73892500Y-111480639D01*
X73861413Y-111284364D01*
X73814413Y-111139711D01*
X73800006Y-111095370D01*
X73800005Y-111095367D01*
X73709786Y-110918305D01*
X73708473Y-110916498D01*
X73592981Y-110757536D01*
X73452464Y-110617019D01*
X73291694Y-110500213D01*
X73135218Y-110420484D01*
X73084423Y-110372510D01*
X73067628Y-110304689D01*
X73090165Y-110238554D01*
X73135218Y-110199515D01*
X73291694Y-110119787D01*
X73452464Y-110002981D01*
X73592981Y-109862464D01*
X73673714Y-109751344D01*
X73729042Y-109708679D01*
X73798656Y-109702700D01*
X73821483Y-109709669D01*
X73922100Y-109751345D01*
X73966503Y-109769737D01*
X74121153Y-109800499D01*
X74121156Y-109800500D01*
X74121158Y-109800500D01*
X74278844Y-109800500D01*
X74278845Y-109800499D01*
X74433497Y-109769737D01*
X74579179Y-109709394D01*
X74710289Y-109621789D01*
X74821789Y-109510289D01*
X74909394Y-109379179D01*
X74969737Y-109233497D01*
X75000500Y-109078842D01*
X75000500Y-108921158D01*
X75000500Y-108921155D01*
X75000499Y-108921153D01*
X74969738Y-108766510D01*
X74969737Y-108766503D01*
X74941869Y-108699223D01*
X74909397Y-108620827D01*
X74909390Y-108620814D01*
X74821789Y-108489711D01*
X74821786Y-108489707D01*
X74710292Y-108378213D01*
X74710288Y-108378210D01*
X74646094Y-108335317D01*
X74579185Y-108290609D01*
X74579172Y-108290602D01*
X74433501Y-108230264D01*
X74433489Y-108230261D01*
X74278845Y-108199500D01*
X74278842Y-108199500D01*
X74121158Y-108199500D01*
X74121155Y-108199500D01*
X73966510Y-108230261D01*
X73966498Y-108230264D01*
X73820828Y-108290602D01*
X73820818Y-108290608D01*
X73802305Y-108302977D01*
X73735626Y-108323851D01*
X73668247Y-108305363D01*
X73633101Y-108272757D01*
X73592981Y-108217536D01*
X73452464Y-108077019D01*
X73291694Y-107960213D01*
X73135218Y-107880484D01*
X73084423Y-107832510D01*
X73067628Y-107764689D01*
X73090165Y-107698554D01*
X73135218Y-107659515D01*
X73291694Y-107579787D01*
X73452464Y-107462981D01*
X73592981Y-107322464D01*
X73709787Y-107161694D01*
X73742403Y-107097682D01*
X76550000Y-107097682D01*
X76550000Y-107302317D01*
X76582009Y-107504417D01*
X76645244Y-107699031D01*
X76738141Y-107881350D01*
X76738147Y-107881359D01*
X76770523Y-107925921D01*
X76770524Y-107925922D01*
X77367038Y-107329408D01*
X77384076Y-107392992D01*
X77449902Y-107507006D01*
X77542994Y-107600098D01*
X77657008Y-107665924D01*
X77720590Y-107682961D01*
X77124076Y-108279474D01*
X77168650Y-108311859D01*
X77350968Y-108404755D01*
X77545582Y-108467990D01*
X77747683Y-108500000D01*
X77952317Y-108500000D01*
X78154417Y-108467990D01*
X78349031Y-108404755D01*
X78531349Y-108311859D01*
X78575921Y-108279474D01*
X77979408Y-107682961D01*
X78042992Y-107665924D01*
X78157006Y-107600098D01*
X78250098Y-107507006D01*
X78315924Y-107392992D01*
X78332961Y-107329408D01*
X78929474Y-107925921D01*
X78961859Y-107881349D01*
X79054755Y-107699031D01*
X79117990Y-107504417D01*
X79150000Y-107302317D01*
X79150000Y-107097682D01*
X81350000Y-107097682D01*
X81350000Y-107302317D01*
X81382009Y-107504417D01*
X81445244Y-107699031D01*
X81538141Y-107881350D01*
X81538147Y-107881359D01*
X81570523Y-107925921D01*
X81570524Y-107925922D01*
X82167038Y-107329407D01*
X82184076Y-107392992D01*
X82249902Y-107507006D01*
X82342994Y-107600098D01*
X82457008Y-107665924D01*
X82520590Y-107682961D01*
X81924076Y-108279474D01*
X81968650Y-108311859D01*
X82150968Y-108404755D01*
X82345582Y-108467990D01*
X82547683Y-108500000D01*
X82752317Y-108500000D01*
X82954417Y-108467990D01*
X83149031Y-108404755D01*
X83331349Y-108311859D01*
X83375921Y-108279474D01*
X82779408Y-107682961D01*
X82842992Y-107665924D01*
X82957006Y-107600098D01*
X83050098Y-107507006D01*
X83115924Y-107392992D01*
X83132961Y-107329408D01*
X83729474Y-107925921D01*
X83761859Y-107881349D01*
X83854755Y-107699031D01*
X83917990Y-107504417D01*
X83950000Y-107302317D01*
X83950000Y-107097682D01*
X83917990Y-106895582D01*
X83854755Y-106700968D01*
X83761859Y-106518650D01*
X83729474Y-106474077D01*
X83729474Y-106474076D01*
X83132961Y-107070590D01*
X83115924Y-107007008D01*
X83050098Y-106892994D01*
X82957006Y-106799902D01*
X82842992Y-106734076D01*
X82779407Y-106717038D01*
X83375922Y-106120524D01*
X83375921Y-106120523D01*
X83331359Y-106088147D01*
X83331350Y-106088141D01*
X83149031Y-105995244D01*
X82954417Y-105932009D01*
X82752317Y-105900000D01*
X82547683Y-105900000D01*
X82345582Y-105932009D01*
X82150968Y-105995244D01*
X81968644Y-106088143D01*
X81924077Y-106120523D01*
X81924077Y-106120524D01*
X82520592Y-106717038D01*
X82457008Y-106734076D01*
X82342994Y-106799902D01*
X82249902Y-106892994D01*
X82184076Y-107007008D01*
X82167038Y-107070591D01*
X81570524Y-106474077D01*
X81570523Y-106474077D01*
X81538143Y-106518644D01*
X81445244Y-106700968D01*
X81382009Y-106895582D01*
X81350000Y-107097682D01*
X79150000Y-107097682D01*
X79117990Y-106895582D01*
X79054755Y-106700968D01*
X78961859Y-106518650D01*
X78929474Y-106474077D01*
X78929474Y-106474076D01*
X78332961Y-107070590D01*
X78315924Y-107007008D01*
X78250098Y-106892994D01*
X78157006Y-106799902D01*
X78042992Y-106734076D01*
X77979407Y-106717038D01*
X78575922Y-106120524D01*
X78575921Y-106120523D01*
X78531359Y-106088147D01*
X78531350Y-106088141D01*
X78349031Y-105995244D01*
X78154417Y-105932009D01*
X77952317Y-105900000D01*
X77747683Y-105900000D01*
X77545582Y-105932009D01*
X77350968Y-105995244D01*
X77168644Y-106088143D01*
X77124077Y-106120523D01*
X77124077Y-106120524D01*
X77720592Y-106717038D01*
X77657008Y-106734076D01*
X77542994Y-106799902D01*
X77449902Y-106892994D01*
X77384076Y-107007008D01*
X77367038Y-107070591D01*
X76770524Y-106474077D01*
X76770523Y-106474077D01*
X76738143Y-106518644D01*
X76645244Y-106700968D01*
X76582009Y-106895582D01*
X76550000Y-107097682D01*
X73742403Y-107097682D01*
X73800005Y-106984632D01*
X73861413Y-106795636D01*
X73892500Y-106599361D01*
X73892500Y-106400639D01*
X73861413Y-106204364D01*
X73800005Y-106015368D01*
X73800005Y-106015367D01*
X73741222Y-105900000D01*
X73709787Y-105838306D01*
X73592981Y-105677536D01*
X73452464Y-105537019D01*
X73291694Y-105420213D01*
X73114632Y-105329994D01*
X73114629Y-105329993D01*
X72925637Y-105268587D01*
X72827498Y-105253043D01*
X72729361Y-105237500D01*
X72530639Y-105237500D01*
X72465214Y-105247862D01*
X72334362Y-105268587D01*
X72145370Y-105329993D01*
X72145367Y-105329994D01*
X71968305Y-105420213D01*
X71807533Y-105537021D01*
X71667021Y-105677533D01*
X71550213Y-105838305D01*
X71459994Y-106015367D01*
X71459993Y-106015370D01*
X71398587Y-106204362D01*
X71367500Y-106400639D01*
X71367500Y-106599360D01*
X71398587Y-106795637D01*
X71459993Y-106984629D01*
X71459994Y-106984632D01*
X71517597Y-107097682D01*
X71550213Y-107161694D01*
X71667019Y-107322464D01*
X71807536Y-107462981D01*
X71968306Y-107579787D01*
X72086832Y-107640179D01*
X72124780Y-107659515D01*
X72175576Y-107707490D01*
X72192371Y-107775311D01*
X72169833Y-107841446D01*
X72124780Y-107880485D01*
X71968305Y-107960213D01*
X71807533Y-108077021D01*
X71667021Y-108217533D01*
X71550213Y-108378305D01*
X71459994Y-108555367D01*
X71459993Y-108555370D01*
X71398587Y-108744362D01*
X71367500Y-108940639D01*
X71367500Y-109139360D01*
X71398587Y-109335637D01*
X71459993Y-109524629D01*
X71459994Y-109524632D01*
X71539031Y-109679748D01*
X71550213Y-109701694D01*
X71667019Y-109862464D01*
X71807536Y-110002981D01*
X71968306Y-110119787D01*
X72058647Y-110165818D01*
X72124780Y-110199515D01*
X72175576Y-110247490D01*
X72192371Y-110315311D01*
X72169833Y-110381446D01*
X72124780Y-110420485D01*
X71968305Y-110500213D01*
X71807533Y-110617021D01*
X71667021Y-110757533D01*
X71550213Y-110918305D01*
X71459994Y-111095367D01*
X71459993Y-111095370D01*
X71398587Y-111284362D01*
X71374137Y-111438736D01*
X71367500Y-111480639D01*
X71367500Y-111679361D01*
X71369697Y-111693231D01*
X71398587Y-111875637D01*
X71459993Y-112064629D01*
X71459994Y-112064632D01*
X71480341Y-112104564D01*
X71550213Y-112241694D01*
X71667019Y-112402464D01*
X71807536Y-112542981D01*
X71968306Y-112659787D01*
X72071708Y-112712473D01*
X72124780Y-112739515D01*
X72175576Y-112787490D01*
X72192371Y-112855311D01*
X72169833Y-112921446D01*
X72124780Y-112960485D01*
X71968305Y-113040213D01*
X71807533Y-113157021D01*
X71667021Y-113297533D01*
X71550213Y-113458305D01*
X71459994Y-113635367D01*
X71459993Y-113635370D01*
X71398587Y-113824362D01*
X71367500Y-114020639D01*
X71367500Y-114219360D01*
X71398587Y-114415637D01*
X71459993Y-114604629D01*
X71459994Y-114604632D01*
X71530442Y-114742891D01*
X71550213Y-114781694D01*
X71667019Y-114942464D01*
X71807536Y-115082981D01*
X71968306Y-115199787D01*
X72086832Y-115260179D01*
X72124780Y-115279515D01*
X72175576Y-115327490D01*
X72192371Y-115395311D01*
X72169833Y-115461446D01*
X72124780Y-115500485D01*
X71968305Y-115580213D01*
X71807533Y-115697021D01*
X71667021Y-115837533D01*
X71550210Y-115998309D01*
X71548514Y-116001638D01*
X71500534Y-116052429D01*
X71432711Y-116069218D01*
X71366579Y-116046673D01*
X71350354Y-116033013D01*
X70686819Y-115369478D01*
X70653334Y-115308155D01*
X70650500Y-115281797D01*
X70650500Y-105097682D01*
X91050000Y-105097682D01*
X91050000Y-105302317D01*
X91082009Y-105504417D01*
X91145244Y-105699031D01*
X91238141Y-105881350D01*
X91238147Y-105881359D01*
X91270523Y-105925921D01*
X91270524Y-105925922D01*
X91867038Y-105329407D01*
X91884076Y-105392992D01*
X91949902Y-105507006D01*
X92042994Y-105600098D01*
X92157008Y-105665924D01*
X92220590Y-105682961D01*
X91624076Y-106279474D01*
X91668650Y-106311859D01*
X91850968Y-106404755D01*
X92045582Y-106467990D01*
X92247683Y-106500000D01*
X92452317Y-106500000D01*
X92654417Y-106467990D01*
X92849031Y-106404755D01*
X93031349Y-106311859D01*
X93075922Y-106279474D01*
X92479408Y-105682961D01*
X92542992Y-105665924D01*
X92657006Y-105600098D01*
X92750098Y-105507006D01*
X92815924Y-105392992D01*
X92832961Y-105329408D01*
X93429474Y-105925921D01*
X93461859Y-105881349D01*
X93554755Y-105699031D01*
X93617990Y-105504417D01*
X93650000Y-105302317D01*
X93650000Y-105097682D01*
X95850000Y-105097682D01*
X95850000Y-105302317D01*
X95882009Y-105504417D01*
X95945244Y-105699031D01*
X96038141Y-105881350D01*
X96038147Y-105881359D01*
X96070523Y-105925921D01*
X96070524Y-105925922D01*
X96667038Y-105329407D01*
X96684076Y-105392992D01*
X96749902Y-105507006D01*
X96842994Y-105600098D01*
X96957008Y-105665924D01*
X97020590Y-105682961D01*
X96424076Y-106279474D01*
X96468650Y-106311859D01*
X96650968Y-106404755D01*
X96845582Y-106467990D01*
X97047683Y-106500000D01*
X97252317Y-106500000D01*
X97454417Y-106467990D01*
X97649031Y-106404755D01*
X97831349Y-106311859D01*
X97875921Y-106279474D01*
X97279408Y-105682961D01*
X97342992Y-105665924D01*
X97457006Y-105600098D01*
X97550098Y-105507006D01*
X97615924Y-105392992D01*
X97632961Y-105329408D01*
X98229474Y-105925921D01*
X98261859Y-105881349D01*
X98354755Y-105699031D01*
X98417990Y-105504417D01*
X98450000Y-105302317D01*
X98450000Y-105097682D01*
X98417990Y-104895582D01*
X98354755Y-104700968D01*
X98261859Y-104518650D01*
X98229474Y-104474077D01*
X98229474Y-104474076D01*
X97632961Y-105070590D01*
X97615924Y-105007008D01*
X97550098Y-104892994D01*
X97457006Y-104799902D01*
X97342992Y-104734076D01*
X97279407Y-104717038D01*
X97875922Y-104120524D01*
X97875921Y-104120523D01*
X97831359Y-104088147D01*
X97831350Y-104088141D01*
X97649031Y-103995244D01*
X97454417Y-103932009D01*
X97252317Y-103900000D01*
X97047683Y-103900000D01*
X96845582Y-103932009D01*
X96650968Y-103995244D01*
X96468644Y-104088143D01*
X96424077Y-104120523D01*
X96424077Y-104120524D01*
X97020592Y-104717038D01*
X96957008Y-104734076D01*
X96842994Y-104799902D01*
X96749902Y-104892994D01*
X96684076Y-105007008D01*
X96667038Y-105070591D01*
X96070524Y-104474077D01*
X96070523Y-104474077D01*
X96038143Y-104518644D01*
X95945244Y-104700968D01*
X95882009Y-104895582D01*
X95850000Y-105097682D01*
X93650000Y-105097682D01*
X93617990Y-104895582D01*
X93554755Y-104700968D01*
X93461859Y-104518650D01*
X93429474Y-104474077D01*
X93429474Y-104474076D01*
X92832961Y-105070590D01*
X92815924Y-105007008D01*
X92750098Y-104892994D01*
X92657006Y-104799902D01*
X92542992Y-104734076D01*
X92479407Y-104717038D01*
X93075922Y-104120524D01*
X93075921Y-104120523D01*
X93031359Y-104088147D01*
X93031350Y-104088141D01*
X92849031Y-103995244D01*
X92654417Y-103932009D01*
X92452317Y-103900000D01*
X92247683Y-103900000D01*
X92045582Y-103932009D01*
X91850968Y-103995244D01*
X91668644Y-104088143D01*
X91624077Y-104120523D01*
X91624077Y-104120524D01*
X92220592Y-104717038D01*
X92157008Y-104734076D01*
X92042994Y-104799902D01*
X91949902Y-104892994D01*
X91884076Y-105007008D01*
X91867038Y-105070591D01*
X91270524Y-104474077D01*
X91270523Y-104474077D01*
X91238143Y-104518644D01*
X91145244Y-104700968D01*
X91082009Y-104895582D01*
X91050000Y-105097682D01*
X70650500Y-105097682D01*
X70650500Y-95712838D01*
X70670185Y-95645799D01*
X70686814Y-95625162D01*
X71830074Y-94481902D01*
X90399500Y-94481902D01*
X90399500Y-94718097D01*
X90436446Y-94951368D01*
X90509433Y-95175996D01*
X90616657Y-95386433D01*
X90755483Y-95577510D01*
X90922490Y-95744517D01*
X91113567Y-95883343D01*
X91205484Y-95930177D01*
X91324003Y-95990566D01*
X91324005Y-95990566D01*
X91324008Y-95990568D01*
X91394767Y-96013559D01*
X91548631Y-96063553D01*
X91781903Y-96100500D01*
X91781908Y-96100500D01*
X92018097Y-96100500D01*
X92251368Y-96063553D01*
X92282129Y-96053558D01*
X92475992Y-95990568D01*
X92686433Y-95883343D01*
X92877510Y-95744517D01*
X93044517Y-95577510D01*
X93183343Y-95386433D01*
X93290568Y-95175992D01*
X93363553Y-94951368D01*
X93400500Y-94718097D01*
X93400500Y-94481902D01*
X93363553Y-94248631D01*
X93290566Y-94024003D01*
X93183342Y-93813566D01*
X93044517Y-93622490D01*
X92877510Y-93455483D01*
X92686433Y-93316657D01*
X92635733Y-93290824D01*
X92475996Y-93209433D01*
X92251368Y-93136446D01*
X92018097Y-93099500D01*
X92018092Y-93099500D01*
X91781908Y-93099500D01*
X91781903Y-93099500D01*
X91548631Y-93136446D01*
X91324003Y-93209433D01*
X91113566Y-93316657D01*
X91073005Y-93346127D01*
X90922490Y-93455483D01*
X90922488Y-93455485D01*
X90922487Y-93455485D01*
X90755485Y-93622487D01*
X90755485Y-93622488D01*
X90755483Y-93622490D01*
X90695862Y-93704550D01*
X90616657Y-93813566D01*
X90509433Y-94024003D01*
X90436446Y-94248631D01*
X90399500Y-94481902D01*
X71830074Y-94481902D01*
X75708506Y-90603469D01*
X75708511Y-90603466D01*
X75718714Y-90593262D01*
X75718716Y-90593262D01*
X75830520Y-90481458D01*
X75904243Y-90353765D01*
X75909577Y-90344527D01*
X75950501Y-90191799D01*
X75950501Y-90033685D01*
X75950501Y-90026090D01*
X75950500Y-90026072D01*
X75950500Y-84158566D01*
X75970185Y-84091527D01*
X76022989Y-84045772D01*
X76092147Y-84035828D01*
X76147388Y-84058250D01*
X76161414Y-84068441D01*
X76385815Y-84182780D01*
X76625330Y-84260602D01*
X76874072Y-84300000D01*
X77125928Y-84300000D01*
X77374669Y-84260602D01*
X77614184Y-84182780D01*
X77838575Y-84068446D01*
X77838581Y-84068442D01*
X77940697Y-83994250D01*
X77940698Y-83994250D01*
X77285756Y-83339309D01*
X77331574Y-83320331D01*
X77446223Y-83243725D01*
X77543725Y-83146223D01*
X77620331Y-83031574D01*
X77639308Y-82985756D01*
X78294250Y-83640698D01*
X78294250Y-83640697D01*
X78368442Y-83538581D01*
X78368446Y-83538575D01*
X78482780Y-83314184D01*
X78560602Y-83074669D01*
X78600000Y-82825928D01*
X78600000Y-82574071D01*
X78599995Y-82574038D01*
X81899500Y-82574038D01*
X81899500Y-82825961D01*
X81938910Y-83074785D01*
X82016760Y-83314383D01*
X82095413Y-83468747D01*
X82130995Y-83538581D01*
X82131132Y-83538848D01*
X82279201Y-83742649D01*
X82279205Y-83742654D01*
X82457345Y-83920794D01*
X82457350Y-83920798D01*
X82558449Y-83994250D01*
X82661155Y-84068870D01*
X82804184Y-84141747D01*
X82885616Y-84183239D01*
X82885618Y-84183239D01*
X82885621Y-84183241D01*
X83125215Y-84261090D01*
X83374038Y-84300500D01*
X83374039Y-84300500D01*
X83625961Y-84300500D01*
X83625962Y-84300500D01*
X83777994Y-84276420D01*
X83847285Y-84285374D01*
X83900737Y-84330370D01*
X83921377Y-84397122D01*
X83919007Y-84423084D01*
X83899500Y-84521153D01*
X83899500Y-84678846D01*
X83930261Y-84833489D01*
X83930264Y-84833501D01*
X83990602Y-84979172D01*
X83990609Y-84979185D01*
X84078210Y-85110288D01*
X84078213Y-85110292D01*
X84189707Y-85221786D01*
X84189711Y-85221789D01*
X84320814Y-85309390D01*
X84320827Y-85309397D01*
X84466498Y-85369735D01*
X84466503Y-85369737D01*
X84588853Y-85394074D01*
X84621153Y-85400499D01*
X84621156Y-85400500D01*
X84621158Y-85400500D01*
X84778844Y-85400500D01*
X84778845Y-85400499D01*
X84933497Y-85369737D01*
X85079179Y-85309394D01*
X85210289Y-85221789D01*
X85321789Y-85110289D01*
X85409394Y-84979179D01*
X85469737Y-84833497D01*
X85500500Y-84678842D01*
X85500500Y-84521158D01*
X85500500Y-84521155D01*
X85500499Y-84521153D01*
X85487550Y-84456054D01*
X85469737Y-84366503D01*
X85468378Y-84363222D01*
X85409397Y-84220827D01*
X85409390Y-84220814D01*
X85321789Y-84089711D01*
X85321786Y-84089707D01*
X85286819Y-84054740D01*
X85272115Y-84027812D01*
X85255523Y-84001994D01*
X85254631Y-83995793D01*
X85253334Y-83993417D01*
X85250500Y-83967059D01*
X85250500Y-83939060D01*
X85250501Y-83939047D01*
X85250501Y-83770944D01*
X85242919Y-83742649D01*
X85209577Y-83618216D01*
X85209573Y-83618209D01*
X85130524Y-83481290D01*
X85130518Y-83481282D01*
X85032159Y-83382923D01*
X84998674Y-83321600D01*
X85001908Y-83256925D01*
X85061090Y-83074785D01*
X85100500Y-82825962D01*
X85100500Y-82578711D01*
X106299500Y-82578711D01*
X106299500Y-82821288D01*
X106331161Y-83061785D01*
X106393947Y-83296104D01*
X106470654Y-83481290D01*
X106486776Y-83520212D01*
X106608064Y-83730289D01*
X106608066Y-83730292D01*
X106608067Y-83730293D01*
X106755733Y-83922736D01*
X106755739Y-83922743D01*
X106927256Y-84094260D01*
X106927262Y-84094265D01*
X107119711Y-84241936D01*
X107329788Y-84363224D01*
X107553900Y-84456054D01*
X107788211Y-84518838D01*
X107968586Y-84542584D01*
X108028711Y-84550500D01*
X108028712Y-84550500D01*
X108271289Y-84550500D01*
X108319388Y-84544167D01*
X108511789Y-84518838D01*
X108746100Y-84456054D01*
X108970212Y-84363224D01*
X109180289Y-84241936D01*
X109372738Y-84094265D01*
X109544265Y-83922738D01*
X109691936Y-83730289D01*
X109813224Y-83520212D01*
X109906054Y-83296100D01*
X109968838Y-83061789D01*
X110000500Y-82821288D01*
X110000500Y-82578712D01*
X109968838Y-82338211D01*
X109906054Y-82103900D01*
X109813224Y-81879788D01*
X109691936Y-81669711D01*
X109631018Y-81590321D01*
X109544266Y-81477263D01*
X109544260Y-81477256D01*
X109372743Y-81305739D01*
X109372736Y-81305733D01*
X109180293Y-81158067D01*
X109180292Y-81158066D01*
X109180289Y-81158064D01*
X108970212Y-81036776D01*
X108904927Y-81009734D01*
X108746104Y-80943947D01*
X108511785Y-80881161D01*
X108271289Y-80849500D01*
X108271288Y-80849500D01*
X108028712Y-80849500D01*
X108028711Y-80849500D01*
X107788214Y-80881161D01*
X107553895Y-80943947D01*
X107329794Y-81036773D01*
X107329785Y-81036777D01*
X107119706Y-81158067D01*
X106927263Y-81305733D01*
X106927256Y-81305739D01*
X106755739Y-81477256D01*
X106755733Y-81477263D01*
X106608067Y-81669706D01*
X106486777Y-81879785D01*
X106486773Y-81879794D01*
X106393947Y-82103895D01*
X106331161Y-82338214D01*
X106299500Y-82578711D01*
X85100500Y-82578711D01*
X85100500Y-82574038D01*
X85061090Y-82325215D01*
X84983241Y-82085621D01*
X84983239Y-82085618D01*
X84983239Y-82085616D01*
X84939615Y-82000001D01*
X84868870Y-81861155D01*
X84794868Y-81759300D01*
X84720798Y-81657350D01*
X84720794Y-81657345D01*
X84542654Y-81479205D01*
X84542649Y-81479201D01*
X84338848Y-81331132D01*
X84338847Y-81331131D01*
X84338845Y-81331130D01*
X84268747Y-81295413D01*
X84114383Y-81216760D01*
X83874785Y-81138910D01*
X83625962Y-81099500D01*
X83374038Y-81099500D01*
X83249626Y-81119205D01*
X83125214Y-81138910D01*
X82885616Y-81216760D01*
X82661151Y-81331132D01*
X82457350Y-81479201D01*
X82457345Y-81479205D01*
X82279205Y-81657345D01*
X82279201Y-81657350D01*
X82131132Y-81861151D01*
X82016760Y-82085616D01*
X81938910Y-82325214D01*
X81899500Y-82574038D01*
X78599995Y-82574038D01*
X78560602Y-82325330D01*
X78482780Y-82085815D01*
X78368442Y-81861416D01*
X78294250Y-81759301D01*
X78294250Y-81759300D01*
X77639308Y-82414242D01*
X77620331Y-82368426D01*
X77543725Y-82253777D01*
X77446223Y-82156275D01*
X77331574Y-82079669D01*
X77285755Y-82060690D01*
X77940698Y-81405748D01*
X77838583Y-81331557D01*
X77614184Y-81217219D01*
X77374669Y-81139397D01*
X77125928Y-81100000D01*
X76874072Y-81100000D01*
X76625330Y-81139397D01*
X76385815Y-81217219D01*
X76161417Y-81331556D01*
X76147385Y-81341752D01*
X76081578Y-81365231D01*
X76013525Y-81349405D01*
X75964830Y-81299299D01*
X75950500Y-81241433D01*
X75950500Y-79250096D01*
X75970185Y-79183057D01*
X75986814Y-79162420D01*
X83535797Y-71613436D01*
X83597118Y-71579953D01*
X83661794Y-71583188D01*
X83681051Y-71589444D01*
X83732049Y-71606015D01*
X83949778Y-71640500D01*
X83949779Y-71640500D01*
X84170221Y-71640500D01*
X84170222Y-71640500D01*
X84387951Y-71606015D01*
X84597606Y-71537895D01*
X84794022Y-71437815D01*
X84972365Y-71308242D01*
X85128242Y-71152365D01*
X85257815Y-70974022D01*
X85357895Y-70777606D01*
X85388991Y-70681902D01*
X90399500Y-70681902D01*
X90399500Y-70918097D01*
X90436446Y-71151368D01*
X90509433Y-71375996D01*
X90591926Y-71537896D01*
X90616657Y-71586433D01*
X90755483Y-71777510D01*
X90922490Y-71944517D01*
X91113567Y-72083343D01*
X91212991Y-72134002D01*
X91324003Y-72190566D01*
X91324005Y-72190566D01*
X91324008Y-72190568D01*
X91418139Y-72221153D01*
X91548631Y-72263553D01*
X91781903Y-72300500D01*
X91781908Y-72300500D01*
X92018097Y-72300500D01*
X92251368Y-72263553D01*
X92475992Y-72190568D01*
X92686433Y-72083343D01*
X92877510Y-71944517D01*
X93044517Y-71777510D01*
X93183343Y-71586433D01*
X93290568Y-71375992D01*
X93363553Y-71151368D01*
X93381586Y-71037513D01*
X93400500Y-70918097D01*
X93400500Y-70681902D01*
X93363553Y-70448631D01*
X93295764Y-70240000D01*
X93290568Y-70224008D01*
X93290566Y-70224005D01*
X93290566Y-70224003D01*
X93183342Y-70013566D01*
X93044517Y-69822490D01*
X92877510Y-69655483D01*
X92686433Y-69516657D01*
X92665474Y-69505978D01*
X92475996Y-69409433D01*
X92251368Y-69336446D01*
X92018097Y-69299500D01*
X92018092Y-69299500D01*
X91781908Y-69299500D01*
X91781903Y-69299500D01*
X91548631Y-69336446D01*
X91324003Y-69409433D01*
X91113566Y-69516657D01*
X91004550Y-69595862D01*
X90922490Y-69655483D01*
X90922488Y-69655485D01*
X90922487Y-69655485D01*
X90755485Y-69822487D01*
X90755485Y-69822488D01*
X90755483Y-69822490D01*
X90709016Y-69886446D01*
X90616657Y-70013566D01*
X90509433Y-70224003D01*
X90436446Y-70448631D01*
X90399500Y-70681902D01*
X85388991Y-70681902D01*
X85404028Y-70635623D01*
X85409079Y-70620074D01*
X85426015Y-70567951D01*
X85460500Y-70350222D01*
X85460500Y-70129778D01*
X85426015Y-69912049D01*
X85361993Y-69715007D01*
X85357896Y-69702396D01*
X85357895Y-69702393D01*
X85323237Y-69634375D01*
X85257815Y-69505978D01*
X85211685Y-69442485D01*
X85128247Y-69327641D01*
X85128243Y-69327636D01*
X84972363Y-69171756D01*
X84972358Y-69171752D01*
X84794025Y-69042187D01*
X84794024Y-69042186D01*
X84794022Y-69042185D01*
X84731096Y-69010122D01*
X84597606Y-68942104D01*
X84597603Y-68942103D01*
X84387952Y-68873985D01*
X84279086Y-68856742D01*
X84170222Y-68839500D01*
X83949778Y-68839500D01*
X83877201Y-68850995D01*
X83732047Y-68873985D01*
X83522396Y-68942103D01*
X83522393Y-68942104D01*
X83325974Y-69042187D01*
X83147641Y-69171752D01*
X83147636Y-69171756D01*
X82991756Y-69327636D01*
X82991752Y-69327641D01*
X82890318Y-69467254D01*
X82834988Y-69509920D01*
X82765375Y-69515899D01*
X82703580Y-69483293D01*
X82689682Y-69467254D01*
X82588247Y-69327641D01*
X82588243Y-69327636D01*
X82432363Y-69171756D01*
X82432358Y-69171752D01*
X82254025Y-69042187D01*
X82254024Y-69042186D01*
X82254022Y-69042185D01*
X82191096Y-69010122D01*
X82057606Y-68942104D01*
X82057603Y-68942103D01*
X81847952Y-68873985D01*
X81739086Y-68856742D01*
X81630222Y-68839500D01*
X81409778Y-68839500D01*
X81337201Y-68850995D01*
X81192047Y-68873985D01*
X80982396Y-68942103D01*
X80982393Y-68942104D01*
X80785974Y-69042187D01*
X80607641Y-69171752D01*
X80607636Y-69171756D01*
X80451756Y-69327636D01*
X80451752Y-69327641D01*
X80350318Y-69467254D01*
X80294988Y-69509920D01*
X80225375Y-69515899D01*
X80163580Y-69483293D01*
X80149682Y-69467254D01*
X80048247Y-69327641D01*
X80048243Y-69327636D01*
X79892363Y-69171756D01*
X79892358Y-69171752D01*
X79714025Y-69042187D01*
X79714024Y-69042186D01*
X79714022Y-69042185D01*
X79651096Y-69010122D01*
X79517606Y-68942104D01*
X79517603Y-68942103D01*
X79307952Y-68873985D01*
X79199086Y-68856742D01*
X79090222Y-68839500D01*
X78869778Y-68839500D01*
X78797201Y-68850995D01*
X78652047Y-68873985D01*
X78442396Y-68942103D01*
X78442393Y-68942104D01*
X78245974Y-69042187D01*
X78067641Y-69171752D01*
X78067636Y-69171756D01*
X77911756Y-69327636D01*
X77810008Y-69467681D01*
X77754678Y-69510346D01*
X77685065Y-69516325D01*
X77623270Y-69483719D01*
X77609371Y-69467680D01*
X77591066Y-69442485D01*
X77591065Y-69442485D01*
X76943369Y-70090183D01*
X76929215Y-70037360D01*
X76860099Y-69917647D01*
X76762353Y-69819901D01*
X76642640Y-69750785D01*
X76589814Y-69736630D01*
X77237513Y-69088932D01*
X77173756Y-69042611D01*
X76977410Y-68942567D01*
X76767835Y-68874473D01*
X76550181Y-68840000D01*
X76329819Y-68840000D01*
X76112164Y-68874473D01*
X75902589Y-68942567D01*
X75706233Y-69042616D01*
X75642485Y-69088931D01*
X75642485Y-69088932D01*
X76290183Y-69736630D01*
X76237360Y-69750785D01*
X76117647Y-69819901D01*
X76019901Y-69917647D01*
X75950785Y-70037360D01*
X75936630Y-70090183D01*
X75288932Y-69442485D01*
X75288931Y-69442485D01*
X75242616Y-69506233D01*
X75142567Y-69702589D01*
X75074473Y-69912164D01*
X75040000Y-70129818D01*
X75040000Y-70350181D01*
X75074473Y-70567835D01*
X75142567Y-70777410D01*
X75242611Y-70973756D01*
X75288932Y-71037513D01*
X75936630Y-70389815D01*
X75950785Y-70442640D01*
X76019901Y-70562353D01*
X76117647Y-70660099D01*
X76237360Y-70729215D01*
X76290183Y-70743369D01*
X75642485Y-71391065D01*
X75642485Y-71391066D01*
X75706243Y-71437388D01*
X75902589Y-71537432D01*
X76112164Y-71605526D01*
X76329819Y-71640000D01*
X76431401Y-71640000D01*
X76498440Y-71659685D01*
X76544195Y-71712489D01*
X76554139Y-71781647D01*
X76525114Y-71845203D01*
X76519082Y-71851681D01*
X76031286Y-72339478D01*
X75919481Y-72451282D01*
X75919477Y-72451287D01*
X75873004Y-72531783D01*
X75873003Y-72531782D01*
X75840424Y-72588211D01*
X75840423Y-72588215D01*
X75799499Y-72740943D01*
X75799499Y-72740945D01*
X75799499Y-72909046D01*
X75799500Y-72909059D01*
X75799500Y-72920234D01*
X75779815Y-72987273D01*
X75778602Y-72989125D01*
X75690609Y-73120814D01*
X75690602Y-73120827D01*
X75630264Y-73266498D01*
X75630261Y-73266510D01*
X75599500Y-73421153D01*
X75599500Y-73578846D01*
X75630261Y-73733489D01*
X75630264Y-73733501D01*
X75690602Y-73879172D01*
X75690609Y-73879185D01*
X75778210Y-74010288D01*
X75778213Y-74010292D01*
X75889707Y-74121786D01*
X75889711Y-74121789D01*
X76020814Y-74209390D01*
X76020827Y-74209397D01*
X76166498Y-74269735D01*
X76166503Y-74269737D01*
X76321153Y-74300499D01*
X76321156Y-74300500D01*
X76321158Y-74300500D01*
X76478844Y-74300500D01*
X76478845Y-74300499D01*
X76633497Y-74269737D01*
X76779179Y-74209394D01*
X76910289Y-74121789D01*
X77021789Y-74010289D01*
X77109394Y-73879179D01*
X77169737Y-73733497D01*
X77200500Y-73578842D01*
X77200500Y-73421158D01*
X77200500Y-73421155D01*
X77200499Y-73421153D01*
X77169738Y-73266510D01*
X77169737Y-73266503D01*
X77150417Y-73219860D01*
X77109397Y-73120827D01*
X77109389Y-73120813D01*
X77101452Y-73108934D01*
X77080573Y-73042257D01*
X77099057Y-72974877D01*
X77116868Y-72952365D01*
X78455797Y-71613436D01*
X78517118Y-71579953D01*
X78581794Y-71583188D01*
X78601051Y-71589444D01*
X78652049Y-71606015D01*
X78869778Y-71640500D01*
X78869779Y-71640500D01*
X79090221Y-71640500D01*
X79090222Y-71640500D01*
X79307951Y-71606015D01*
X79517606Y-71537895D01*
X79714022Y-71437815D01*
X79752615Y-71409775D01*
X79764474Y-71405544D01*
X79773989Y-71397300D01*
X79796754Y-71394026D01*
X79818421Y-71386296D01*
X79830685Y-71389147D01*
X79843147Y-71387356D01*
X79864069Y-71396911D01*
X79886474Y-71402121D01*
X79895248Y-71411150D01*
X79906703Y-71416381D01*
X79919140Y-71435733D01*
X79935169Y-71452227D01*
X79938573Y-71465972D01*
X79944477Y-71475159D01*
X79949500Y-71510094D01*
X79949500Y-71720234D01*
X79929815Y-71787273D01*
X79928602Y-71789125D01*
X79840609Y-71920814D01*
X79840602Y-71920827D01*
X79780264Y-72066498D01*
X79780261Y-72066510D01*
X79749500Y-72221153D01*
X79749500Y-72378846D01*
X79780261Y-72533489D01*
X79780264Y-72533501D01*
X79840602Y-72679172D01*
X79840609Y-72679185D01*
X79928210Y-72810288D01*
X79928213Y-72810292D01*
X80039707Y-72921786D01*
X80039711Y-72921789D01*
X80170814Y-73009390D01*
X80170823Y-73009395D01*
X80190675Y-73017618D01*
X80245078Y-73061459D01*
X80267143Y-73127753D01*
X80249864Y-73195453D01*
X80230903Y-73219860D01*
X74981286Y-78469478D01*
X74869481Y-78581282D01*
X74869480Y-78581284D01*
X74832240Y-78645786D01*
X74790423Y-78718215D01*
X74749499Y-78870943D01*
X74749499Y-78870945D01*
X74749499Y-79039046D01*
X74749500Y-79039059D01*
X74749500Y-89812645D01*
X74729815Y-89879684D01*
X74713181Y-89900326D01*
X70276836Y-94336670D01*
X70215513Y-94370155D01*
X70145821Y-94365171D01*
X70089888Y-94323299D01*
X70066682Y-94268387D01*
X70066236Y-94265572D01*
X70063553Y-94248632D01*
X69990568Y-94024008D01*
X69990566Y-94024005D01*
X69990566Y-94024003D01*
X69883342Y-93813566D01*
X69744517Y-93622490D01*
X69577510Y-93455483D01*
X69386433Y-93316657D01*
X69335733Y-93290824D01*
X69175996Y-93209433D01*
X68951368Y-93136446D01*
X68718097Y-93099500D01*
X68718092Y-93099500D01*
X68481908Y-93099500D01*
X68481903Y-93099500D01*
X68248631Y-93136446D01*
X68024003Y-93209433D01*
X67813566Y-93316657D01*
X67773005Y-93346127D01*
X67622490Y-93455483D01*
X67622488Y-93455485D01*
X67622487Y-93455485D01*
X67455485Y-93622487D01*
X67455485Y-93622488D01*
X67455483Y-93622490D01*
X67395862Y-93704550D01*
X67316657Y-93813566D01*
X67209433Y-94024003D01*
X67136446Y-94248631D01*
X67099500Y-94481902D01*
X67099500Y-94718097D01*
X67136446Y-94951368D01*
X67209433Y-95175996D01*
X67316657Y-95386433D01*
X67455483Y-95577510D01*
X67622490Y-95744517D01*
X67813567Y-95883343D01*
X67905484Y-95930177D01*
X68024003Y-95990566D01*
X68024005Y-95990566D01*
X68024008Y-95990568D01*
X68094767Y-96013559D01*
X68248631Y-96063553D01*
X68481903Y-96100500D01*
X68481908Y-96100500D01*
X68718097Y-96100500D01*
X68951368Y-96063553D01*
X68982129Y-96053558D01*
X69175992Y-95990568D01*
X69269204Y-95943073D01*
X69337874Y-95930177D01*
X69402614Y-95956453D01*
X69442872Y-96013559D01*
X69449500Y-96053558D01*
X69449500Y-104395282D01*
X69429815Y-104462321D01*
X69377011Y-104508076D01*
X69307853Y-104518020D01*
X69244297Y-104488995D01*
X69230693Y-104474172D01*
X69229474Y-104474076D01*
X68632961Y-105070590D01*
X68615924Y-105007008D01*
X68550098Y-104892994D01*
X68457006Y-104799902D01*
X68342992Y-104734076D01*
X68279407Y-104717038D01*
X68875922Y-104120524D01*
X68875921Y-104120523D01*
X68831359Y-104088147D01*
X68831350Y-104088141D01*
X68649031Y-103995244D01*
X68454417Y-103932009D01*
X68252317Y-103900000D01*
X68047683Y-103900000D01*
X67845582Y-103932009D01*
X67650968Y-103995244D01*
X67468644Y-104088143D01*
X67424077Y-104120523D01*
X67424077Y-104120524D01*
X68020592Y-104717038D01*
X67957008Y-104734076D01*
X67842994Y-104799902D01*
X67749902Y-104892994D01*
X67684076Y-105007008D01*
X67667038Y-105070591D01*
X67070524Y-104474077D01*
X67070523Y-104474077D01*
X67038143Y-104518644D01*
X66945244Y-104700968D01*
X66882009Y-104895582D01*
X66850000Y-105097682D01*
X66850000Y-105302317D01*
X66882009Y-105504417D01*
X66945244Y-105699031D01*
X67038141Y-105881350D01*
X67038147Y-105881359D01*
X67070523Y-105925921D01*
X67070524Y-105925922D01*
X67667038Y-105329407D01*
X67684076Y-105392992D01*
X67749902Y-105507006D01*
X67842994Y-105600098D01*
X67957008Y-105665924D01*
X68020590Y-105682961D01*
X67424076Y-106279474D01*
X67468650Y-106311859D01*
X67650968Y-106404755D01*
X67845582Y-106467990D01*
X68047683Y-106500000D01*
X68252317Y-106500000D01*
X68454417Y-106467990D01*
X68649031Y-106404755D01*
X68831349Y-106311859D01*
X68875921Y-106279474D01*
X68279408Y-105682961D01*
X68342992Y-105665924D01*
X68457006Y-105600098D01*
X68550098Y-105507006D01*
X68615924Y-105392992D01*
X68632961Y-105329409D01*
X69229474Y-105925922D01*
X69233225Y-105925626D01*
X69280512Y-105889164D01*
X69350126Y-105883185D01*
X69411921Y-105915791D01*
X69446278Y-105976630D01*
X69449500Y-106004715D01*
X69449500Y-107394432D01*
X69429815Y-107461471D01*
X69377011Y-107507226D01*
X69307853Y-107517170D01*
X69244297Y-107488145D01*
X69225182Y-107467317D01*
X69141971Y-107352787D01*
X69141967Y-107352782D01*
X68997213Y-107208028D01*
X68831613Y-107087715D01*
X68831612Y-107087714D01*
X68831610Y-107087713D01*
X68774653Y-107058691D01*
X68649223Y-106994781D01*
X68454534Y-106931522D01*
X68279995Y-106903878D01*
X68252352Y-106899500D01*
X68047648Y-106899500D01*
X68023329Y-106903351D01*
X67845465Y-106931522D01*
X67650776Y-106994781D01*
X67468386Y-107087715D01*
X67302786Y-107208028D01*
X67158028Y-107352786D01*
X67037715Y-107518385D01*
X67030883Y-107531795D01*
X66982909Y-107582591D01*
X66920398Y-107599500D01*
X64579602Y-107599500D01*
X64512563Y-107579815D01*
X64469117Y-107531795D01*
X64462284Y-107518385D01*
X64341971Y-107352786D01*
X64197213Y-107208028D01*
X64031613Y-107087715D01*
X64031612Y-107087714D01*
X64031610Y-107087713D01*
X63974653Y-107058691D01*
X63849223Y-106994781D01*
X63654534Y-106931522D01*
X63479995Y-106903878D01*
X63452352Y-106899500D01*
X63247648Y-106899500D01*
X63223329Y-106903351D01*
X63045465Y-106931522D01*
X62850776Y-106994781D01*
X62668386Y-107087715D01*
X62502786Y-107208028D01*
X62358028Y-107352786D01*
X62237715Y-107518386D01*
X62144781Y-107700776D01*
X62081522Y-107895465D01*
X62049500Y-108097648D01*
X62049500Y-108302351D01*
X62081522Y-108504534D01*
X62144781Y-108699223D01*
X62237715Y-108881613D01*
X62358028Y-109047213D01*
X62502786Y-109191971D01*
X62657749Y-109304556D01*
X62668390Y-109312287D01*
X62747864Y-109352781D01*
X62850776Y-109405218D01*
X62850778Y-109405218D01*
X62850781Y-109405220D01*
X62925818Y-109429601D01*
X63045465Y-109468477D01*
X63146557Y-109484488D01*
X63247648Y-109500500D01*
X63247649Y-109500500D01*
X63452351Y-109500500D01*
X63452352Y-109500500D01*
X63654534Y-109468477D01*
X63849219Y-109405220D01*
X64031610Y-109312287D01*
X64140067Y-109233489D01*
X64197213Y-109191971D01*
X64197215Y-109191968D01*
X64197219Y-109191966D01*
X64341966Y-109047219D01*
X64341968Y-109047215D01*
X64341971Y-109047213D01*
X64462284Y-108881614D01*
X64462285Y-108881613D01*
X64462287Y-108881610D01*
X64469117Y-108868204D01*
X64517091Y-108817409D01*
X64579602Y-108800500D01*
X66920398Y-108800500D01*
X66987437Y-108820185D01*
X67030883Y-108868205D01*
X67037715Y-108881614D01*
X67158028Y-109047213D01*
X67158034Y-109047219D01*
X67302781Y-109191966D01*
X67468390Y-109312287D01*
X67481793Y-109319116D01*
X67532589Y-109367088D01*
X67549500Y-109429601D01*
X67549500Y-117173330D01*
X67549499Y-117173348D01*
X67549499Y-117339054D01*
X67549498Y-117339054D01*
X67590422Y-117491783D01*
X67593694Y-117497449D01*
X67593697Y-117497456D01*
X67669475Y-117628709D01*
X67669481Y-117628717D01*
X67788349Y-117747585D01*
X67788355Y-117747590D01*
X71366237Y-121325473D01*
X71399722Y-121386796D01*
X71399160Y-121439523D01*
X71399349Y-121439553D01*
X71399146Y-121440832D01*
X71399133Y-121442088D01*
X71398587Y-121444361D01*
X71367500Y-121640639D01*
X71367500Y-121839360D01*
X71398587Y-122035637D01*
X71459993Y-122224629D01*
X71459994Y-122224632D01*
X71550213Y-122401694D01*
X71667019Y-122562464D01*
X71807536Y-122702981D01*
X71968306Y-122819787D01*
X72055149Y-122864035D01*
X72145367Y-122910005D01*
X72145370Y-122910006D01*
X72229202Y-122937244D01*
X72334364Y-122971413D01*
X72530639Y-123002500D01*
X72530640Y-123002500D01*
X72729360Y-123002500D01*
X72729361Y-123002500D01*
X72925636Y-122971413D01*
X73114632Y-122910005D01*
X73291694Y-122819787D01*
X73452464Y-122702981D01*
X73592981Y-122562464D01*
X73709787Y-122401694D01*
X73800005Y-122224632D01*
X73861413Y-122035636D01*
X73892500Y-121839361D01*
X73892500Y-121640639D01*
X73890303Y-121626770D01*
X73899257Y-121557480D01*
X73944252Y-121504027D01*
X74011003Y-121483386D01*
X74078317Y-121502110D01*
X74100457Y-121519692D01*
X75801376Y-123220611D01*
X75801386Y-123220622D01*
X75805716Y-123224952D01*
X75805717Y-123224953D01*
X75917521Y-123336757D01*
X75991184Y-123379286D01*
X76054452Y-123415814D01*
X76207180Y-123456738D01*
X76207183Y-123456738D01*
X76375284Y-123456738D01*
X76375296Y-123456737D01*
X86397232Y-123456737D01*
X86464271Y-123476422D01*
X86510026Y-123529226D01*
X86519970Y-123598384D01*
X86490945Y-123661940D01*
X86432167Y-123699714D01*
X86419434Y-123702733D01*
X85814225Y-123812874D01*
X85806858Y-123813987D01*
X83744464Y-124062511D01*
X83737299Y-124063165D01*
X81612177Y-124194866D01*
X81605239Y-124195101D01*
X79468492Y-124207710D01*
X79464316Y-124207664D01*
X78811495Y-124189528D01*
X78810083Y-124189481D01*
X78151480Y-124163667D01*
X78149701Y-124163584D01*
X77580792Y-124133098D01*
X77578646Y-124132965D01*
X77011305Y-124092690D01*
X77009100Y-124092513D01*
X76468699Y-124044446D01*
X76466437Y-124044224D01*
X75926728Y-123986231D01*
X75924648Y-123985990D01*
X75351767Y-123914625D01*
X75349872Y-123914374D01*
X74783983Y-123835004D01*
X74779676Y-123834323D01*
X72988964Y-123518607D01*
X72982287Y-123517239D01*
X71217432Y-123104963D01*
X71210944Y-123103261D01*
X69451039Y-122590357D01*
X69444756Y-122588343D01*
X68023549Y-122090724D01*
X67714525Y-121982522D01*
X67708291Y-121980150D01*
X66055185Y-121299455D01*
X66049018Y-121296717D01*
X64437097Y-120527932D01*
X64430492Y-120524536D01*
X63986922Y-120279364D01*
X62965292Y-119714683D01*
X62958335Y-119710535D01*
X62917951Y-119684632D01*
X62373952Y-119335700D01*
X61551414Y-118808108D01*
X61544457Y-118803304D01*
X59906047Y-117587207D01*
X59899167Y-117581711D01*
X58351065Y-116252299D01*
X58344894Y-116246626D01*
X56837629Y-114763990D01*
X56832142Y-114758234D01*
X56293793Y-114155998D01*
X55526398Y-113297533D01*
X55422252Y-113181028D01*
X55417196Y-113174997D01*
X54396288Y-111875636D01*
X54079592Y-111472561D01*
X54074981Y-111466297D01*
X54055996Y-111438736D01*
X52846508Y-109682898D01*
X52842365Y-109676466D01*
X51714012Y-107800063D01*
X51710340Y-107793514D01*
X50696615Y-105849141D01*
X50693821Y-105843427D01*
X50691477Y-105838306D01*
X50352532Y-105097682D01*
X62050000Y-105097682D01*
X62050000Y-105302317D01*
X62082009Y-105504417D01*
X62145244Y-105699031D01*
X62238141Y-105881350D01*
X62238147Y-105881359D01*
X62270523Y-105925921D01*
X62270524Y-105925922D01*
X62867038Y-105329407D01*
X62884076Y-105392992D01*
X62949902Y-105507006D01*
X63042994Y-105600098D01*
X63157008Y-105665924D01*
X63220590Y-105682961D01*
X62624076Y-106279474D01*
X62668650Y-106311859D01*
X62850968Y-106404755D01*
X63045582Y-106467990D01*
X63247683Y-106500000D01*
X63452317Y-106500000D01*
X63654417Y-106467990D01*
X63849031Y-106404755D01*
X64031349Y-106311859D01*
X64075921Y-106279474D01*
X63479408Y-105682961D01*
X63542992Y-105665924D01*
X63657006Y-105600098D01*
X63750098Y-105507006D01*
X63815924Y-105392992D01*
X63832961Y-105329408D01*
X64429474Y-105925921D01*
X64461859Y-105881349D01*
X64554755Y-105699031D01*
X64617990Y-105504417D01*
X64650000Y-105302317D01*
X64650000Y-105097682D01*
X64617990Y-104895582D01*
X64554755Y-104700968D01*
X64461859Y-104518650D01*
X64429474Y-104474077D01*
X64429474Y-104474076D01*
X63832961Y-105070590D01*
X63815924Y-105007008D01*
X63750098Y-104892994D01*
X63657006Y-104799902D01*
X63542992Y-104734076D01*
X63479407Y-104717038D01*
X64075922Y-104120524D01*
X64075921Y-104120523D01*
X64031359Y-104088147D01*
X64031350Y-104088141D01*
X63849031Y-103995244D01*
X63654417Y-103932009D01*
X63452317Y-103900000D01*
X63247683Y-103900000D01*
X63045582Y-103932009D01*
X62850968Y-103995244D01*
X62668644Y-104088143D01*
X62624077Y-104120523D01*
X62624077Y-104120524D01*
X63220592Y-104717038D01*
X63157008Y-104734076D01*
X63042994Y-104799902D01*
X62949902Y-104892994D01*
X62884076Y-105007008D01*
X62867038Y-105070591D01*
X62270524Y-104474077D01*
X62270523Y-104474077D01*
X62238143Y-104518644D01*
X62145244Y-104700968D01*
X62082009Y-104895582D01*
X62050000Y-105097682D01*
X50352532Y-105097682D01*
X50015230Y-104360646D01*
X50013166Y-104355876D01*
X49955551Y-104214612D01*
X49903972Y-104088147D01*
X49396409Y-102843669D01*
X49394474Y-102838605D01*
X48978797Y-101676077D01*
X48861085Y-101346869D01*
X48859298Y-101341488D01*
X48394850Y-99827299D01*
X48393326Y-99821898D01*
X48339175Y-99611891D01*
X47989925Y-98257428D01*
X47988661Y-98252023D01*
X47655418Y-96669742D01*
X47654476Y-96664771D01*
X47544853Y-96013559D01*
X47367310Y-94958874D01*
X47366637Y-94954367D01*
X47335769Y-94718097D01*
X47142534Y-93239022D01*
X47141985Y-93234033D01*
X47139780Y-93209432D01*
X47078719Y-92528174D01*
X47078356Y-92522784D01*
X47046131Y-91810877D01*
X47046023Y-91807437D01*
X47045457Y-91774621D01*
X47026045Y-90649065D01*
X47026032Y-90647855D01*
X47019672Y-89484246D01*
X47019673Y-89482760D01*
X47022581Y-89036421D01*
X47027327Y-88307711D01*
X47027346Y-88306219D01*
X47048715Y-87162535D01*
X47049227Y-87135122D01*
X47049317Y-87132211D01*
X47083246Y-86344402D01*
X47083523Y-86339903D01*
X47146109Y-85555433D01*
X47146439Y-85551945D01*
X47307507Y-84078673D01*
X47307814Y-84076131D01*
X47501501Y-82604896D01*
X47501889Y-82602184D01*
X47505528Y-82578711D01*
X50499500Y-82578711D01*
X50499500Y-82821288D01*
X50531161Y-83061785D01*
X50593947Y-83296104D01*
X50670654Y-83481290D01*
X50686776Y-83520212D01*
X50808064Y-83730289D01*
X50808066Y-83730292D01*
X50808067Y-83730293D01*
X50955733Y-83922736D01*
X50955739Y-83922743D01*
X51127256Y-84094260D01*
X51127262Y-84094265D01*
X51319711Y-84241936D01*
X51529788Y-84363224D01*
X51753900Y-84456054D01*
X51988211Y-84518838D01*
X52168586Y-84542584D01*
X52228711Y-84550500D01*
X52228712Y-84550500D01*
X52471289Y-84550500D01*
X52519388Y-84544167D01*
X52711789Y-84518838D01*
X52946100Y-84456054D01*
X53170212Y-84363224D01*
X53380289Y-84241936D01*
X53572738Y-84094265D01*
X53744265Y-83922738D01*
X53891936Y-83730289D01*
X54013224Y-83520212D01*
X54106054Y-83296100D01*
X54168838Y-83061789D01*
X54200500Y-82821288D01*
X54200500Y-82578712D01*
X54168838Y-82338211D01*
X54106054Y-82103900D01*
X54013224Y-81879788D01*
X53891936Y-81669711D01*
X53831018Y-81590321D01*
X53744266Y-81477263D01*
X53744260Y-81477256D01*
X53572743Y-81305739D01*
X53572736Y-81305733D01*
X53380293Y-81158067D01*
X53380292Y-81158066D01*
X53380289Y-81158064D01*
X53170212Y-81036776D01*
X53104927Y-81009734D01*
X52946104Y-80943947D01*
X52711785Y-80881161D01*
X52471289Y-80849500D01*
X52471288Y-80849500D01*
X52228712Y-80849500D01*
X52228711Y-80849500D01*
X51988214Y-80881161D01*
X51753895Y-80943947D01*
X51529794Y-81036773D01*
X51529785Y-81036777D01*
X51319706Y-81158067D01*
X51127263Y-81305733D01*
X51127256Y-81305739D01*
X50955739Y-81477256D01*
X50955733Y-81477263D01*
X50808067Y-81669706D01*
X50686777Y-81879785D01*
X50686773Y-81879794D01*
X50593947Y-82103895D01*
X50531161Y-82338214D01*
X50499500Y-82578711D01*
X47505528Y-82578711D01*
X47722955Y-81176355D01*
X47723440Y-81173462D01*
X47726206Y-81158064D01*
X47978432Y-79753658D01*
X47978984Y-79750779D01*
X48017225Y-79563554D01*
X48269840Y-78326763D01*
X48270430Y-78324039D01*
X48595048Y-76906824D01*
X48595664Y-76904270D01*
X48967209Y-75433636D01*
X48967835Y-75431266D01*
X49369323Y-73971492D01*
X49370394Y-73967823D01*
X49397756Y-73879185D01*
X50143827Y-71462275D01*
X50145413Y-71457487D01*
X50420217Y-70681902D01*
X67099500Y-70681902D01*
X67099500Y-70918097D01*
X67136446Y-71151368D01*
X67209433Y-71375996D01*
X67291926Y-71537896D01*
X67316657Y-71586433D01*
X67455483Y-71777510D01*
X67622490Y-71944517D01*
X67813567Y-72083343D01*
X67912991Y-72134002D01*
X68024003Y-72190566D01*
X68024005Y-72190566D01*
X68024008Y-72190568D01*
X68118139Y-72221153D01*
X68248631Y-72263553D01*
X68481903Y-72300500D01*
X68481908Y-72300500D01*
X68718097Y-72300500D01*
X68951368Y-72263553D01*
X69175992Y-72190568D01*
X69386433Y-72083343D01*
X69577510Y-71944517D01*
X69744517Y-71777510D01*
X69883343Y-71586433D01*
X69990568Y-71375992D01*
X70063553Y-71151368D01*
X70081586Y-71037513D01*
X70100500Y-70918097D01*
X70100500Y-70681902D01*
X70063553Y-70448631D01*
X69995764Y-70240000D01*
X69990568Y-70224008D01*
X69990566Y-70224005D01*
X69990566Y-70224003D01*
X69968777Y-70181241D01*
X69883342Y-70013566D01*
X69744517Y-69822490D01*
X69577510Y-69655483D01*
X69386433Y-69516657D01*
X69365474Y-69505978D01*
X69175996Y-69409433D01*
X68951368Y-69336446D01*
X68718097Y-69299500D01*
X68718092Y-69299500D01*
X68481908Y-69299500D01*
X68481903Y-69299500D01*
X68248631Y-69336446D01*
X68024003Y-69409433D01*
X67813566Y-69516657D01*
X67704550Y-69595862D01*
X67622490Y-69655483D01*
X67622488Y-69655485D01*
X67622487Y-69655485D01*
X67455485Y-69822487D01*
X67455485Y-69822488D01*
X67455483Y-69822490D01*
X67409016Y-69886446D01*
X67316657Y-70013566D01*
X67209433Y-70224003D01*
X67136446Y-70448631D01*
X67099500Y-70681902D01*
X50420217Y-70681902D01*
X51020110Y-68988812D01*
X51021907Y-68984056D01*
X51038743Y-68942103D01*
X51997432Y-66553173D01*
X51999373Y-66548607D01*
X52174009Y-66159425D01*
X53089132Y-64120032D01*
X53091203Y-64115650D01*
X53277639Y-63740306D01*
X54275510Y-61731327D01*
X54277730Y-61727070D01*
X55554462Y-59391246D01*
X55556924Y-59386951D01*
X55819558Y-58949085D01*
X56855930Y-57221232D01*
X56858617Y-57216955D01*
X57176383Y-56733169D01*
X58244918Y-55106364D01*
X58247747Y-55102243D01*
X59717457Y-53052505D01*
X59721198Y-53047557D01*
X61095420Y-51322263D01*
X61100198Y-51316621D01*
X62573753Y-49679377D01*
X62578867Y-49674028D01*
X64147554Y-48129142D01*
X64153317Y-48123816D01*
X64354177Y-47949634D01*
X65816709Y-46681352D01*
X65823086Y-46676183D01*
X67579249Y-45347058D01*
X67585383Y-45342706D01*
X68707288Y-44596988D01*
X68713100Y-44593354D01*
X69876343Y-43910642D01*
X69882376Y-43907324D01*
X71081515Y-43290914D01*
X71087927Y-43287848D01*
X71570891Y-43073753D01*
X77390000Y-43073753D01*
X77390000Y-43286246D01*
X77423242Y-43496127D01*
X77423242Y-43496130D01*
X77488904Y-43698217D01*
X77585375Y-43887550D01*
X77624728Y-43941716D01*
X78257037Y-43309408D01*
X78274075Y-43372993D01*
X78339901Y-43487007D01*
X78432993Y-43580099D01*
X78547007Y-43645925D01*
X78610590Y-43662962D01*
X77978282Y-44295269D01*
X77978282Y-44295270D01*
X78032449Y-44334624D01*
X78221782Y-44431095D01*
X78423870Y-44496757D01*
X78633754Y-44530000D01*
X78846246Y-44530000D01*
X79056127Y-44496757D01*
X79056130Y-44496757D01*
X79258217Y-44431095D01*
X79447554Y-44334622D01*
X79501716Y-44295270D01*
X79501717Y-44295270D01*
X78869408Y-43662962D01*
X78932993Y-43645925D01*
X79047007Y-43580099D01*
X79140099Y-43487007D01*
X79205925Y-43372993D01*
X79222962Y-43309408D01*
X79893181Y-43979628D01*
X79926666Y-44040951D01*
X79929500Y-44067300D01*
X79929500Y-44077865D01*
X79929501Y-44077876D01*
X79935908Y-44137483D01*
X79986202Y-44272328D01*
X79986206Y-44272335D01*
X80072452Y-44387544D01*
X80072455Y-44387547D01*
X80187664Y-44473793D01*
X80187671Y-44473797D01*
X80322517Y-44524091D01*
X80322516Y-44524091D01*
X80329444Y-44524835D01*
X80382127Y-44530500D01*
X82177872Y-44530499D01*
X82237483Y-44524091D01*
X82372331Y-44473796D01*
X82487546Y-44387546D01*
X82573796Y-44272331D01*
X82624091Y-44137483D01*
X82630500Y-44077873D01*
X82630499Y-42282128D01*
X82624091Y-42222517D01*
X82573796Y-42087669D01*
X82573795Y-42087668D01*
X82573793Y-42087664D01*
X82487547Y-41972455D01*
X82487544Y-41972452D01*
X82372335Y-41886206D01*
X82372328Y-41886202D01*
X82237482Y-41835908D01*
X82237483Y-41835908D01*
X82177883Y-41829501D01*
X82177881Y-41829500D01*
X82177873Y-41829500D01*
X82177864Y-41829500D01*
X80382129Y-41829500D01*
X80382123Y-41829501D01*
X80322516Y-41835908D01*
X80187671Y-41886202D01*
X80187664Y-41886206D01*
X80072455Y-41972452D01*
X80072452Y-41972455D01*
X79986206Y-42087664D01*
X79986202Y-42087671D01*
X79935908Y-42222517D01*
X79929501Y-42282116D01*
X79929501Y-42282123D01*
X79929500Y-42282135D01*
X79929500Y-42292690D01*
X79909815Y-42359729D01*
X79893181Y-42380371D01*
X79222962Y-43050590D01*
X79205925Y-42987007D01*
X79140099Y-42872993D01*
X79047007Y-42779901D01*
X78932993Y-42714075D01*
X78869409Y-42697037D01*
X79501716Y-42064728D01*
X79447550Y-42025375D01*
X79258217Y-41928904D01*
X79056129Y-41863242D01*
X78846246Y-41830000D01*
X78633754Y-41830000D01*
X78423872Y-41863242D01*
X78423869Y-41863242D01*
X78221782Y-41928904D01*
X78032439Y-42025380D01*
X77978282Y-42064727D01*
X77978282Y-42064728D01*
X78610591Y-42697037D01*
X78547007Y-42714075D01*
X78432993Y-42779901D01*
X78339901Y-42872993D01*
X78274075Y-42987007D01*
X78257037Y-43050591D01*
X77624728Y-42418282D01*
X77624727Y-42418282D01*
X77585380Y-42472439D01*
X77488904Y-42661782D01*
X77423242Y-42863869D01*
X77423242Y-42863872D01*
X77390000Y-43073753D01*
X71570891Y-43073753D01*
X72258021Y-42769152D01*
X72264769Y-42766397D01*
X73463009Y-42318015D01*
X73469951Y-42315650D01*
X74692269Y-41939028D01*
X74699431Y-41937056D01*
X75925453Y-41638904D01*
X75932883Y-41637337D01*
X77174520Y-41415164D01*
X77182029Y-41414057D01*
X78438643Y-41268165D01*
X78444720Y-41267613D01*
X79086114Y-41225405D01*
X79090846Y-41225185D01*
X79738894Y-41207372D01*
X79742825Y-41207327D01*
X80482801Y-41210910D01*
G37*
%TD.AperFunction*%
%TA.AperFunction,Conductor*%
G36*
X89133393Y-117273306D02*
G01*
X89149644Y-117286985D01*
X90713181Y-118850521D01*
X90746666Y-118911844D01*
X90749500Y-118938202D01*
X90749500Y-121299902D01*
X90729815Y-121366941D01*
X90713181Y-121387583D01*
X89917456Y-122183307D01*
X89905424Y-122190577D01*
X89898496Y-122198841D01*
X89866633Y-122214021D01*
X89750638Y-122250132D01*
X89713780Y-122255737D01*
X89200569Y-122255737D01*
X89133530Y-122236052D01*
X89087775Y-122183248D01*
X89077831Y-122114090D01*
X89082638Y-122093420D01*
X89101413Y-122035636D01*
X89132500Y-121839361D01*
X89132500Y-121640639D01*
X89101413Y-121444364D01*
X89054330Y-121299455D01*
X89040006Y-121255370D01*
X89040005Y-121255367D01*
X88949786Y-121078305D01*
X88832981Y-120917536D01*
X88692464Y-120777019D01*
X88531694Y-120660213D01*
X88374667Y-120580203D01*
X88323872Y-120532229D01*
X88307077Y-120464408D01*
X88329614Y-120398273D01*
X88374669Y-120359234D01*
X88531422Y-120279364D01*
X88568716Y-120252268D01*
X87954095Y-119637647D01*
X88041571Y-119614208D01*
X88142930Y-119555689D01*
X88225689Y-119472930D01*
X88284208Y-119371571D01*
X88307647Y-119284094D01*
X88922268Y-119898715D01*
X88949362Y-119861425D01*
X89039542Y-119684437D01*
X89100924Y-119495523D01*
X89100924Y-119495520D01*
X89132000Y-119299321D01*
X89132000Y-119100678D01*
X89100924Y-118904479D01*
X89100924Y-118904476D01*
X89039542Y-118715562D01*
X88949358Y-118538567D01*
X88922268Y-118501283D01*
X88307647Y-119115904D01*
X88284208Y-119028429D01*
X88225689Y-118927070D01*
X88142930Y-118844311D01*
X88041571Y-118785792D01*
X87954094Y-118762352D01*
X88568716Y-118147731D01*
X88568715Y-118147730D01*
X88531432Y-118120641D01*
X88374668Y-118040765D01*
X88323872Y-117992790D01*
X88307077Y-117924969D01*
X88329615Y-117858834D01*
X88374667Y-117819796D01*
X88531694Y-117739787D01*
X88692464Y-117622981D01*
X88832981Y-117482464D01*
X88949787Y-117321694D01*
X88951474Y-117318382D01*
X88999436Y-117267585D01*
X89067254Y-117250779D01*
X89133393Y-117273306D01*
G37*
%TD.AperFunction*%
%TD*%
M02*
