%TF.GenerationSoftware,KiCad,Pcbnew,10.0.3*%
%TF.CreationDate,2026-06-05T10:07:03+05:30*%
%TF.ProjectId,Tamagotchi,54616d61-676f-4746-9368-692e6b696361,rev?*%
%TF.SameCoordinates,Original*%
%TF.FileFunction,Legend,Top*%
%TF.FilePolarity,Positive*%
%FSLAX46Y46*%
G04 Gerber Fmt 4.6, Leading zero omitted, Abs format (unit mm)*
G04 Created by KiCad (PCBNEW 10.0.3) date 2026-06-05 10:07:03*
%MOMM*%
%LPD*%
G01*
G04 APERTURE LIST*
%ADD10C,0.100000*%
%ADD11C,0.300000*%
%ADD12C,0.150000*%
%ADD13C,0.250000*%
%ADD14C,0.060000*%
%ADD15C,0.000000*%
G04 APERTURE END LIST*
D10*
X78303884Y-45441466D02*
X79065789Y-45441466D01*
X81103884Y-45491466D02*
X81865789Y-45491466D01*
X81484836Y-45872419D02*
X81484836Y-45110514D01*
D11*
G36*
X66006677Y-54136774D02*
G01*
X66036961Y-54126514D01*
X66060309Y-54096715D01*
X66066303Y-54073118D01*
X66137652Y-52445545D01*
X66137652Y-52441240D01*
X66134431Y-52421084D01*
X66123608Y-52401870D01*
X66109539Y-52390752D01*
X66089544Y-52384412D01*
X66082423Y-52383721D01*
X65664493Y-52362655D01*
X65660188Y-52362655D01*
X65617570Y-52371845D01*
X65586457Y-52391140D01*
X65478793Y-52535369D01*
X65281590Y-52838561D01*
X65113756Y-53118006D01*
X65112024Y-53120635D01*
X65105787Y-53127074D01*
X65097727Y-53120021D01*
X64959655Y-52888456D01*
X64824047Y-52672620D01*
X64717334Y-52513641D01*
X64631006Y-52398293D01*
X64625026Y-52391140D01*
X64600171Y-52375947D01*
X64571769Y-52366582D01*
X64542960Y-52362655D01*
X64538655Y-52362655D01*
X64124847Y-52385827D01*
X64105472Y-52390598D01*
X64090804Y-52399469D01*
X64072826Y-52427074D01*
X64069617Y-52447651D01*
X64151591Y-54073026D01*
X64162425Y-54108442D01*
X64175755Y-54123614D01*
X64193330Y-54133712D01*
X64211217Y-54136774D01*
X64213415Y-54136774D01*
X64616782Y-54103160D01*
X64654816Y-54089578D01*
X64684957Y-54058303D01*
X64695001Y-54028788D01*
X64695001Y-54026498D01*
X64600479Y-53134035D01*
X64600479Y-53119563D01*
X64603868Y-53101428D01*
X64622553Y-53117090D01*
X64671597Y-53201716D01*
X64777077Y-53404723D01*
X64920498Y-53679460D01*
X64943697Y-53714254D01*
X64960828Y-53728335D01*
X64982370Y-53736602D01*
X64994596Y-53737711D01*
X65210842Y-53729377D01*
X65253853Y-53717700D01*
X65283590Y-53691589D01*
X65291076Y-53679460D01*
X65441588Y-53382204D01*
X65529526Y-53206497D01*
X65584808Y-53106557D01*
X65601386Y-53090987D01*
X65606790Y-53111137D01*
X65606790Y-53121395D01*
X65508147Y-54028605D01*
X65508147Y-54030894D01*
X65520172Y-54068769D01*
X65535142Y-54087256D01*
X65556369Y-54100679D01*
X65578122Y-54105266D01*
X66004479Y-54136774D01*
X66006677Y-54136774D01*
G37*
G36*
X66958544Y-52891044D02*
G01*
X67028024Y-52897563D01*
X67094788Y-52909919D01*
X67212931Y-52948380D01*
X67222539Y-52939893D01*
X67243589Y-52930993D01*
X67270450Y-52928046D01*
X67280983Y-52928046D01*
X67644508Y-52959554D01*
X67663936Y-52962336D01*
X67686330Y-52970197D01*
X67701780Y-52981487D01*
X67713194Y-52999665D01*
X67716499Y-53019180D01*
X67716499Y-53029896D01*
X67711265Y-53063893D01*
X67667996Y-53374423D01*
X67657698Y-53541065D01*
X67660988Y-53615976D01*
X67677725Y-53700548D01*
X67705946Y-53755380D01*
X67746358Y-53789735D01*
X67782120Y-53813310D01*
X67792062Y-53836447D01*
X67785467Y-53856688D01*
X67655225Y-54110762D01*
X67650070Y-54119981D01*
X67619703Y-54155614D01*
X67603367Y-54164110D01*
X67585432Y-54166999D01*
X67569411Y-54164910D01*
X67479943Y-54137922D01*
X67387140Y-54092087D01*
X67311941Y-54035291D01*
X67238590Y-54068366D01*
X67175162Y-54089553D01*
X67111526Y-54104498D01*
X67046675Y-54113562D01*
X66982763Y-54116532D01*
X66959582Y-54116141D01*
X66895166Y-54110916D01*
X66832347Y-54099834D01*
X66770354Y-54082817D01*
X66710793Y-54060325D01*
X66653700Y-54032474D01*
X66599862Y-53999703D01*
X66504248Y-53921354D01*
X66427522Y-53829391D01*
X66371801Y-53727803D01*
X66338046Y-53619808D01*
X66327326Y-53513863D01*
X66817624Y-53513863D01*
X66825316Y-53574484D01*
X66853425Y-53637849D01*
X66898849Y-53686320D01*
X66959109Y-53717376D01*
X66994419Y-53725610D01*
X67033138Y-53728461D01*
X67082036Y-53724480D01*
X67164388Y-53700342D01*
X67154130Y-53524304D01*
X67160266Y-53351472D01*
X67137541Y-53324442D01*
X67112956Y-53306751D01*
X67083941Y-53293380D01*
X67020498Y-53282504D01*
X66977273Y-53287378D01*
X66944641Y-53298393D01*
X66915549Y-53314853D01*
X66887365Y-53338638D01*
X66863794Y-53367038D01*
X66843668Y-53401534D01*
X66829173Y-53438643D01*
X66817624Y-53513863D01*
X66327326Y-53513863D01*
X66326696Y-53507635D01*
X66327078Y-53487331D01*
X66343458Y-53367785D01*
X66382232Y-53250231D01*
X66439542Y-53144628D01*
X66511782Y-53055724D01*
X66596649Y-52985187D01*
X66693277Y-52933540D01*
X66801994Y-52901413D01*
X66861094Y-52893084D01*
X66923961Y-52890219D01*
X66958544Y-52891044D01*
G37*
G36*
X69229675Y-52323271D02*
G01*
X69258456Y-52325985D01*
X69279468Y-52333279D01*
X69294118Y-52344196D01*
X69305027Y-52362341D01*
X69308260Y-52382896D01*
X69308260Y-52389399D01*
X69246717Y-53226766D01*
X69236819Y-53436468D01*
X69237310Y-53476528D01*
X69248535Y-53604250D01*
X69271506Y-53687042D01*
X69303784Y-53739652D01*
X69346362Y-53770776D01*
X69346719Y-53770938D01*
X69384286Y-53792527D01*
X69394356Y-53813366D01*
X69389776Y-53833607D01*
X69276478Y-54095924D01*
X69268154Y-54113395D01*
X69240440Y-54147152D01*
X69223622Y-54155679D01*
X69204304Y-54158572D01*
X69158488Y-54150593D01*
X69062824Y-54121675D01*
X68975334Y-54077907D01*
X68905717Y-54022834D01*
X68807540Y-54068499D01*
X68743698Y-54089634D01*
X68679758Y-54104571D01*
X68615183Y-54113572D01*
X68551443Y-54116532D01*
X68529190Y-54116171D01*
X68464846Y-54111038D01*
X68402133Y-54100055D01*
X68340278Y-54083144D01*
X68280873Y-54060764D01*
X68223928Y-54033018D01*
X68170243Y-54000351D01*
X68074856Y-53922141D01*
X67998258Y-53830188D01*
X67942584Y-53728460D01*
X67908835Y-53620187D01*
X67898111Y-53513863D01*
X68386304Y-53513863D01*
X68393803Y-53573788D01*
X68421756Y-53637513D01*
X68466964Y-53686236D01*
X68526707Y-53717376D01*
X68561562Y-53725610D01*
X68599712Y-53728461D01*
X68656082Y-53722722D01*
X68703637Y-53710068D01*
X68754043Y-53689993D01*
X68742116Y-53595967D01*
X68733982Y-53482082D01*
X68731145Y-53353579D01*
X68708849Y-53326221D01*
X68684231Y-53308727D01*
X68654750Y-53295486D01*
X68589179Y-53284610D01*
X68543033Y-53290108D01*
X68510605Y-53301407D01*
X68481468Y-53318101D01*
X68454060Y-53341268D01*
X68430937Y-53369023D01*
X68411704Y-53401848D01*
X68397666Y-53437760D01*
X68386304Y-53513863D01*
X67898111Y-53513863D01*
X67897483Y-53507635D01*
X67897863Y-53487057D01*
X67914114Y-53366814D01*
X67952577Y-53249348D01*
X68009524Y-53144067D01*
X68081482Y-53055456D01*
X68166240Y-52985102D01*
X68262992Y-52933533D01*
X68372102Y-52901418D01*
X68431519Y-52893085D01*
X68494748Y-52890219D01*
X68615205Y-52900658D01*
X68684796Y-52915629D01*
X68748272Y-52935282D01*
X68785733Y-52376393D01*
X68790443Y-52356863D01*
X68801723Y-52340459D01*
X68818362Y-52328119D01*
X68840726Y-52319812D01*
X68866425Y-52316951D01*
X69229675Y-52323271D01*
G37*
G36*
X70218126Y-54162236D02*
G01*
X70248365Y-54159460D01*
X70272908Y-54151754D01*
X70308408Y-54124739D01*
X70325837Y-54097664D01*
X70400309Y-53905856D01*
X70412207Y-53861176D01*
X70401996Y-53830567D01*
X70373550Y-53809557D01*
X70344155Y-53803657D01*
X70339759Y-53803657D01*
X70293780Y-53805764D01*
X70236415Y-53802916D01*
X70184331Y-53794704D01*
X70137355Y-53781608D01*
X70095427Y-53764135D01*
X70025161Y-53717117D01*
X69972667Y-53655775D01*
X69938613Y-53582239D01*
X69925077Y-53500504D01*
X69924943Y-53491423D01*
X69927789Y-53450819D01*
X69935991Y-53413589D01*
X69949237Y-53379673D01*
X69966929Y-53349917D01*
X69988637Y-53324580D01*
X70013766Y-53304148D01*
X70041497Y-53289097D01*
X70071545Y-53279550D01*
X70106843Y-53275818D01*
X70161964Y-53285892D01*
X70204271Y-53312832D01*
X70229599Y-53348551D01*
X70232048Y-53358982D01*
X70227292Y-53377219D01*
X70205727Y-53390326D01*
X70110415Y-53415036D01*
X70083907Y-53424582D01*
X70067678Y-53440823D01*
X70063978Y-53457809D01*
X70074028Y-53497561D01*
X70129282Y-53673048D01*
X70142461Y-53699013D01*
X70166675Y-53713124D01*
X70184603Y-53714905D01*
X70361729Y-53696839D01*
X70458467Y-53678595D01*
X70544001Y-53655416D01*
X70548770Y-53653814D01*
X70591314Y-53636371D01*
X70626636Y-53615616D01*
X70654213Y-53592814D01*
X70676022Y-53567433D01*
X70704349Y-53508990D01*
X70714549Y-53432530D01*
X70707513Y-53347198D01*
X70694100Y-53280916D01*
X70669985Y-53206329D01*
X70644899Y-53151807D01*
X70611893Y-53097885D01*
X70578387Y-53055737D01*
X70538322Y-53016342D01*
X70497132Y-52984760D01*
X70450000Y-52956857D01*
X70400622Y-52934894D01*
X70345472Y-52917294D01*
X70286614Y-52905010D01*
X70221826Y-52897821D01*
X70167751Y-52896081D01*
X70090213Y-52898955D01*
X70017556Y-52907349D01*
X69949744Y-52920918D01*
X69886700Y-52939320D01*
X69827947Y-52962405D01*
X69773922Y-52989702D01*
X69678368Y-53056793D01*
X69599820Y-53139311D01*
X69538886Y-53235981D01*
X69496994Y-53344872D01*
X69476060Y-53462615D01*
X69473948Y-53514504D01*
X69476878Y-53575714D01*
X69485664Y-53636574D01*
X69500231Y-53696333D01*
X69520597Y-53754720D01*
X69546238Y-53810234D01*
X69577462Y-53863446D01*
X69613193Y-53912546D01*
X69654199Y-53958561D01*
X69698999Y-53999816D01*
X69748750Y-54037342D01*
X69801858Y-54069862D01*
X69859637Y-54098099D01*
X69920669Y-54121214D01*
X69986163Y-54139524D01*
X70055074Y-54152525D01*
X70128313Y-54160181D01*
X70192938Y-54162236D01*
X70218126Y-54162236D01*
G37*
G36*
X72181234Y-52302784D02*
G01*
X72197703Y-52306825D01*
X72211009Y-52316632D01*
X72224611Y-52347451D01*
X72253829Y-52921177D01*
X72361353Y-52895848D01*
X72505155Y-52884357D01*
X72551241Y-52885451D01*
X72690092Y-52903301D01*
X72812705Y-52941281D01*
X72918571Y-52997377D01*
X73007333Y-53070012D01*
X73045165Y-53112176D01*
X73078526Y-53158118D01*
X73107332Y-53207839D01*
X73131319Y-53261066D01*
X73150463Y-53318132D01*
X73164381Y-53378463D01*
X73172974Y-53442677D01*
X73175876Y-53509924D01*
X73174003Y-53559079D01*
X73166279Y-53620154D01*
X73152866Y-53678853D01*
X73133424Y-53736681D01*
X73108619Y-53791633D01*
X73077771Y-53845118D01*
X73041957Y-53895153D01*
X73000412Y-53942732D01*
X72954436Y-53986252D01*
X72903583Y-54026110D01*
X72849003Y-54061329D01*
X72790943Y-54091772D01*
X72729998Y-54117095D01*
X72602521Y-54151246D01*
X72471541Y-54162694D01*
X72467484Y-54162683D01*
X72401320Y-54159310D01*
X72335183Y-54149955D01*
X72267609Y-54134228D01*
X72200248Y-54112319D01*
X71850095Y-54131187D01*
X71842911Y-54130652D01*
X71813526Y-54115174D01*
X71800819Y-54086399D01*
X71761876Y-53329856D01*
X72275078Y-53329856D01*
X72297976Y-53743940D01*
X72299507Y-53744385D01*
X72348794Y-53754631D01*
X72398085Y-53757770D01*
X72410491Y-53757530D01*
X72452290Y-53753018D01*
X72491354Y-53743049D01*
X72558973Y-53708498D01*
X72610040Y-53657471D01*
X72642210Y-53593258D01*
X72650571Y-53557076D01*
X72653441Y-53518351D01*
X72653304Y-53509588D01*
X72641573Y-53436131D01*
X72613604Y-53374874D01*
X72571739Y-53329414D01*
X72515122Y-53300117D01*
X72480090Y-53292101D01*
X72440034Y-53289282D01*
X72372579Y-53296402D01*
X72320630Y-53310766D01*
X72275078Y-53329856D01*
X71761876Y-53329856D01*
X71712617Y-52372913D01*
X71712617Y-52368608D01*
X71712658Y-52366898D01*
X71717101Y-52350600D01*
X71727546Y-52336813D01*
X71755299Y-52323729D01*
X72175335Y-52302754D01*
X72179640Y-52302754D01*
X72181234Y-52302784D01*
G37*
G36*
X73693457Y-54716454D02*
G01*
X73732383Y-54724972D01*
X73752400Y-54722105D01*
X73770578Y-54713760D01*
X73799611Y-54688335D01*
X73993849Y-54447937D01*
X74162574Y-54230700D01*
X74313687Y-54027402D01*
X74440637Y-53847982D01*
X74551180Y-53682706D01*
X74638970Y-53542589D01*
X74762460Y-53320384D01*
X74798435Y-53242219D01*
X74815662Y-53195620D01*
X74818837Y-53180746D01*
X74815937Y-53165510D01*
X74807366Y-53151917D01*
X74779544Y-53131837D01*
X74466669Y-52970270D01*
X74421933Y-52953695D01*
X74412722Y-52953051D01*
X74394987Y-52955868D01*
X74380214Y-52963862D01*
X74359874Y-52988039D01*
X74016407Y-53519084D01*
X73768562Y-52959004D01*
X73754891Y-52933597D01*
X73736366Y-52913020D01*
X73717059Y-52900812D01*
X73694668Y-52894716D01*
X73686130Y-52894249D01*
X73660468Y-52898490D01*
X73660210Y-52898554D01*
X73326269Y-52997289D01*
X73301153Y-53007122D01*
X73281249Y-53022274D01*
X73271116Y-53037866D01*
X73267376Y-53056621D01*
X73267376Y-53056823D01*
X73278183Y-53095841D01*
X73670926Y-53984183D01*
X73675017Y-53992641D01*
X73686588Y-54012668D01*
X73358234Y-54499932D01*
X73345594Y-54522658D01*
X73340923Y-54545728D01*
X73343861Y-54561423D01*
X73352703Y-54575543D01*
X73388917Y-54598851D01*
X73693457Y-54716454D01*
G37*
G36*
X75785855Y-54103801D02*
G01*
X75804342Y-54136836D01*
X75820674Y-54149295D01*
X75839554Y-54155857D01*
X75847313Y-54156466D01*
X75908404Y-54158572D01*
X76060417Y-54147014D01*
X76138305Y-54132343D01*
X76214921Y-54111918D01*
X76288199Y-54086297D01*
X76358323Y-54055347D01*
X76421226Y-54021081D01*
X76479594Y-53982220D01*
X76529057Y-53942080D01*
X76573238Y-53898153D01*
X76608745Y-53854347D01*
X76638681Y-53807462D01*
X76661059Y-53761176D01*
X76677762Y-53712346D01*
X76687972Y-53663793D01*
X76692365Y-53613053D01*
X76692515Y-53601607D01*
X76689533Y-53550005D01*
X76680381Y-53496442D01*
X76664794Y-53441062D01*
X76642454Y-53383761D01*
X76575012Y-53261513D01*
X76566028Y-53248066D01*
X76499158Y-53148390D01*
X76451634Y-53063459D01*
X76430542Y-53012787D01*
X76419335Y-52968156D01*
X76417467Y-52943983D01*
X76420319Y-52914500D01*
X76428558Y-52888117D01*
X76459822Y-52843847D01*
X76512270Y-52808966D01*
X76589358Y-52785146D01*
X76679143Y-52777288D01*
X76691691Y-52777288D01*
X76705733Y-52774192D01*
X76722388Y-52764245D01*
X76733732Y-52749933D01*
X76738750Y-52729548D01*
X76738769Y-52728103D01*
X76736571Y-52710518D01*
X76663023Y-52399841D01*
X76654581Y-52380892D01*
X76641435Y-52366747D01*
X76602015Y-52350588D01*
X76523713Y-52345069D01*
X76370398Y-52356665D01*
X76294079Y-52371175D01*
X76219713Y-52391362D01*
X76150110Y-52416364D01*
X76084113Y-52446559D01*
X76025911Y-52479739D01*
X75972423Y-52517387D01*
X75927660Y-52556236D01*
X75888160Y-52598801D01*
X75856782Y-52641481D01*
X75830879Y-52687248D01*
X75811976Y-52732921D01*
X75798672Y-52781225D01*
X75789977Y-52866497D01*
X75792949Y-52917146D01*
X75802031Y-52970043D01*
X75840138Y-53083687D01*
X75908217Y-53208472D01*
X75914357Y-53217841D01*
X76032258Y-53411304D01*
X76057506Y-53472169D01*
X76065116Y-53524121D01*
X76054062Y-53582104D01*
X76021725Y-53633175D01*
X75967003Y-53677368D01*
X75889135Y-53711122D01*
X75793756Y-53727767D01*
X75769827Y-53728461D01*
X75761400Y-53728461D01*
X75745930Y-53731667D01*
X75727954Y-53742384D01*
X75718284Y-53755344D01*
X75714414Y-53773432D01*
X75716704Y-53789186D01*
X75785855Y-54103801D01*
G37*
G36*
X77498111Y-52891044D02*
G01*
X77567591Y-52897563D01*
X77634355Y-52909919D01*
X77752499Y-52948380D01*
X77762107Y-52939893D01*
X77783156Y-52930993D01*
X77810018Y-52928046D01*
X77820551Y-52928046D01*
X78184076Y-52959554D01*
X78203504Y-52962336D01*
X78225897Y-52970197D01*
X78241347Y-52981487D01*
X78252761Y-52999665D01*
X78256066Y-53019180D01*
X78256066Y-53029896D01*
X78250832Y-53063893D01*
X78207564Y-53374423D01*
X78197265Y-53541065D01*
X78200556Y-53615976D01*
X78217292Y-53700548D01*
X78245513Y-53755380D01*
X78285925Y-53789735D01*
X78321687Y-53813310D01*
X78331629Y-53836447D01*
X78325034Y-53856688D01*
X78194792Y-54110762D01*
X78189637Y-54119981D01*
X78159270Y-54155614D01*
X78142934Y-54164110D01*
X78125000Y-54166999D01*
X78108978Y-54164910D01*
X78019511Y-54137922D01*
X77926707Y-54092087D01*
X77851509Y-54035291D01*
X77778157Y-54068366D01*
X77714729Y-54089553D01*
X77651093Y-54104498D01*
X77586243Y-54113562D01*
X77522330Y-54116532D01*
X77499149Y-54116141D01*
X77434733Y-54110916D01*
X77371915Y-54099834D01*
X77309922Y-54082817D01*
X77250360Y-54060325D01*
X77193267Y-54032474D01*
X77139429Y-53999703D01*
X77043815Y-53921354D01*
X76967089Y-53829391D01*
X76911369Y-53727803D01*
X76877613Y-53619808D01*
X76866893Y-53513863D01*
X77357192Y-53513863D01*
X77364883Y-53574484D01*
X77392992Y-53637849D01*
X77438417Y-53686320D01*
X77498676Y-53717376D01*
X77533987Y-53725610D01*
X77572705Y-53728461D01*
X77621603Y-53724480D01*
X77703955Y-53700342D01*
X77693697Y-53524304D01*
X77699834Y-53351472D01*
X77677108Y-53324442D01*
X77652524Y-53306751D01*
X77623508Y-53293380D01*
X77560066Y-53282504D01*
X77516840Y-53287378D01*
X77484208Y-53298393D01*
X77455116Y-53314853D01*
X77426932Y-53338638D01*
X77403362Y-53367038D01*
X77383235Y-53401534D01*
X77368740Y-53438643D01*
X77357192Y-53513863D01*
X76866893Y-53513863D01*
X76866263Y-53507635D01*
X76866645Y-53487331D01*
X76883025Y-53367785D01*
X76921799Y-53250231D01*
X76979109Y-53144628D01*
X77051349Y-53055724D01*
X77136216Y-52985187D01*
X77232844Y-52933540D01*
X77341562Y-52901413D01*
X77400661Y-52893084D01*
X77463529Y-52890219D01*
X77498111Y-52891044D01*
G37*
G36*
X78956042Y-52302784D02*
G01*
X78972511Y-52306825D01*
X78985817Y-52316632D01*
X78999419Y-52347451D01*
X79028637Y-52921177D01*
X79136161Y-52895848D01*
X79279963Y-52884357D01*
X79326049Y-52885451D01*
X79464901Y-52903301D01*
X79587513Y-52941281D01*
X79693379Y-52997377D01*
X79782141Y-53070012D01*
X79819973Y-53112176D01*
X79853334Y-53158118D01*
X79882140Y-53207839D01*
X79906128Y-53261066D01*
X79925271Y-53318132D01*
X79939189Y-53378463D01*
X79947782Y-53442677D01*
X79950684Y-53509924D01*
X79948811Y-53559079D01*
X79941087Y-53620154D01*
X79927674Y-53678853D01*
X79908232Y-53736681D01*
X79883427Y-53791633D01*
X79852579Y-53845118D01*
X79816765Y-53895153D01*
X79775220Y-53942732D01*
X79729244Y-53986252D01*
X79678391Y-54026110D01*
X79623811Y-54061329D01*
X79565751Y-54091772D01*
X79504806Y-54117095D01*
X79377329Y-54151246D01*
X79246349Y-54162694D01*
X79242293Y-54162683D01*
X79176128Y-54159310D01*
X79109991Y-54149955D01*
X79042417Y-54134228D01*
X78975056Y-54112319D01*
X78624904Y-54131187D01*
X78617719Y-54130652D01*
X78588334Y-54115174D01*
X78575628Y-54086399D01*
X78536684Y-53329856D01*
X79049886Y-53329856D01*
X79072784Y-53743940D01*
X79074315Y-53744385D01*
X79123602Y-53754631D01*
X79172893Y-53757770D01*
X79185299Y-53757530D01*
X79227098Y-53753018D01*
X79266162Y-53743049D01*
X79333781Y-53708498D01*
X79384848Y-53657471D01*
X79417018Y-53593258D01*
X79425379Y-53557076D01*
X79428249Y-53518351D01*
X79428112Y-53509588D01*
X79416382Y-53436131D01*
X79388412Y-53374874D01*
X79346547Y-53329414D01*
X79289930Y-53300117D01*
X79254898Y-53292101D01*
X79214842Y-53289282D01*
X79147387Y-53296402D01*
X79095438Y-53310766D01*
X79049886Y-53329856D01*
X78536684Y-53329856D01*
X78487425Y-52372913D01*
X78487425Y-52368608D01*
X78487466Y-52366898D01*
X78491909Y-52350600D01*
X78502354Y-52336813D01*
X78530107Y-52323729D01*
X78950143Y-52302754D01*
X78954448Y-52302754D01*
X78956042Y-52302784D01*
G37*
G36*
X81626251Y-53970628D02*
G01*
X81638973Y-53956189D01*
X81644961Y-53942301D01*
X81646127Y-53932617D01*
X81636725Y-53904956D01*
X81609398Y-53875739D01*
X81574964Y-53844683D01*
X81546816Y-53811472D01*
X81507346Y-53738737D01*
X81485033Y-53649881D01*
X81478148Y-53554621D01*
X81474224Y-53486426D01*
X81464731Y-53421668D01*
X81449959Y-53360569D01*
X81430128Y-53303004D01*
X81375955Y-53198247D01*
X81303222Y-53107385D01*
X81212528Y-53030992D01*
X81104429Y-52970336D01*
X80979891Y-52927315D01*
X80840704Y-52904184D01*
X80759159Y-52900752D01*
X80688542Y-52902584D01*
X80688542Y-52359724D01*
X80678204Y-52330631D01*
X80665571Y-52319195D01*
X80649757Y-52313215D01*
X80643662Y-52312738D01*
X80223626Y-52312738D01*
X80194848Y-52322941D01*
X80177569Y-52350779D01*
X80176639Y-52359724D01*
X80176639Y-54077514D01*
X80187138Y-54107504D01*
X80199561Y-54118156D01*
X80215358Y-54123897D01*
X80223626Y-54124592D01*
X80643662Y-54124592D01*
X80671835Y-54114101D01*
X80682342Y-54101369D01*
X80687955Y-54085151D01*
X80688542Y-54077514D01*
X80688542Y-53318133D01*
X80696144Y-53318133D01*
X80742166Y-53321150D01*
X80785349Y-53330548D01*
X80820499Y-53344482D01*
X80852644Y-53364094D01*
X80879351Y-53387574D01*
X80902864Y-53416483D01*
X80922504Y-53450320D01*
X80938511Y-53489889D01*
X80958753Y-53589797D01*
X80962033Y-53659676D01*
X80964867Y-53721323D01*
X80972984Y-53777835D01*
X81003759Y-53878689D01*
X81052192Y-53964641D01*
X81117054Y-54037083D01*
X81196809Y-54095890D01*
X81285823Y-54138772D01*
X81361828Y-54160313D01*
X81385301Y-54157032D01*
X81410691Y-54145790D01*
X81426674Y-54134392D01*
X81626251Y-53970628D01*
G37*
G36*
X82097854Y-54716454D02*
G01*
X82136780Y-54724972D01*
X82156797Y-54722105D01*
X82174975Y-54713760D01*
X82204008Y-54688335D01*
X82398245Y-54447937D01*
X82566970Y-54230700D01*
X82718084Y-54027402D01*
X82845034Y-53847982D01*
X82955577Y-53682706D01*
X83043367Y-53542589D01*
X83166856Y-53320384D01*
X83202831Y-53242219D01*
X83220058Y-53195620D01*
X83223233Y-53180746D01*
X83220334Y-53165510D01*
X83211762Y-53151917D01*
X83183941Y-53131837D01*
X82871065Y-52970270D01*
X82826330Y-52953695D01*
X82817118Y-52953051D01*
X82799383Y-52955868D01*
X82784610Y-52963862D01*
X82764270Y-52988039D01*
X82420804Y-53519084D01*
X82172958Y-52959004D01*
X82159287Y-52933597D01*
X82140762Y-52913020D01*
X82121456Y-52900812D01*
X82099064Y-52894716D01*
X82090526Y-52894249D01*
X82064864Y-52898490D01*
X82064606Y-52898554D01*
X81730665Y-52997289D01*
X81705549Y-53007122D01*
X81685646Y-53022274D01*
X81675512Y-53037866D01*
X81671772Y-53056621D01*
X81671772Y-53056823D01*
X81682580Y-53095841D01*
X82075322Y-53984183D01*
X82079413Y-53992641D01*
X82090984Y-54012668D01*
X81762630Y-54499932D01*
X81749991Y-54522658D01*
X81745320Y-54545728D01*
X81748258Y-54561423D01*
X81757099Y-54575543D01*
X81793313Y-54598851D01*
X82097854Y-54716454D01*
G37*
G36*
X83947588Y-52891044D02*
G01*
X84017068Y-52897563D01*
X84083832Y-52909919D01*
X84201975Y-52948380D01*
X84211583Y-52939893D01*
X84232633Y-52930993D01*
X84259494Y-52928046D01*
X84270027Y-52928046D01*
X84633552Y-52959554D01*
X84652980Y-52962336D01*
X84675374Y-52970197D01*
X84690824Y-52981487D01*
X84702238Y-52999665D01*
X84705543Y-53019180D01*
X84705543Y-53029896D01*
X84700309Y-53063893D01*
X84657040Y-53374423D01*
X84646741Y-53541065D01*
X84650032Y-53615976D01*
X84666769Y-53700548D01*
X84694990Y-53755380D01*
X84735402Y-53789735D01*
X84771164Y-53813310D01*
X84781106Y-53836447D01*
X84774511Y-53856688D01*
X84644269Y-54110762D01*
X84639114Y-54119981D01*
X84608747Y-54155614D01*
X84592411Y-54164110D01*
X84574476Y-54166999D01*
X84558455Y-54164910D01*
X84468987Y-54137922D01*
X84376184Y-54092087D01*
X84300985Y-54035291D01*
X84227634Y-54068366D01*
X84164206Y-54089553D01*
X84100570Y-54104498D01*
X84035719Y-54113562D01*
X83971807Y-54116532D01*
X83948626Y-54116141D01*
X83884210Y-54110916D01*
X83821391Y-54099834D01*
X83759398Y-54082817D01*
X83699837Y-54060325D01*
X83642744Y-54032474D01*
X83588906Y-53999703D01*
X83493292Y-53921354D01*
X83416566Y-53829391D01*
X83360845Y-53727803D01*
X83327090Y-53619808D01*
X83316370Y-53513863D01*
X83806668Y-53513863D01*
X83814360Y-53574484D01*
X83842469Y-53637849D01*
X83887893Y-53686320D01*
X83948153Y-53717376D01*
X83983463Y-53725610D01*
X84022182Y-53728461D01*
X84071080Y-53724480D01*
X84153432Y-53700342D01*
X84143174Y-53524304D01*
X84149310Y-53351472D01*
X84126585Y-53324442D01*
X84102000Y-53306751D01*
X84072985Y-53293380D01*
X84009542Y-53282504D01*
X83966317Y-53287378D01*
X83933685Y-53298393D01*
X83904593Y-53314853D01*
X83876409Y-53338638D01*
X83852838Y-53367038D01*
X83832712Y-53401534D01*
X83818217Y-53438643D01*
X83806668Y-53513863D01*
X83316370Y-53513863D01*
X83315740Y-53507635D01*
X83316122Y-53487331D01*
X83332502Y-53367785D01*
X83371276Y-53250231D01*
X83428586Y-53144628D01*
X83500826Y-53055724D01*
X83585693Y-52985187D01*
X83682320Y-52933540D01*
X83791038Y-52901413D01*
X83850138Y-52893084D01*
X83913005Y-52890219D01*
X83947588Y-52891044D01*
G37*
G36*
X87539371Y-53987480D02*
G01*
X87562872Y-53967218D01*
X87572801Y-53932251D01*
X87564100Y-53899461D01*
X86835402Y-52416877D01*
X86813112Y-52394047D01*
X86789829Y-52382928D01*
X86761257Y-52376304D01*
X86744543Y-52375294D01*
X86440095Y-52375294D01*
X86393427Y-52384465D01*
X86362517Y-52401215D01*
X86280652Y-52492761D01*
X86184445Y-52635225D01*
X86073117Y-52840588D01*
X85948318Y-53116565D01*
X85817340Y-53455818D01*
X85702524Y-53803100D01*
X85660197Y-53967880D01*
X85663194Y-53989594D01*
X85672455Y-54008827D01*
X85686478Y-54023505D01*
X85706194Y-54035219D01*
X85718998Y-54040054D01*
X86040208Y-54132469D01*
X86074555Y-54138789D01*
X86092066Y-54137052D01*
X86106849Y-54129904D01*
X86129967Y-54098489D01*
X86204706Y-53903125D01*
X86591220Y-53921901D01*
X86595433Y-53921901D01*
X86625773Y-53911642D01*
X86646389Y-53882899D01*
X86648831Y-53870885D01*
X86674018Y-53494904D01*
X86674018Y-53490599D01*
X86663498Y-53458539D01*
X86650817Y-53446120D01*
X86634626Y-53438734D01*
X86622910Y-53437293D01*
X86387613Y-53424836D01*
X86393534Y-53409895D01*
X86516166Y-53105084D01*
X86541761Y-53051445D01*
X86555591Y-53037864D01*
X86569656Y-53052404D01*
X86571803Y-53057098D01*
X87038001Y-54102885D01*
X87060394Y-54125745D01*
X87080882Y-54134699D01*
X87105778Y-54138239D01*
X87140400Y-54131736D01*
X87539371Y-53987480D01*
G37*
G36*
X88296836Y-52900883D02*
G01*
X88427152Y-52918138D01*
X88536889Y-52953509D01*
X88538708Y-52948359D01*
X88557053Y-52931410D01*
X88582959Y-52927314D01*
X88593492Y-52927314D01*
X88986326Y-52952501D01*
X89002624Y-52955702D01*
X89019750Y-52965019D01*
X89032649Y-52979049D01*
X89043662Y-53016340D01*
X89043211Y-53056421D01*
X89032182Y-53550131D01*
X89010478Y-53848495D01*
X88976343Y-54081544D01*
X88948828Y-54191075D01*
X88924514Y-54258831D01*
X88895990Y-54321273D01*
X88862999Y-54379374D01*
X88826251Y-54432233D01*
X88784829Y-54481279D01*
X88740065Y-54525036D01*
X88690209Y-54565147D01*
X88637437Y-54599808D01*
X88579173Y-54630553D01*
X88518509Y-54655604D01*
X88452328Y-54676067D01*
X88384445Y-54690583D01*
X88311840Y-54699653D01*
X88238485Y-54702623D01*
X88181532Y-54700953D01*
X88104489Y-54693434D01*
X88028458Y-54680062D01*
X87882654Y-54636861D01*
X87877762Y-54634893D01*
X87861549Y-54617476D01*
X87857558Y-54594180D01*
X87861863Y-54559741D01*
X87929182Y-54364927D01*
X87929313Y-54364508D01*
X87938578Y-54345941D01*
X87952179Y-54332310D01*
X87986518Y-54320963D01*
X87993837Y-54322116D01*
X87999524Y-54323070D01*
X88034131Y-54331137D01*
X88095686Y-54340885D01*
X88152390Y-54343953D01*
X88230687Y-54336539D01*
X88272409Y-54325228D01*
X88310388Y-54309003D01*
X88345843Y-54287259D01*
X88377528Y-54260678D01*
X88407657Y-54226774D01*
X88433675Y-54187741D01*
X88458064Y-54138405D01*
X88477721Y-54083376D01*
X88392243Y-54104641D01*
X88278419Y-54115341D01*
X88253907Y-54114840D01*
X88194214Y-54109400D01*
X88135742Y-54098128D01*
X88078468Y-54081071D01*
X88023223Y-54058484D01*
X87920684Y-53997695D01*
X87831930Y-53918288D01*
X87759877Y-53823034D01*
X87706591Y-53714465D01*
X87673603Y-53594591D01*
X87665166Y-53531104D01*
X87663469Y-53492064D01*
X88155321Y-53492064D01*
X88156302Y-53517196D01*
X88170730Y-53593227D01*
X88199900Y-53655899D01*
X88241817Y-53701841D01*
X88297501Y-53731196D01*
X88331726Y-53739198D01*
X88370834Y-53742016D01*
X88385905Y-53741384D01*
X88426682Y-53734595D01*
X88467181Y-53721722D01*
X88520403Y-53692374D01*
X88529653Y-53686787D01*
X88535881Y-53418975D01*
X88521495Y-53363608D01*
X88505719Y-53337317D01*
X88485339Y-53315331D01*
X88458998Y-53296516D01*
X88428972Y-53282849D01*
X88394628Y-53274155D01*
X88358195Y-53271238D01*
X88311971Y-53275956D01*
X88278843Y-53286136D01*
X88249456Y-53301395D01*
X88222400Y-53322563D01*
X88199772Y-53348150D01*
X88180713Y-53379374D01*
X88166872Y-53413988D01*
X88158230Y-53452115D01*
X88155321Y-53492064D01*
X87663469Y-53492064D01*
X87662286Y-53464862D01*
X87662293Y-53461890D01*
X87673801Y-53343983D01*
X87705720Y-53234553D01*
X87755630Y-53138427D01*
X87821875Y-53057337D01*
X87904070Y-52991859D01*
X87951147Y-52965273D01*
X88003078Y-52942668D01*
X88059387Y-52924609D01*
X88120743Y-52911225D01*
X88187463Y-52902886D01*
X88259551Y-52900020D01*
X88296836Y-52900883D01*
G37*
G36*
X89829704Y-52900883D02*
G01*
X89960020Y-52918138D01*
X90069757Y-52953509D01*
X90071576Y-52948359D01*
X90089921Y-52931410D01*
X90115827Y-52927314D01*
X90126360Y-52927314D01*
X90519194Y-52952501D01*
X90535492Y-52955702D01*
X90552618Y-52965019D01*
X90565517Y-52979049D01*
X90576530Y-53016340D01*
X90576079Y-53056421D01*
X90565050Y-53550131D01*
X90543346Y-53848495D01*
X90509211Y-54081544D01*
X90481696Y-54191075D01*
X90457382Y-54258831D01*
X90428858Y-54321273D01*
X90395867Y-54379374D01*
X90359119Y-54432233D01*
X90317697Y-54481279D01*
X90272933Y-54525036D01*
X90223077Y-54565147D01*
X90170305Y-54599808D01*
X90112041Y-54630553D01*
X90051377Y-54655604D01*
X89985196Y-54676067D01*
X89917313Y-54690583D01*
X89844708Y-54699653D01*
X89771353Y-54702623D01*
X89714400Y-54700953D01*
X89637357Y-54693434D01*
X89561326Y-54680062D01*
X89415522Y-54636861D01*
X89410630Y-54634893D01*
X89394417Y-54617476D01*
X89390426Y-54594180D01*
X89394731Y-54559741D01*
X89462050Y-54364927D01*
X89462181Y-54364508D01*
X89471446Y-54345941D01*
X89485047Y-54332310D01*
X89519386Y-54320963D01*
X89526705Y-54322116D01*
X89532392Y-54323070D01*
X89566999Y-54331137D01*
X89628554Y-54340885D01*
X89685258Y-54343953D01*
X89763555Y-54336539D01*
X89805277Y-54325228D01*
X89843256Y-54309003D01*
X89878711Y-54287259D01*
X89910396Y-54260678D01*
X89940525Y-54226774D01*
X89966544Y-54187741D01*
X89990932Y-54138405D01*
X90010589Y-54083376D01*
X89925111Y-54104641D01*
X89811287Y-54115341D01*
X89786775Y-54114840D01*
X89727083Y-54109400D01*
X89668610Y-54098128D01*
X89611336Y-54081071D01*
X89556091Y-54058484D01*
X89453552Y-53997695D01*
X89364798Y-53918288D01*
X89292745Y-53823034D01*
X89239459Y-53714465D01*
X89206471Y-53594591D01*
X89198034Y-53531104D01*
X89196337Y-53492064D01*
X89688189Y-53492064D01*
X89689170Y-53517196D01*
X89703598Y-53593227D01*
X89732769Y-53655899D01*
X89774686Y-53701841D01*
X89830370Y-53731196D01*
X89864595Y-53739198D01*
X89903702Y-53742016D01*
X89918773Y-53741384D01*
X89959550Y-53734595D01*
X90000049Y-53721722D01*
X90053271Y-53692374D01*
X90062521Y-53686787D01*
X90068750Y-53418975D01*
X90054363Y-53363608D01*
X90038587Y-53337317D01*
X90018207Y-53315331D01*
X89991866Y-53296516D01*
X89961840Y-53282849D01*
X89927496Y-53274155D01*
X89891063Y-53271238D01*
X89844839Y-53275956D01*
X89811711Y-53286136D01*
X89782324Y-53301395D01*
X89755269Y-53322563D01*
X89732640Y-53348150D01*
X89713581Y-53379374D01*
X89699740Y-53413988D01*
X89691098Y-53452115D01*
X89688189Y-53492064D01*
X89196337Y-53492064D01*
X89195154Y-53464862D01*
X89195161Y-53461890D01*
X89206669Y-53343983D01*
X89238588Y-53234553D01*
X89288498Y-53138427D01*
X89354743Y-53057337D01*
X89436938Y-52991859D01*
X89484015Y-52965273D01*
X89535946Y-52942668D01*
X89592255Y-52924609D01*
X89653612Y-52911225D01*
X89720331Y-52902886D01*
X89792419Y-52900020D01*
X89829704Y-52900883D01*
G37*
G36*
X91359870Y-52891044D02*
G01*
X91429350Y-52897563D01*
X91496114Y-52909919D01*
X91614257Y-52948380D01*
X91623865Y-52939893D01*
X91644915Y-52930993D01*
X91671776Y-52928046D01*
X91682309Y-52928046D01*
X92045834Y-52959554D01*
X92065262Y-52962336D01*
X92087656Y-52970197D01*
X92103106Y-52981487D01*
X92114520Y-52999665D01*
X92117825Y-53019180D01*
X92117825Y-53029896D01*
X92112591Y-53063893D01*
X92069322Y-53374423D01*
X92059023Y-53541065D01*
X92062314Y-53615976D01*
X92079051Y-53700548D01*
X92107272Y-53755380D01*
X92147684Y-53789735D01*
X92183446Y-53813310D01*
X92193387Y-53836447D01*
X92186793Y-53856688D01*
X92056550Y-54110762D01*
X92051396Y-54119981D01*
X92021029Y-54155614D01*
X92004693Y-54164110D01*
X91986758Y-54166999D01*
X91970737Y-54164910D01*
X91881269Y-54137922D01*
X91788466Y-54092087D01*
X91713267Y-54035291D01*
X91639916Y-54068366D01*
X91576488Y-54089553D01*
X91512851Y-54104498D01*
X91448001Y-54113562D01*
X91384089Y-54116532D01*
X91360908Y-54116141D01*
X91296492Y-54110916D01*
X91233673Y-54099834D01*
X91171680Y-54082817D01*
X91112119Y-54060325D01*
X91055026Y-54032474D01*
X91001188Y-53999703D01*
X90905574Y-53921354D01*
X90828848Y-53829391D01*
X90773127Y-53727803D01*
X90739372Y-53619808D01*
X90728652Y-53513863D01*
X91218950Y-53513863D01*
X91226642Y-53574484D01*
X91254751Y-53637849D01*
X91300175Y-53686320D01*
X91360435Y-53717376D01*
X91395745Y-53725610D01*
X91434464Y-53728461D01*
X91483362Y-53724480D01*
X91565714Y-53700342D01*
X91555456Y-53524304D01*
X91561592Y-53351472D01*
X91538866Y-53324442D01*
X91514282Y-53306751D01*
X91485267Y-53293380D01*
X91421824Y-53282504D01*
X91378599Y-53287378D01*
X91345967Y-53298393D01*
X91316875Y-53314853D01*
X91288691Y-53338638D01*
X91265120Y-53367038D01*
X91244994Y-53401534D01*
X91230499Y-53438643D01*
X91218950Y-53513863D01*
X90728652Y-53513863D01*
X90728022Y-53507635D01*
X90728404Y-53487331D01*
X90744784Y-53367785D01*
X90783558Y-53250231D01*
X90840868Y-53144628D01*
X90913108Y-53055724D01*
X90997975Y-52985187D01*
X91094602Y-52933540D01*
X91203320Y-52901413D01*
X91262420Y-52893084D01*
X91325287Y-52890219D01*
X91359870Y-52891044D01*
G37*
G36*
X92889846Y-54112411D02*
G01*
X92917996Y-54102086D01*
X92928647Y-54089525D01*
X92934168Y-54073832D01*
X92934634Y-54067531D01*
X92934634Y-54063226D01*
X92894883Y-53322254D01*
X92984276Y-53310256D01*
X93067299Y-53320978D01*
X93088415Y-53326926D01*
X93089093Y-53327093D01*
X93112321Y-53331230D01*
X93130955Y-53328318D01*
X93147167Y-53319652D01*
X93159090Y-53306410D01*
X93166839Y-53288303D01*
X93167642Y-53284885D01*
X93228550Y-52988680D01*
X93229654Y-52983343D01*
X93232855Y-52960836D01*
X93229828Y-52941579D01*
X93220367Y-52925873D01*
X93186601Y-52907622D01*
X93112652Y-52893924D01*
X93035954Y-52886063D01*
X92980063Y-52884357D01*
X92903503Y-52887312D01*
X92825484Y-52896274D01*
X92746117Y-52911374D01*
X92665414Y-52932762D01*
X92651892Y-52936931D01*
X92408718Y-52949479D01*
X92381741Y-52959833D01*
X92364846Y-52989130D01*
X92363930Y-52998755D01*
X92422732Y-54090703D01*
X92433080Y-54118652D01*
X92461367Y-54134576D01*
X92471916Y-54135583D01*
X92889846Y-54112411D01*
G37*
G36*
X94598386Y-54105724D02*
G01*
X94624474Y-54101383D01*
X94650443Y-54090474D01*
X94700107Y-54048633D01*
X94753271Y-53969114D01*
X94813095Y-53831937D01*
X94881969Y-53608105D01*
X94962578Y-53257187D01*
X95002211Y-53051236D01*
X95006516Y-53017073D01*
X95002914Y-52993791D01*
X94989431Y-52973343D01*
X94972580Y-52961851D01*
X94948049Y-52952859D01*
X94930587Y-52949112D01*
X94676605Y-52898737D01*
X94617162Y-52890219D01*
X94594142Y-52893557D01*
X94575118Y-52905194D01*
X94564767Y-52919873D01*
X94557628Y-52940869D01*
X94472620Y-53345770D01*
X94455412Y-53408991D01*
X94447810Y-53396443D01*
X94393222Y-53144385D01*
X94381518Y-53123141D01*
X94366665Y-53109382D01*
X94329474Y-53100238D01*
X94318850Y-53100238D01*
X94077233Y-53110771D01*
X94038988Y-53117555D01*
X94013299Y-53132854D01*
X93998057Y-53166820D01*
X93996816Y-53176441D01*
X93992257Y-53226071D01*
X93973735Y-53417692D01*
X93969307Y-53430311D01*
X93964050Y-53434179D01*
X93964026Y-53434179D01*
X93954134Y-53425294D01*
X93739903Y-52973934D01*
X93729726Y-52958435D01*
X93714152Y-52946436D01*
X93680552Y-52938579D01*
X93641900Y-52944991D01*
X93335253Y-53045833D01*
X93307657Y-53058370D01*
X93290109Y-53072430D01*
X93281433Y-53086219D01*
X93278657Y-53100300D01*
X93278650Y-53101062D01*
X93287041Y-53134887D01*
X93293579Y-53148598D01*
X93722042Y-54089238D01*
X93734249Y-54109629D01*
X93749567Y-54124842D01*
X93789511Y-54142699D01*
X93819129Y-54145658D01*
X93829754Y-54145658D01*
X94037757Y-54135125D01*
X94079433Y-54122356D01*
X94098462Y-54108249D01*
X94111645Y-54091380D01*
X94115976Y-54080537D01*
X94199965Y-53725438D01*
X94201491Y-53718923D01*
X94205552Y-53706754D01*
X94215443Y-53725805D01*
X94349991Y-54076965D01*
X94364631Y-54095219D01*
X94382044Y-54106778D01*
X94423905Y-54114151D01*
X94438743Y-54114151D01*
X94598386Y-54105724D01*
G37*
G36*
X95741586Y-52891044D02*
G01*
X95811066Y-52897563D01*
X95877830Y-52909919D01*
X95995974Y-52948380D01*
X96005582Y-52939893D01*
X96026632Y-52930993D01*
X96053493Y-52928046D01*
X96064026Y-52928046D01*
X96427551Y-52959554D01*
X96446979Y-52962336D01*
X96469373Y-52970197D01*
X96484823Y-52981487D01*
X96496236Y-52999665D01*
X96499542Y-53019180D01*
X96499542Y-53029896D01*
X96494307Y-53063893D01*
X96451039Y-53374423D01*
X96440740Y-53541065D01*
X96444031Y-53615976D01*
X96460768Y-53700548D01*
X96488989Y-53755380D01*
X96529400Y-53789735D01*
X96565163Y-53813310D01*
X96575104Y-53836447D01*
X96568510Y-53856688D01*
X96438267Y-54110762D01*
X96433113Y-54119981D01*
X96402745Y-54155614D01*
X96386409Y-54164110D01*
X96368475Y-54166999D01*
X96352453Y-54164910D01*
X96262986Y-54137922D01*
X96170183Y-54092087D01*
X96094984Y-54035291D01*
X96021632Y-54068366D01*
X95958204Y-54089553D01*
X95894568Y-54104498D01*
X95829718Y-54113562D01*
X95765806Y-54116532D01*
X95742624Y-54116141D01*
X95678208Y-54110916D01*
X95615390Y-54099834D01*
X95553397Y-54082817D01*
X95493835Y-54060325D01*
X95436742Y-54032474D01*
X95382904Y-53999703D01*
X95287290Y-53921354D01*
X95210565Y-53829391D01*
X95154844Y-53727803D01*
X95121089Y-53619808D01*
X95110369Y-53513863D01*
X95600667Y-53513863D01*
X95608359Y-53574484D01*
X95636467Y-53637849D01*
X95681892Y-53686320D01*
X95742152Y-53717376D01*
X95777462Y-53725610D01*
X95816181Y-53728461D01*
X95865078Y-53724480D01*
X95947431Y-53700342D01*
X95937172Y-53524304D01*
X95943309Y-53351472D01*
X95920583Y-53324442D01*
X95895999Y-53306751D01*
X95866983Y-53293380D01*
X95803541Y-53282504D01*
X95760316Y-53287378D01*
X95727684Y-53298393D01*
X95698591Y-53314853D01*
X95670408Y-53338638D01*
X95646837Y-53367038D01*
X95626710Y-53401534D01*
X95612215Y-53438643D01*
X95600667Y-53513863D01*
X95110369Y-53513863D01*
X95109739Y-53507635D01*
X95110120Y-53487331D01*
X95126501Y-53367785D01*
X95165274Y-53250231D01*
X95222584Y-53144628D01*
X95294825Y-53055724D01*
X95379692Y-52985187D01*
X95476319Y-52933540D01*
X95585037Y-52901413D01*
X95644136Y-52893084D01*
X95707004Y-52890219D01*
X95741586Y-52891044D01*
G37*
G36*
X97231537Y-54121203D02*
G01*
X97259799Y-54110879D01*
X97270489Y-54098329D01*
X97276037Y-54082650D01*
X97276509Y-54076324D01*
X97276509Y-52360640D01*
X97266190Y-52330741D01*
X97253928Y-52319940D01*
X97238646Y-52314249D01*
X97231537Y-52313654D01*
X96809486Y-52313654D01*
X96781224Y-52324152D01*
X96770700Y-52336876D01*
X96765090Y-52353094D01*
X96764515Y-52360640D01*
X96764515Y-54076324D01*
X96774833Y-54104497D01*
X96787392Y-54115168D01*
X96803071Y-54120721D01*
X96809486Y-54121203D01*
X97231537Y-54121203D01*
G37*
D12*
X93416667Y-101607200D02*
X93559524Y-101654819D01*
X93559524Y-101654819D02*
X93797619Y-101654819D01*
X93797619Y-101654819D02*
X93892857Y-101607200D01*
X93892857Y-101607200D02*
X93940476Y-101559580D01*
X93940476Y-101559580D02*
X93988095Y-101464342D01*
X93988095Y-101464342D02*
X93988095Y-101369104D01*
X93988095Y-101369104D02*
X93940476Y-101273866D01*
X93940476Y-101273866D02*
X93892857Y-101226247D01*
X93892857Y-101226247D02*
X93797619Y-101178628D01*
X93797619Y-101178628D02*
X93607143Y-101131009D01*
X93607143Y-101131009D02*
X93511905Y-101083390D01*
X93511905Y-101083390D02*
X93464286Y-101035771D01*
X93464286Y-101035771D02*
X93416667Y-100940533D01*
X93416667Y-100940533D02*
X93416667Y-100845295D01*
X93416667Y-100845295D02*
X93464286Y-100750057D01*
X93464286Y-100750057D02*
X93511905Y-100702438D01*
X93511905Y-100702438D02*
X93607143Y-100654819D01*
X93607143Y-100654819D02*
X93845238Y-100654819D01*
X93845238Y-100654819D02*
X93988095Y-100702438D01*
X94321429Y-100654819D02*
X94559524Y-101654819D01*
X94559524Y-101654819D02*
X94750000Y-100940533D01*
X94750000Y-100940533D02*
X94940476Y-101654819D01*
X94940476Y-101654819D02*
X95178572Y-100654819D01*
X95464286Y-100654819D02*
X96083333Y-100654819D01*
X96083333Y-100654819D02*
X95750000Y-101035771D01*
X95750000Y-101035771D02*
X95892857Y-101035771D01*
X95892857Y-101035771D02*
X95988095Y-101083390D01*
X95988095Y-101083390D02*
X96035714Y-101131009D01*
X96035714Y-101131009D02*
X96083333Y-101226247D01*
X96083333Y-101226247D02*
X96083333Y-101464342D01*
X96083333Y-101464342D02*
X96035714Y-101559580D01*
X96035714Y-101559580D02*
X95988095Y-101607200D01*
X95988095Y-101607200D02*
X95892857Y-101654819D01*
X95892857Y-101654819D02*
X95607143Y-101654819D01*
X95607143Y-101654819D02*
X95511905Y-101607200D01*
X95511905Y-101607200D02*
X95464286Y-101559580D01*
X64416667Y-101607200D02*
X64559524Y-101654819D01*
X64559524Y-101654819D02*
X64797619Y-101654819D01*
X64797619Y-101654819D02*
X64892857Y-101607200D01*
X64892857Y-101607200D02*
X64940476Y-101559580D01*
X64940476Y-101559580D02*
X64988095Y-101464342D01*
X64988095Y-101464342D02*
X64988095Y-101369104D01*
X64988095Y-101369104D02*
X64940476Y-101273866D01*
X64940476Y-101273866D02*
X64892857Y-101226247D01*
X64892857Y-101226247D02*
X64797619Y-101178628D01*
X64797619Y-101178628D02*
X64607143Y-101131009D01*
X64607143Y-101131009D02*
X64511905Y-101083390D01*
X64511905Y-101083390D02*
X64464286Y-101035771D01*
X64464286Y-101035771D02*
X64416667Y-100940533D01*
X64416667Y-100940533D02*
X64416667Y-100845295D01*
X64416667Y-100845295D02*
X64464286Y-100750057D01*
X64464286Y-100750057D02*
X64511905Y-100702438D01*
X64511905Y-100702438D02*
X64607143Y-100654819D01*
X64607143Y-100654819D02*
X64845238Y-100654819D01*
X64845238Y-100654819D02*
X64988095Y-100702438D01*
X65321429Y-100654819D02*
X65559524Y-101654819D01*
X65559524Y-101654819D02*
X65750000Y-100940533D01*
X65750000Y-100940533D02*
X65940476Y-101654819D01*
X65940476Y-101654819D02*
X66178572Y-100654819D01*
X67083333Y-101654819D02*
X66511905Y-101654819D01*
X66797619Y-101654819D02*
X66797619Y-100654819D01*
X66797619Y-100654819D02*
X66702381Y-100797676D01*
X66702381Y-100797676D02*
X66607143Y-100892914D01*
X66607143Y-100892914D02*
X66511905Y-100940533D01*
X78916667Y-103607200D02*
X79059524Y-103654819D01*
X79059524Y-103654819D02*
X79297619Y-103654819D01*
X79297619Y-103654819D02*
X79392857Y-103607200D01*
X79392857Y-103607200D02*
X79440476Y-103559580D01*
X79440476Y-103559580D02*
X79488095Y-103464342D01*
X79488095Y-103464342D02*
X79488095Y-103369104D01*
X79488095Y-103369104D02*
X79440476Y-103273866D01*
X79440476Y-103273866D02*
X79392857Y-103226247D01*
X79392857Y-103226247D02*
X79297619Y-103178628D01*
X79297619Y-103178628D02*
X79107143Y-103131009D01*
X79107143Y-103131009D02*
X79011905Y-103083390D01*
X79011905Y-103083390D02*
X78964286Y-103035771D01*
X78964286Y-103035771D02*
X78916667Y-102940533D01*
X78916667Y-102940533D02*
X78916667Y-102845295D01*
X78916667Y-102845295D02*
X78964286Y-102750057D01*
X78964286Y-102750057D02*
X79011905Y-102702438D01*
X79011905Y-102702438D02*
X79107143Y-102654819D01*
X79107143Y-102654819D02*
X79345238Y-102654819D01*
X79345238Y-102654819D02*
X79488095Y-102702438D01*
X79821429Y-102654819D02*
X80059524Y-103654819D01*
X80059524Y-103654819D02*
X80250000Y-102940533D01*
X80250000Y-102940533D02*
X80440476Y-103654819D01*
X80440476Y-103654819D02*
X80678572Y-102654819D01*
X81011905Y-102750057D02*
X81059524Y-102702438D01*
X81059524Y-102702438D02*
X81154762Y-102654819D01*
X81154762Y-102654819D02*
X81392857Y-102654819D01*
X81392857Y-102654819D02*
X81488095Y-102702438D01*
X81488095Y-102702438D02*
X81535714Y-102750057D01*
X81535714Y-102750057D02*
X81583333Y-102845295D01*
X81583333Y-102845295D02*
X81583333Y-102940533D01*
X81583333Y-102940533D02*
X81535714Y-103083390D01*
X81535714Y-103083390D02*
X80964286Y-103654819D01*
X80964286Y-103654819D02*
X81583333Y-103654819D01*
X79488095Y-65694819D02*
X79488095Y-66504342D01*
X79488095Y-66504342D02*
X79535714Y-66599580D01*
X79535714Y-66599580D02*
X79583333Y-66647200D01*
X79583333Y-66647200D02*
X79678571Y-66694819D01*
X79678571Y-66694819D02*
X79869047Y-66694819D01*
X79869047Y-66694819D02*
X79964285Y-66647200D01*
X79964285Y-66647200D02*
X80011904Y-66599580D01*
X80011904Y-66599580D02*
X80059523Y-66504342D01*
X80059523Y-66504342D02*
X80059523Y-65694819D01*
X80488095Y-65790057D02*
X80535714Y-65742438D01*
X80535714Y-65742438D02*
X80630952Y-65694819D01*
X80630952Y-65694819D02*
X80869047Y-65694819D01*
X80869047Y-65694819D02*
X80964285Y-65742438D01*
X80964285Y-65742438D02*
X81011904Y-65790057D01*
X81011904Y-65790057D02*
X81059523Y-65885295D01*
X81059523Y-65885295D02*
X81059523Y-65980533D01*
X81059523Y-65980533D02*
X81011904Y-66123390D01*
X81011904Y-66123390D02*
X80440476Y-66694819D01*
X80440476Y-66694819D02*
X81059523Y-66694819D01*
%TO.C,SW3*%
D13*
X92500000Y-107200000D02*
X92500000Y-106200000D01*
X93000000Y-104450000D02*
X96500000Y-104450000D01*
X96500000Y-108950000D02*
X92990000Y-108950000D01*
X97150000Y-106200000D02*
X97150000Y-107200000D01*
D14*
X92180000Y-104450000D02*
G75*
G02*
X92120000Y-104450000I-30000J0D01*
G01*
X92120000Y-104450000D02*
G75*
G02*
X92180000Y-104450000I30000J0D01*
G01*
D13*
X93930000Y-105200000D02*
G75*
G02*
X93370000Y-105200000I-280000J0D01*
G01*
X93370000Y-105200000D02*
G75*
G02*
X93930000Y-105200000I280000J0D01*
G01*
X93930000Y-108200000D02*
G75*
G02*
X93370000Y-108200000I-280000J0D01*
G01*
X93370000Y-108200000D02*
G75*
G02*
X93930000Y-108200000I280000J0D01*
G01*
X95670000Y-106700000D02*
G75*
G02*
X93830000Y-106700000I-920000J0D01*
G01*
X93830000Y-106700000D02*
G75*
G02*
X95670000Y-106700000I920000J0D01*
G01*
X96130000Y-105200000D02*
G75*
G02*
X95570000Y-105200000I-280000J0D01*
G01*
X95570000Y-105200000D02*
G75*
G02*
X96130000Y-105200000I280000J0D01*
G01*
X96130000Y-108200000D02*
G75*
G02*
X95570000Y-108200000I-280000J0D01*
G01*
X95570000Y-108200000D02*
G75*
G02*
X96130000Y-108200000I280000J0D01*
G01*
%TO.C,SW1*%
X63500000Y-107200000D02*
X63500000Y-106200000D01*
X64000000Y-104450000D02*
X67500000Y-104450000D01*
X67500000Y-108950000D02*
X63990000Y-108950000D01*
X68150000Y-106200000D02*
X68150000Y-107200000D01*
D14*
X63180000Y-104450000D02*
G75*
G02*
X63120000Y-104450000I-30000J0D01*
G01*
X63120000Y-104450000D02*
G75*
G02*
X63180000Y-104450000I30000J0D01*
G01*
D13*
X64930000Y-105200000D02*
G75*
G02*
X64370000Y-105200000I-280000J0D01*
G01*
X64370000Y-105200000D02*
G75*
G02*
X64930000Y-105200000I280000J0D01*
G01*
X64930000Y-108200000D02*
G75*
G02*
X64370000Y-108200000I-280000J0D01*
G01*
X64370000Y-108200000D02*
G75*
G02*
X64930000Y-108200000I280000J0D01*
G01*
X66670000Y-106700000D02*
G75*
G02*
X64830000Y-106700000I-920000J0D01*
G01*
X64830000Y-106700000D02*
G75*
G02*
X66670000Y-106700000I920000J0D01*
G01*
X67130000Y-105200000D02*
G75*
G02*
X66570000Y-105200000I-280000J0D01*
G01*
X66570000Y-105200000D02*
G75*
G02*
X67130000Y-105200000I280000J0D01*
G01*
X67130000Y-108200000D02*
G75*
G02*
X66570000Y-108200000I-280000J0D01*
G01*
X66570000Y-108200000D02*
G75*
G02*
X67130000Y-108200000I280000J0D01*
G01*
%TO.C,SW2*%
X78000000Y-109200000D02*
X78000000Y-108200000D01*
X78500000Y-106450000D02*
X82000000Y-106450000D01*
X82000000Y-110950000D02*
X78490000Y-110950000D01*
X82650000Y-108200000D02*
X82650000Y-109200000D01*
D14*
X77680000Y-106450000D02*
G75*
G02*
X77620000Y-106450000I-30000J0D01*
G01*
X77620000Y-106450000D02*
G75*
G02*
X77680000Y-106450000I30000J0D01*
G01*
D13*
X79430000Y-107200000D02*
G75*
G02*
X78870000Y-107200000I-280000J0D01*
G01*
X78870000Y-107200000D02*
G75*
G02*
X79430000Y-107200000I280000J0D01*
G01*
X79430000Y-110200000D02*
G75*
G02*
X78870000Y-110200000I-280000J0D01*
G01*
X78870000Y-110200000D02*
G75*
G02*
X79430000Y-110200000I280000J0D01*
G01*
X81170000Y-108700000D02*
G75*
G02*
X79330000Y-108700000I-920000J0D01*
G01*
X79330000Y-108700000D02*
G75*
G02*
X81170000Y-108700000I920000J0D01*
G01*
X81630000Y-107200000D02*
G75*
G02*
X81070000Y-107200000I-280000J0D01*
G01*
X81070000Y-107200000D02*
G75*
G02*
X81630000Y-107200000I280000J0D01*
G01*
X81630000Y-110200000D02*
G75*
G02*
X81070000Y-110200000I-280000J0D01*
G01*
X81070000Y-110200000D02*
G75*
G02*
X81630000Y-110200000I280000J0D01*
G01*
%TO.C,U2*%
X66650000Y-68800000D02*
X93850000Y-68800000D01*
X66650000Y-96600000D02*
X66650000Y-68800000D01*
X73900000Y-92850000D02*
X73900000Y-96600000D01*
X73900000Y-96600000D02*
X66650000Y-96600000D01*
X86750000Y-92850000D02*
X73900000Y-92850000D01*
X86750000Y-96600000D02*
X86750000Y-92850000D01*
X93850000Y-68800000D02*
X93850000Y-96600000D01*
X93850000Y-96600000D02*
X86750000Y-96600000D01*
D14*
X66680000Y-95840000D02*
G75*
G02*
X66620000Y-95840000I-30000J0D01*
G01*
X66620000Y-95840000D02*
G75*
G02*
X66680000Y-95840000I30000J0D01*
G01*
D15*
%TO.C,G\u002A\u002A\u002A*%
G36*
X79062080Y-58679180D02*
G01*
X79075030Y-58689789D01*
X79101463Y-58764238D01*
X79067028Y-58830046D01*
X79022490Y-58844981D01*
X78961939Y-58810590D01*
X78949130Y-58793656D01*
X78943614Y-58721654D01*
X78993566Y-58673347D01*
X79062080Y-58679180D01*
G37*
G36*
X74297908Y-60448780D02*
G01*
X74400858Y-60504984D01*
X74455541Y-60560284D01*
X74455706Y-60560735D01*
X74461596Y-60631170D01*
X74459692Y-60768948D01*
X74450513Y-60947356D01*
X74447295Y-60993122D01*
X74419330Y-61370818D01*
X74222266Y-61385160D01*
X74075165Y-61381614D01*
X73960007Y-61332713D01*
X73868859Y-61259809D01*
X73765229Y-61149885D01*
X73722336Y-61041987D01*
X73717378Y-60934677D01*
X73757553Y-60727130D01*
X73855584Y-60563149D01*
X73995415Y-60456171D01*
X74160989Y-60419637D01*
X74297908Y-60448780D01*
G37*
G36*
X77986691Y-60667424D02*
G01*
X78136168Y-60756243D01*
X78219864Y-60910958D01*
X78243493Y-61113883D01*
X78210024Y-61333070D01*
X78107678Y-61489087D01*
X77933553Y-61584954D01*
X77758106Y-61618821D01*
X77618514Y-61624244D01*
X77522013Y-61613135D01*
X77498646Y-61600329D01*
X77482032Y-61528287D01*
X77469485Y-61390533D01*
X77461538Y-61214981D01*
X77458722Y-61029542D01*
X77461571Y-60862129D01*
X77470619Y-60740652D01*
X77481400Y-60697090D01*
X77549296Y-60661773D01*
X77684312Y-60641671D01*
X77765931Y-60639033D01*
X77986691Y-60667424D01*
G37*
G36*
X79828992Y-59020255D02*
G01*
X79858265Y-59046768D01*
X79895095Y-59092120D01*
X79897575Y-59138558D01*
X79856356Y-59204324D01*
X79762089Y-59307661D01*
X79683420Y-59387955D01*
X79557991Y-59511148D01*
X79457598Y-59602707D01*
X79400524Y-59646126D01*
X79395776Y-59647583D01*
X79343584Y-59615647D01*
X79303263Y-59573755D01*
X79281244Y-59527592D01*
X79298054Y-59469912D01*
X79363674Y-59384187D01*
X79488089Y-59253890D01*
X79509349Y-59232568D01*
X79643390Y-59101102D01*
X79729555Y-59028171D01*
X79785528Y-59004362D01*
X79828992Y-59020255D01*
G37*
G36*
X88370150Y-61730995D02*
G01*
X88464485Y-61795262D01*
X88495391Y-61865566D01*
X88535850Y-61999700D01*
X88578877Y-62168528D01*
X88617488Y-62342915D01*
X88644696Y-62493726D01*
X88653661Y-62584305D01*
X88613941Y-62612630D01*
X88518734Y-62651750D01*
X88404070Y-62689195D01*
X88305974Y-62712495D01*
X88276021Y-62715018D01*
X88221867Y-62695574D01*
X88120484Y-62649063D01*
X88105253Y-62641607D01*
X87951360Y-62518617D01*
X87868131Y-62334986D01*
X87851114Y-62167567D01*
X87885647Y-62012252D01*
X87975474Y-61878399D01*
X88099938Y-61778546D01*
X88238382Y-61725232D01*
X88370150Y-61730995D01*
G37*
G36*
X86222646Y-63349675D02*
G01*
X86333494Y-63419689D01*
X86439106Y-63523669D01*
X86543256Y-63632285D01*
X86609888Y-63680613D01*
X86664139Y-63679009D01*
X86725630Y-63641699D01*
X86893940Y-63573880D01*
X87082113Y-63572769D01*
X87252105Y-63635743D01*
X87310324Y-63682054D01*
X87403479Y-63836461D01*
X87425388Y-64020086D01*
X87379918Y-64178202D01*
X87328460Y-64227093D01*
X87214918Y-64312490D01*
X87057981Y-64421998D01*
X86876338Y-64543220D01*
X86688677Y-64663760D01*
X86513688Y-64771222D01*
X86370061Y-64853210D01*
X86334035Y-64871912D01*
X86299735Y-64839712D01*
X86227416Y-64740999D01*
X86127202Y-64590489D01*
X86009216Y-64402901D01*
X85991749Y-64374341D01*
X85861685Y-64150688D01*
X85760826Y-63956711D01*
X85697488Y-63809463D01*
X85679367Y-63733964D01*
X85721324Y-63589081D01*
X85828481Y-63455950D01*
X85972764Y-63361028D01*
X86107895Y-63330111D01*
X86222646Y-63349675D01*
G37*
G36*
X78597583Y-58105481D02*
G01*
X78700885Y-58129957D01*
X78863003Y-58167643D01*
X79050678Y-58210812D01*
X79069702Y-58215163D01*
X79240025Y-58255100D01*
X79370443Y-58287572D01*
X79437243Y-58306627D01*
X79440914Y-58308327D01*
X79458684Y-58357205D01*
X79488293Y-58472875D01*
X79520714Y-58618177D01*
X79583389Y-58915799D01*
X79387533Y-59116449D01*
X79279284Y-59222549D01*
X79197981Y-59293391D01*
X79166099Y-59312262D01*
X79109671Y-59300325D01*
X78989650Y-59274345D01*
X78867424Y-59247686D01*
X78719642Y-59213003D01*
X78615266Y-59184060D01*
X78581180Y-59169903D01*
X78565139Y-59118490D01*
X78534576Y-58998708D01*
X78495505Y-58834349D01*
X78487095Y-58797769D01*
X78443803Y-58609363D01*
X78405215Y-58443166D01*
X78379058Y-58332436D01*
X78377413Y-58325650D01*
X78367289Y-58265414D01*
X78386645Y-58256709D01*
X78448547Y-58304916D01*
X78543943Y-58394247D01*
X78667193Y-58527579D01*
X78726621Y-58639554D01*
X78739218Y-58733856D01*
X78775717Y-58877249D01*
X78868293Y-58978983D01*
X78991571Y-59029021D01*
X79120172Y-59017321D01*
X79228719Y-58933847D01*
X79232266Y-58928900D01*
X79295828Y-58773947D01*
X79275978Y-58632951D01*
X79183569Y-58525336D01*
X79029454Y-58470529D01*
X78974354Y-58467286D01*
X78843304Y-58422626D01*
X78682546Y-58288886D01*
X78666179Y-58272011D01*
X78565563Y-58163857D01*
X78526418Y-58109316D01*
X78543363Y-58095321D01*
X78597583Y-58105481D01*
G37*
G36*
X78234012Y-57221001D02*
G01*
X78507134Y-57258893D01*
X78851792Y-57330837D01*
X79064282Y-57381452D01*
X79404696Y-57467491D01*
X79665222Y-57542268D01*
X79858494Y-57613389D01*
X79997142Y-57688460D01*
X80093801Y-57775089D01*
X80161100Y-57880881D01*
X80211674Y-58013442D01*
X80232656Y-58084988D01*
X80333428Y-58334002D01*
X80498644Y-58555600D01*
X80511649Y-58569515D01*
X80614012Y-58673280D01*
X80701909Y-58741681D01*
X80802566Y-58787171D01*
X80943209Y-58822204D01*
X81141459Y-58857617D01*
X81425544Y-58917525D01*
X81633282Y-58993330D01*
X81782576Y-59095185D01*
X81891328Y-59233246D01*
X81929172Y-59304367D01*
X81992555Y-59482797D01*
X82015431Y-59685375D01*
X81999781Y-59938779D01*
X81984632Y-60050704D01*
X81949024Y-60288584D01*
X82202753Y-60413024D01*
X82456483Y-60537465D01*
X82557981Y-60400181D01*
X82646563Y-60301262D01*
X82762756Y-60216189D01*
X82923207Y-60136553D01*
X83144563Y-60053945D01*
X83409080Y-59970269D01*
X83752457Y-59881510D01*
X84030733Y-59846234D01*
X84258293Y-59866957D01*
X84449522Y-59946193D01*
X84618806Y-60086459D01*
X84713886Y-60198431D01*
X84857884Y-60385560D01*
X84943181Y-60272479D01*
X85131817Y-60096607D01*
X85372270Y-59999210D01*
X85576713Y-59978243D01*
X85695952Y-59984266D01*
X85813616Y-60007330D01*
X85950342Y-60054660D01*
X86126762Y-60133482D01*
X86363512Y-60251020D01*
X86380632Y-60259740D01*
X86933116Y-60541413D01*
X87167859Y-60426978D01*
X87303709Y-60366526D01*
X87445754Y-60317807D01*
X87609270Y-60278177D01*
X87809535Y-60244992D01*
X88061826Y-60215609D01*
X88381423Y-60187384D01*
X88683318Y-60164754D01*
X89037298Y-60141835D01*
X89311757Y-60130933D01*
X89521000Y-60133460D01*
X89679332Y-60150830D01*
X89801060Y-60184457D01*
X89900488Y-60235752D01*
X89975956Y-60292446D01*
X90089460Y-60400765D01*
X90171966Y-60517588D01*
X90229481Y-60661419D01*
X90268014Y-60850762D01*
X90293572Y-61104119D01*
X90305905Y-61308611D01*
X90336591Y-61907371D01*
X90507068Y-62096069D01*
X90652816Y-62299654D01*
X90737382Y-62510262D01*
X90751152Y-62702584D01*
X90746795Y-62727017D01*
X90723261Y-62819779D01*
X90680363Y-62975250D01*
X90625824Y-63165682D01*
X90602683Y-63244737D01*
X90493948Y-63552783D01*
X90368599Y-63780804D01*
X90216106Y-63943005D01*
X90025935Y-64053587D01*
X89993162Y-64066732D01*
X89859544Y-64110690D01*
X89739732Y-64126693D01*
X89594855Y-64116776D01*
X89454377Y-64094929D01*
X89263156Y-64067557D01*
X89129558Y-64065315D01*
X89019956Y-64089051D01*
X88972698Y-64107093D01*
X88839426Y-64151096D01*
X88656672Y-64197130D01*
X88499540Y-64228675D01*
X88331149Y-64261407D01*
X88233533Y-64294285D01*
X88183848Y-64339766D01*
X88159251Y-64410308D01*
X88158250Y-64414809D01*
X88095058Y-64565759D01*
X87965940Y-64729281D01*
X87765083Y-64910716D01*
X87486679Y-65115406D01*
X87178705Y-65315416D01*
X86923154Y-65471732D01*
X86729130Y-65582697D01*
X86580149Y-65656158D01*
X86459724Y-65699959D01*
X86351371Y-65721946D01*
X86316728Y-65725641D01*
X86147260Y-65728864D01*
X86019436Y-65694848D01*
X85915427Y-65634164D01*
X85802494Y-65528283D01*
X85659442Y-65346970D01*
X85494568Y-65101050D01*
X85443308Y-65018291D01*
X85324877Y-64826778D01*
X85223605Y-64668408D01*
X85149622Y-64558643D01*
X85113058Y-64512943D01*
X85111893Y-64512495D01*
X85072166Y-64545443D01*
X84993041Y-64633375D01*
X84904059Y-64741812D01*
X84713143Y-64952390D01*
X84520917Y-65093327D01*
X84313260Y-65166834D01*
X84076049Y-65175126D01*
X83795163Y-65120415D01*
X83456480Y-65004915D01*
X83391032Y-64978947D01*
X83156300Y-64880968D01*
X82990832Y-64801612D01*
X82874612Y-64728769D01*
X82787622Y-64650324D01*
X82726847Y-64577009D01*
X82633998Y-64463792D01*
X82566309Y-64415267D01*
X82497964Y-64416645D01*
X82465740Y-64427446D01*
X82256797Y-64459221D01*
X82012383Y-64417213D01*
X81748850Y-64306569D01*
X81482549Y-64132438D01*
X81452158Y-64108310D01*
X81335648Y-64019827D01*
X81261585Y-63986402D01*
X81202644Y-63999469D01*
X81171067Y-64020203D01*
X81043892Y-64092896D01*
X80893039Y-64134477D01*
X80700181Y-64146612D01*
X80446988Y-64130965D01*
X80232347Y-64105486D01*
X79859553Y-64046244D01*
X79570800Y-63975114D01*
X79355812Y-63884645D01*
X79204309Y-63767383D01*
X79106014Y-63615878D01*
X79050650Y-63422676D01*
X79030414Y-63234018D01*
X79028101Y-63193075D01*
X79732096Y-63193075D01*
X79735255Y-63247918D01*
X79757259Y-63286360D01*
X79814623Y-63314794D01*
X79923865Y-63339615D01*
X80101498Y-63367216D01*
X80227857Y-63384996D01*
X80481240Y-63416147D01*
X80650661Y-63426708D01*
X80744249Y-63416969D01*
X80765621Y-63404002D01*
X80785409Y-63342075D01*
X80813855Y-63203484D01*
X80847951Y-63005267D01*
X80884688Y-62764461D01*
X80907866Y-62598327D01*
X80943486Y-62338844D01*
X80976137Y-62110518D01*
X81003255Y-61930566D01*
X81022275Y-61816207D01*
X81028931Y-61785632D01*
X81080693Y-61751429D01*
X81175002Y-61770296D01*
X81286199Y-61830006D01*
X81388625Y-61918332D01*
X81434565Y-61978937D01*
X81479592Y-62073532D01*
X81507224Y-62193035D01*
X81521018Y-62361164D01*
X81524544Y-62579098D01*
X81539665Y-62895613D01*
X81590421Y-63141236D01*
X81685319Y-63335520D01*
X81832867Y-63498016D01*
X81969457Y-63601580D01*
X82098469Y-63684649D01*
X82196820Y-63740368D01*
X82234851Y-63755018D01*
X82291856Y-63732409D01*
X82405430Y-63672953D01*
X82551673Y-63589206D01*
X82560986Y-63583670D01*
X82707503Y-63492702D01*
X82819952Y-63416024D01*
X82874966Y-63369613D01*
X82875746Y-63368445D01*
X82867219Y-63307026D01*
X82814658Y-63201397D01*
X82776935Y-63142850D01*
X82721611Y-63056080D01*
X82684777Y-62971239D01*
X82662188Y-62865882D01*
X82649594Y-62717564D01*
X82642750Y-62503840D01*
X82641220Y-62425641D01*
X82628633Y-62129020D01*
X82597913Y-61900770D01*
X82541015Y-61715376D01*
X82449897Y-61547327D01*
X82316516Y-61371110D01*
X82304082Y-61356255D01*
X82158626Y-61227691D01*
X81952222Y-61100453D01*
X81717173Y-60990676D01*
X81485785Y-60914498D01*
X81377655Y-60893522D01*
X81257906Y-60877637D01*
X83140109Y-60877637D01*
X83154752Y-60940192D01*
X83203207Y-61075595D01*
X83280213Y-61270732D01*
X83380508Y-61512492D01*
X83498831Y-61787761D01*
X83571376Y-61952494D01*
X84016185Y-62953988D01*
X83634642Y-63520631D01*
X83484800Y-63745803D01*
X83383264Y-63906776D01*
X83323702Y-64016356D01*
X83299778Y-64087354D01*
X83305159Y-64132576D01*
X83321344Y-64154190D01*
X83407714Y-64210069D01*
X83554452Y-64279600D01*
X83731008Y-64350939D01*
X83906832Y-64412247D01*
X84051374Y-64451682D01*
X84110065Y-64459908D01*
X84165856Y-64443368D01*
X84242883Y-64385167D01*
X84349342Y-64276856D01*
X84493432Y-64109990D01*
X84683350Y-63876122D01*
X84713993Y-63837639D01*
X84815096Y-63707316D01*
X85491694Y-63707316D01*
X85507909Y-63837701D01*
X85564635Y-63995612D01*
X85666165Y-64196500D01*
X85816790Y-64455816D01*
X85856412Y-64521367D01*
X85987035Y-64732180D01*
X86102701Y-64910827D01*
X86193870Y-65043182D01*
X86251000Y-65115118D01*
X86263450Y-65124040D01*
X86316355Y-65100581D01*
X86434023Y-65035985D01*
X86601086Y-64939059D01*
X86802173Y-64818611D01*
X86890602Y-64764647D01*
X87155977Y-64597054D01*
X87348701Y-64460767D01*
X87479855Y-64343447D01*
X87560520Y-64232753D01*
X87601774Y-64116345D01*
X87614699Y-63981884D01*
X87614878Y-63958013D01*
X87572021Y-63727692D01*
X87448700Y-63542810D01*
X87252054Y-63413574D01*
X87226900Y-63403440D01*
X87084997Y-63357005D01*
X86976060Y-63350828D01*
X86848377Y-63383388D01*
X86824192Y-63391595D01*
X86698363Y-63429570D01*
X86633441Y-63430166D01*
X86604174Y-63394785D01*
X86531358Y-63308005D01*
X86399587Y-63225247D01*
X86243369Y-63163986D01*
X86104274Y-63141617D01*
X85896793Y-63183606D01*
X85706883Y-63295324D01*
X85570022Y-63455401D01*
X85563629Y-63467315D01*
X85511698Y-63589004D01*
X85491694Y-63707316D01*
X84815096Y-63707316D01*
X84979235Y-63495738D01*
X85240709Y-63143448D01*
X85492003Y-62790703D01*
X85726707Y-62447436D01*
X85857388Y-62247525D01*
X86812453Y-62247525D01*
X86854971Y-62584428D01*
X86975389Y-62881632D01*
X87163003Y-63132072D01*
X87407108Y-63328683D01*
X87696999Y-63464402D01*
X88021971Y-63532163D01*
X88371320Y-63524902D01*
X88653717Y-63462655D01*
X88810067Y-63398761D01*
X88952192Y-63317921D01*
X89046039Y-63260439D01*
X89123430Y-63250876D01*
X89230463Y-63286293D01*
X89259069Y-63298339D01*
X89456778Y-63368876D01*
X89626372Y-63404066D01*
X89744279Y-63399705D01*
X89767576Y-63389042D01*
X89807166Y-63328554D01*
X89861494Y-63205683D01*
X89920359Y-63049120D01*
X89973564Y-62887554D01*
X90010909Y-62749675D01*
X90022563Y-62671780D01*
X89984712Y-62599057D01*
X89893762Y-62525271D01*
X89890747Y-62523537D01*
X89798535Y-62444867D01*
X89727162Y-62319299D01*
X89673626Y-62135705D01*
X89634923Y-61882953D01*
X89608050Y-61549915D01*
X89603051Y-61457280D01*
X89589299Y-61232950D01*
X89572914Y-61043732D01*
X89555923Y-60909195D01*
X89540355Y-60848909D01*
X89539966Y-60848486D01*
X89481412Y-60839157D01*
X89350576Y-60841126D01*
X89168821Y-60853580D01*
X89020635Y-60868331D01*
X88775983Y-60891899D01*
X88528320Y-60909524D01*
X88316661Y-60918659D01*
X88239751Y-60919286D01*
X87853215Y-60953473D01*
X87518600Y-61061202D01*
X87241805Y-61236985D01*
X87028727Y-61475333D01*
X86885262Y-61770759D01*
X86817308Y-62117775D01*
X86812453Y-62247525D01*
X85857388Y-62247525D01*
X85938409Y-62123582D01*
X86120700Y-61829076D01*
X86267167Y-61573851D01*
X86371401Y-61367841D01*
X86426990Y-61220982D01*
X86434544Y-61171513D01*
X86395793Y-61105934D01*
X86276853Y-61017596D01*
X86073269Y-60903275D01*
X86041448Y-60886896D01*
X85861667Y-60798752D01*
X85708416Y-60730327D01*
X85604471Y-60691488D01*
X85578254Y-60686245D01*
X85529335Y-60724204D01*
X85441937Y-60828668D01*
X85326729Y-60985516D01*
X85194379Y-61180628D01*
X85133339Y-61275155D01*
X85000258Y-61482010D01*
X84884654Y-61657256D01*
X84795982Y-61786900D01*
X84743701Y-61856948D01*
X84734498Y-61865304D01*
X84708205Y-61824855D01*
X84651863Y-61712590D01*
X84572590Y-61543494D01*
X84477502Y-61332555D01*
X84426820Y-61217379D01*
X84306891Y-60949547D01*
X84214156Y-60759781D01*
X84142707Y-60637713D01*
X84086637Y-60572977D01*
X84049755Y-60555611D01*
X83948745Y-60562911D01*
X83798025Y-60597487D01*
X83621629Y-60650830D01*
X83443593Y-60714433D01*
X83287950Y-60779786D01*
X83178735Y-60838381D01*
X83140109Y-60877637D01*
X81257906Y-60877637D01*
X81147837Y-60863036D01*
X81174255Y-60692020D01*
X81192492Y-60567901D01*
X81218619Y-60382578D01*
X81248094Y-60168450D01*
X81260130Y-60079571D01*
X81286854Y-59873943D01*
X81298872Y-59742662D01*
X81294643Y-59666571D01*
X81272627Y-59626515D01*
X81231281Y-59603339D01*
X81221503Y-59599416D01*
X81127009Y-59574159D01*
X80976905Y-59546563D01*
X80795974Y-59519688D01*
X80608996Y-59496596D01*
X80440752Y-59480346D01*
X80316023Y-59474001D01*
X80259601Y-59480608D01*
X80247593Y-59531349D01*
X80224723Y-59663398D01*
X80192733Y-59864489D01*
X80153368Y-60122352D01*
X80108371Y-60424718D01*
X80059484Y-60759319D01*
X80008451Y-61113885D01*
X79957016Y-61476148D01*
X79906921Y-61833838D01*
X79859910Y-62174688D01*
X79817726Y-62486428D01*
X79782113Y-62756789D01*
X79754813Y-62973503D01*
X79737571Y-63124300D01*
X79732096Y-63193075D01*
X79028101Y-63193075D01*
X79012391Y-62915051D01*
X78769578Y-63026043D01*
X78422445Y-63143916D01*
X78039902Y-63205531D01*
X77664767Y-63205064D01*
X77555357Y-63191190D01*
X77366296Y-63168748D01*
X77125205Y-63151579D01*
X76874444Y-63142425D01*
X76789847Y-63141620D01*
X76547817Y-63136968D01*
X76374175Y-63120952D01*
X76243194Y-63089824D01*
X76143887Y-63047514D01*
X76023474Y-62978565D01*
X75941907Y-62918104D01*
X75928627Y-62902803D01*
X75875444Y-62883547D01*
X75819197Y-62920041D01*
X75597299Y-63066546D01*
X75355308Y-63129928D01*
X75082818Y-63111278D01*
X74805077Y-63026115D01*
X74599746Y-62957612D01*
X74397395Y-62922655D01*
X74151384Y-62913389D01*
X74136059Y-62913466D01*
X73795322Y-62898739D01*
X73500863Y-62842981D01*
X73209828Y-62736336D01*
X73064231Y-62666938D01*
X72795006Y-62531224D01*
X72600230Y-62693956D01*
X72360633Y-62862308D01*
X72078147Y-63010311D01*
X71774359Y-63131130D01*
X71470858Y-63217928D01*
X71189232Y-63263872D01*
X70951067Y-63262125D01*
X70863455Y-63243849D01*
X70691833Y-63175155D01*
X70544482Y-63071859D01*
X70405640Y-62918246D01*
X70259543Y-62698606D01*
X70181803Y-62564386D01*
X70037835Y-62271602D01*
X69964785Y-62027092D01*
X69960674Y-61819109D01*
X70023526Y-61635910D01*
X70024989Y-61633253D01*
X70059771Y-61549293D01*
X70049373Y-61471352D01*
X69987750Y-61360484D01*
X69981040Y-61349982D01*
X69840057Y-61049747D01*
X69776973Y-60723933D01*
X69779140Y-60681052D01*
X70483740Y-60681052D01*
X70525664Y-60844196D01*
X70633218Y-61016122D01*
X70814532Y-61214319D01*
X70837437Y-61236648D01*
X70972409Y-61374845D01*
X71076008Y-61495544D01*
X71132351Y-61579594D01*
X71138103Y-61599113D01*
X71099751Y-61681730D01*
X71007167Y-61771749D01*
X70894060Y-61842185D01*
X70804039Y-61866542D01*
X70721645Y-61883900D01*
X70694243Y-61942915D01*
X70722551Y-62053999D01*
X70807286Y-62227566D01*
X70832001Y-62272363D01*
X71004931Y-62581591D01*
X71201350Y-62548911D01*
X71365347Y-62511850D01*
X71556342Y-62455300D01*
X71640665Y-62425912D01*
X71938447Y-62285615D01*
X72178670Y-62112054D01*
X72351011Y-61915777D01*
X72445149Y-61707333D01*
X72459860Y-61588844D01*
X72422361Y-61396748D01*
X72305865Y-61199189D01*
X72105010Y-60987820D01*
X72034001Y-60925933D01*
X71968789Y-60863338D01*
X72664551Y-60863338D01*
X72703753Y-61183527D01*
X72824176Y-61484072D01*
X73019359Y-61751513D01*
X73282839Y-61972392D01*
X73446772Y-62065394D01*
X73657034Y-62137197D01*
X73914986Y-62181123D01*
X74182188Y-62194126D01*
X74420198Y-62173158D01*
X74513413Y-62149926D01*
X74635300Y-62118154D01*
X74715040Y-62130783D01*
X74788821Y-62186436D01*
X74926872Y-62290936D01*
X75081575Y-62377351D01*
X75216346Y-62426397D01*
X75253109Y-62431195D01*
X75318657Y-62393014D01*
X75413702Y-62286690D01*
X75524246Y-62127889D01*
X75524577Y-62127365D01*
X75641734Y-61929710D01*
X75702017Y-61793091D01*
X75708491Y-61705582D01*
X75664220Y-61655257D01*
X75647761Y-61647910D01*
X75569934Y-61569254D01*
X75525547Y-61412961D01*
X75514596Y-61189694D01*
X75537081Y-60910120D01*
X75592999Y-60584904D01*
X75648025Y-60351184D01*
X75697819Y-60135175D01*
X75713426Y-59992458D01*
X75694447Y-59908152D01*
X75640484Y-59867380D01*
X75635036Y-59865668D01*
X75520395Y-59838865D01*
X75345329Y-59805447D01*
X75143040Y-59771064D01*
X74946726Y-59741367D01*
X74792964Y-59722339D01*
X74648713Y-59699899D01*
X74458710Y-59659884D01*
X74292089Y-59618299D01*
X74102034Y-59572539D01*
X73956463Y-59556942D01*
X73811149Y-59569326D01*
X73705378Y-59589343D01*
X73375176Y-59703474D01*
X73099115Y-59893351D01*
X72882507Y-60153900D01*
X72730664Y-60480050D01*
X72713031Y-60536964D01*
X72664551Y-60863338D01*
X71968789Y-60863338D01*
X71879000Y-60777153D01*
X71809905Y-60659821D01*
X71826549Y-60566557D01*
X71928767Y-60489983D01*
X72023326Y-60451641D01*
X72143990Y-60398454D01*
X72215523Y-60344753D01*
X72223977Y-60325575D01*
X72201485Y-60257632D01*
X72142858Y-60136830D01*
X72070538Y-60006370D01*
X71981843Y-59862694D01*
X71913312Y-59783642D01*
X71841491Y-59750091D01*
X71747446Y-59742938D01*
X71497960Y-59772523D01*
X71238964Y-59855713D01*
X70990442Y-59980236D01*
X70772380Y-60133823D01*
X70604764Y-60304206D01*
X70507578Y-60479114D01*
X70499318Y-60509200D01*
X70483740Y-60681052D01*
X69779140Y-60681052D01*
X69793533Y-60396179D01*
X69888606Y-60096096D01*
X70060556Y-59833989D01*
X70307867Y-59591625D01*
X70611936Y-59379452D01*
X70954159Y-59207916D01*
X71315933Y-59087465D01*
X71678653Y-59028546D01*
X71797001Y-59024386D01*
X72082053Y-59056663D01*
X72305380Y-59155755D01*
X72452371Y-59294472D01*
X72547467Y-59415367D01*
X72787349Y-59233807D01*
X73140305Y-59024196D01*
X73529988Y-58895363D01*
X73937965Y-58851525D01*
X74301300Y-58887369D01*
X74476062Y-58921524D01*
X74699755Y-58963936D01*
X74928355Y-59006274D01*
X74962267Y-59012452D01*
X75155480Y-59048632D01*
X75319690Y-59081334D01*
X75427486Y-59105032D01*
X75446189Y-59109989D01*
X75488158Y-59112823D01*
X75513000Y-59078578D01*
X75525066Y-58989612D01*
X75528359Y-58843648D01*
X76253879Y-58843648D01*
X76256935Y-59025020D01*
X76265118Y-59266906D01*
X76278572Y-59577618D01*
X76297443Y-59965465D01*
X76321877Y-60438755D01*
X76323517Y-60469923D01*
X76345892Y-60882020D01*
X76368003Y-61265158D01*
X76389155Y-61608962D01*
X76408651Y-61903056D01*
X76425793Y-62137065D01*
X76439886Y-62300613D01*
X76450233Y-62383326D01*
X76452492Y-62390810D01*
X76514014Y-62413988D01*
X76654324Y-62427537D01*
X76858156Y-62430194D01*
X76914704Y-62429074D01*
X77141729Y-62429522D01*
X77364410Y-62440419D01*
X77543582Y-62459571D01*
X77582527Y-62466503D01*
X77944800Y-62495067D01*
X78325837Y-62434331D01*
X78361523Y-62424424D01*
X78565698Y-62337553D01*
X78785164Y-62199834D01*
X78985171Y-62036392D01*
X79130966Y-61872353D01*
X79136537Y-61864092D01*
X79285343Y-61564214D01*
X79358578Y-61242725D01*
X79358877Y-60916989D01*
X79288874Y-60604369D01*
X79151203Y-60322228D01*
X78948500Y-60087931D01*
X78856131Y-60015860D01*
X78620014Y-59893105D01*
X78333368Y-59806309D01*
X78027087Y-59759853D01*
X77732066Y-59758116D01*
X77479199Y-59805479D01*
X77448791Y-59816327D01*
X77406125Y-59821209D01*
X77382238Y-59782572D01*
X77371964Y-59682397D01*
X77370073Y-59541728D01*
X77365624Y-59331137D01*
X77354020Y-59083699D01*
X77339540Y-58875710D01*
X77309006Y-58514498D01*
X76832012Y-58515221D01*
X76623745Y-58519430D01*
X76447500Y-58530183D01*
X76326935Y-58545649D01*
X76290004Y-58557124D01*
X76274011Y-58579530D01*
X76262563Y-58629213D01*
X76255803Y-58714483D01*
X76253879Y-58843648D01*
X75528359Y-58843648D01*
X75528706Y-58828288D01*
X75528809Y-58775000D01*
X75541699Y-58514363D01*
X75586864Y-58319683D01*
X75674050Y-58165223D01*
X75812532Y-58025638D01*
X75929455Y-57942634D01*
X76000371Y-57911052D01*
X78106407Y-57911052D01*
X78126196Y-58064198D01*
X78175585Y-58304662D01*
X78250395Y-58616183D01*
X78432341Y-59340706D01*
X78708953Y-59406356D01*
X78898353Y-59464549D01*
X79040905Y-59549039D01*
X79175282Y-59677824D01*
X79281351Y-59787746D01*
X79362492Y-59862422D01*
X79395502Y-59883643D01*
X79438948Y-59852067D01*
X79533776Y-59766349D01*
X79665502Y-59640004D01*
X79802594Y-59503776D01*
X80179181Y-59123910D01*
X79961121Y-58916886D01*
X79822927Y-58769822D01*
X79738371Y-58628873D01*
X79681333Y-58449616D01*
X79677850Y-58435135D01*
X79612638Y-58160409D01*
X78888116Y-57978463D01*
X78563366Y-57900675D01*
X78327017Y-57852677D01*
X78177933Y-57834270D01*
X78116021Y-57844089D01*
X78106407Y-57911052D01*
X76000371Y-57911052D01*
X76064442Y-57882518D01*
X76234945Y-57841595D01*
X76458418Y-57816169D01*
X76752314Y-57802547D01*
X76879186Y-57799812D01*
X77450566Y-57790080D01*
X77540153Y-57599827D01*
X77627578Y-57442815D01*
X77729210Y-57328069D01*
X77856516Y-57253946D01*
X78020962Y-57218805D01*
X78234012Y-57221001D01*
G37*
%TD*%
M02*
