%TF.GenerationSoftware,KiCad,Pcbnew,10.0.3*%
%TF.CreationDate,2026-06-05T10:07:03+05:30*%
%TF.ProjectId,Tamagotchi,54616d61-676f-4746-9368-692e6b696361,rev?*%
%TF.SameCoordinates,Original*%
%TF.FileFunction,Copper,L2,Bot*%
%TF.FilePolarity,Positive*%
%FSLAX46Y46*%
G04 Gerber Fmt 4.6, Leading zero omitted, Abs format (unit mm)*
G04 Created by KiCad (PCBNEW 10.0.3) date 2026-06-05 10:07:03*
%MOMM*%
%LPD*%
G01*
G04 APERTURE LIST*
G04 Aperture macros list*
%AMRoundRect*
0 Rectangle with rounded corners*
0 $1 Rounding radius*
0 $2 $3 $4 $5 $6 $7 $8 $9 X,Y pos of 4 corners*
0 Add a 4 corners polygon primitive as box body*
4,1,4,$2,$3,$4,$5,$6,$7,$8,$9,$2,$3,0*
0 Add four circle primitives for the rounded corners*
1,1,$1+$1,$2,$3*
1,1,$1+$1,$4,$5*
1,1,$1+$1,$6,$7*
1,1,$1+$1,$8,$9*
0 Add four rect primitives between the rounded corners*
20,1,$1+$1,$2,$3,$4,$5,0*
20,1,$1+$1,$4,$5,$6,$7,0*
20,1,$1+$1,$6,$7,$8,$9,0*
20,1,$1+$1,$8,$9,$2,$3,0*%
G04 Aperture macros list end*
%TA.AperFunction,ComponentPad*%
%ADD10C,1.600000*%
%TD*%
%TA.AperFunction,ComponentPad*%
%ADD11C,1.800000*%
%TD*%
%TA.AperFunction,ComponentPad*%
%ADD12R,1.700000X1.700000*%
%TD*%
%TA.AperFunction,ComponentPad*%
%ADD13C,1.700000*%
%TD*%
%TA.AperFunction,ComponentPad*%
%ADD14C,2.200000*%
%TD*%
%TA.AperFunction,ComponentPad*%
%ADD15C,1.524000*%
%TD*%
%TA.AperFunction,SMDPad,CuDef*%
%ADD16RoundRect,0.152400X1.063600X0.609600X-1.063600X0.609600X-1.063600X-0.609600X1.063600X-0.609600X0*%
%TD*%
%TA.AperFunction,SMDPad,CuDef*%
%ADD17RoundRect,0.152400X-1.063600X-0.609600X1.063600X-0.609600X1.063600X0.609600X-1.063600X0.609600X0*%
%TD*%
%TA.AperFunction,ComponentPad*%
%ADD18RoundRect,0.250000X1.000000X0.300000X-1.000000X0.300000X-1.000000X-0.300000X1.000000X-0.300000X0*%
%TD*%
%TA.AperFunction,SMDPad,CuDef*%
%ADD19C,1.700000*%
%TD*%
%TA.AperFunction,ViaPad*%
%ADD20C,0.600000*%
%TD*%
%TA.AperFunction,Conductor*%
%ADD21C,0.200000*%
%TD*%
G04 APERTURE END LIST*
D10*
%TO.P,SW3,1,1_1*%
%TO.N,GND*%
X92350000Y-105200000D03*
X97150000Y-105200000D03*
%TO.P,SW3,2,2_2*%
%TO.N,Net-(U1-GPIO4_A2_D2)*%
X92350000Y-108200000D03*
X97150000Y-108200000D03*
%TD*%
%TO.P,SW1,1,1_1*%
%TO.N,GND*%
X63350000Y-105200000D03*
X68150000Y-105200000D03*
%TO.P,SW1,2,2_2*%
%TO.N,Net-(U1-GPIO2_A0_D0)*%
X63350000Y-108200000D03*
X68150000Y-108200000D03*
%TD*%
%TO.P,SW2,1,1_1*%
%TO.N,GND*%
X77850000Y-107200000D03*
X82650000Y-107200000D03*
%TO.P,SW2,2,2_2*%
%TO.N,Net-(U1-GPIO3_A1_D1)*%
X77850000Y-110200000D03*
X82650000Y-110200000D03*
%TD*%
D11*
%TO.P,U2,1,GND_1*%
%TO.N,GND*%
X76440000Y-70240000D03*
%TO.P,U2,2,VCC_2*%
%TO.N,+3V3*%
X78980000Y-70240000D03*
%TO.P,U2,3,SCL_3*%
%TO.N,Net-(U1-GPIO7_D5_SCL)*%
X81520000Y-70240000D03*
%TO.P,U2,4,SDA_4*%
%TO.N,Net-(U1-GPIO6_D4_SDA)*%
X84060000Y-70240000D03*
%TD*%
D12*
%TO.P,BT1,1,+_1*%
%TO.N,+BATT*%
X81280000Y-43180000D03*
D13*
%TO.P,BT1,2,-_2*%
%TO.N,GND*%
X78740000Y-43180000D03*
%TD*%
D14*
%TO.P,BUZZER1,1,+_1*%
%TO.N,Net-(BUZZER1-+)*%
X83500000Y-82700000D03*
%TO.P,BUZZER1,2,-_2*%
%TO.N,GND*%
X77000000Y-82700000D03*
%TD*%
D15*
%TO.P,U1,1,GPIO2_A0_D0_1*%
%TO.N,Net-(U1-GPIO2_A0_D0)*%
X72630000Y-121740000D03*
D16*
X71795000Y-121740000D03*
D15*
%TO.P,U1,2,GPIO3_A1_D1_2*%
%TO.N,Net-(U1-GPIO3_A1_D1)*%
X72630000Y-119200000D03*
D16*
X71795000Y-119200000D03*
D15*
%TO.P,U1,3,GPIO4_A2_D2_3*%
%TO.N,Net-(U1-GPIO4_A2_D2)*%
X72630000Y-116660000D03*
D16*
X71795000Y-116660000D03*
D15*
%TO.P,U1,4,GPIO5_A3_D3_4*%
%TO.N,unconnected-(U1-GPIO5_A3_D3-Pad4)*%
X72630000Y-114120000D03*
D16*
%TO.N,unconnected-(U1-GPIO5_A3_D3-Pad4)_1*%
X71795000Y-114120000D03*
D15*
%TO.P,U1,5,GPIO6_D4_SDA_5*%
%TO.N,Net-(U1-GPIO6_D4_SDA)*%
X72630000Y-111580000D03*
D16*
X71795000Y-111580000D03*
D15*
%TO.P,U1,6,GPIO7_D5_SCL_6*%
%TO.N,Net-(U1-GPIO7_D5_SCL)*%
X72630000Y-109040000D03*
D16*
X71795000Y-109040000D03*
D15*
%TO.P,U1,7,GPIO21_D6_TX_7*%
%TO.N,unconnected-(U1-GPIO21_D6_TX-Pad7)*%
X72630000Y-106500000D03*
D16*
%TO.N,unconnected-(U1-GPIO21_D6_TX-Pad7)_1*%
X71795000Y-106500000D03*
D17*
%TO.P,U1,8,GPIO20_D7_RX_8*%
%TO.N,unconnected-(U1-GPIO20_D7_RX-Pad8)_1*%
X88705000Y-106500000D03*
D15*
%TO.N,unconnected-(U1-GPIO20_D7_RX-Pad8)*%
X87870000Y-106500000D03*
D17*
%TO.P,U1,9,GPIO8_D8_SCK_9*%
%TO.N,unconnected-(U1-GPIO8_D8_SCK-Pad9)_1*%
X88705000Y-109040000D03*
D15*
%TO.N,unconnected-(U1-GPIO8_D8_SCK-Pad9)*%
X87870000Y-109040000D03*
D17*
%TO.P,U1,10,GPIO9_D9_MISO_10*%
%TO.N,unconnected-(U1-GPIO9_D9_MISO-Pad10)*%
X88705000Y-111580000D03*
D15*
%TO.N,unconnected-(U1-GPIO9_D9_MISO-Pad10)_1*%
X87870000Y-111580000D03*
D17*
%TO.P,U1,11,GPIO10_D10_MOSI_11*%
%TO.N,Net-(BUZZER1-+)*%
X88705000Y-114120000D03*
D15*
X87870000Y-114120000D03*
D17*
%TO.P,U1,12,3V3_12*%
%TO.N,+3V3*%
X88705000Y-116660000D03*
D15*
X87870000Y-116660000D03*
D17*
%TO.P,U1,13,GND_13*%
%TO.N,GND*%
X88705000Y-119200000D03*
D15*
X87870000Y-119200000D03*
D17*
%TO.P,U1,14,VBUS_14*%
%TO.N,+5V*%
X88705000Y-121740000D03*
D15*
X87870000Y-121740000D03*
D18*
%TO.P,U1,15,BAT_15*%
%TO.N,+BATT*%
X75805000Y-114506000D03*
%TO.P,U1,16,GND_16*%
%TO.N,GND*%
X75805000Y-116411000D03*
D19*
%TO.P,U1,17*%
%TO.N,N/C*%
X78980000Y-122756000D03*
%TO.P,U1,18*%
X81520000Y-122756000D03*
%TO.P,U1,19*%
X78980000Y-120216000D03*
%TO.P,U1,20*%
X81520000Y-120216000D03*
%TO.P,U1,21*%
X78980000Y-117676000D03*
%TO.P,U1,22*%
X81520000Y-117676000D03*
%TD*%
D20*
%TO.N,Net-(U1-GPIO4_A2_D2)*%
X92300000Y-111150000D03*
%TO.N,+3V3*%
X86050000Y-116600000D03*
X76400000Y-73500000D03*
%TO.N,Net-(U1-GPIO7_D5_SCL)*%
X80550000Y-72300000D03*
X74200000Y-109000000D03*
%TO.N,Net-(BUZZER1-+)*%
X84700000Y-84600000D03*
X85450000Y-111650000D03*
%TD*%
%TO.N,Net-(U1-GPIO4_A2_D2)*%
D21*
X86982000Y-110518000D02*
X86650000Y-110850000D01*
X86650000Y-116848529D02*
X84672529Y-118826000D01*
X86650000Y-110850000D02*
X86650000Y-116848529D01*
X84672529Y-118826000D02*
X74796000Y-118826000D01*
X91668000Y-110518000D02*
X86982000Y-110518000D01*
X92300000Y-111150000D02*
X91668000Y-110518000D01*
X74796000Y-118826000D02*
X72630000Y-116660000D01*
%TO.N,+3V3*%
X86050000Y-83150000D02*
X76400000Y-73500000D01*
X86050000Y-116600000D02*
X86050000Y-83150000D01*
%TO.N,Net-(U1-GPIO7_D5_SCL)*%
X74200000Y-114467895D02*
X73069895Y-115598000D01*
X70279000Y-117461214D02*
X70539786Y-117722000D01*
X86450000Y-109751686D02*
X86450000Y-78200000D01*
X70539786Y-117722000D02*
X73069895Y-117722000D01*
X83786105Y-121366000D02*
X87430105Y-117722000D01*
X73069895Y-117722000D02*
X76713895Y-121366000D01*
X92900000Y-114782214D02*
X92900000Y-110901471D01*
X74200000Y-109000000D02*
X74200000Y-114467895D01*
X92116529Y-110118000D02*
X86816314Y-110118000D01*
X70279000Y-115858786D02*
X70279000Y-117461214D01*
X76713895Y-121366000D02*
X83786105Y-121366000D01*
X92900000Y-110901471D02*
X92116529Y-110118000D01*
X89960214Y-117722000D02*
X92900000Y-114782214D01*
X73069895Y-115598000D02*
X70539786Y-115598000D01*
X70539786Y-115598000D02*
X70279000Y-115858786D01*
X87430105Y-117722000D02*
X89960214Y-117722000D01*
X86816314Y-110118000D02*
X86450000Y-109751686D01*
X86450000Y-78200000D02*
X80550000Y-72300000D01*
%TO.N,+BATT*%
X75100000Y-113801000D02*
X75100000Y-49360000D01*
X75805000Y-114506000D02*
X75100000Y-113801000D01*
X75100000Y-49360000D02*
X81280000Y-43180000D01*
%TO.N,Net-(BUZZER1-+)*%
X85450000Y-85350000D02*
X84700000Y-84600000D01*
X85450000Y-111650000D02*
X85450000Y-85350000D01*
%TD*%
M02*
