%TF.GenerationSoftware,KiCad,Pcbnew,10.0.3*%
%TF.CreationDate,2026-06-05T10:07:03+05:30*%
%TF.ProjectId,Tamagotchi,54616d61-676f-4746-9368-692e6b696361,rev?*%
%TF.SameCoordinates,Original*%
%TF.FileFunction,Profile,NP*%
%FSLAX46Y46*%
G04 Gerber Fmt 4.6, Leading zero omitted, Abs format (unit mm)*
G04 Created by KiCad (PCBNEW 10.0.3) date 2026-06-05 10:07:03*
%MOMM*%
%LPD*%
G01*
G04 APERTURE LIST*
%TA.AperFunction,Profile*%
%ADD10C,0.000105*%
%TD*%
G04 APERTURE END LIST*
D10*
X46519160Y-89483299D02*
X46525560Y-90654128D01*
X46525560Y-90654128D02*
X46545748Y-91824765D01*
X46526862Y-88300679D02*
X46519160Y-89483299D01*
X46545748Y-91824765D02*
X46578990Y-92559147D01*
X46548956Y-87118239D02*
X46526862Y-88300679D01*
X46578990Y-92559147D02*
X46644614Y-93291323D01*
X46583700Y-86311501D02*
X46548956Y-87118239D01*
X46644614Y-93291323D02*
X46871848Y-95030633D01*
X46647919Y-85506571D02*
X46583700Y-86311501D01*
X46810705Y-84017577D02*
X46647919Y-85506571D01*
X46871848Y-95030633D02*
X47163032Y-96760400D01*
X47006210Y-82532531D02*
X46810705Y-84017577D01*
X47163032Y-96760400D02*
X47501790Y-98368869D01*
X47229504Y-81092332D02*
X47006210Y-82532531D01*
X47487126Y-79657881D02*
X47229504Y-81092332D01*
X47501790Y-98368869D02*
X47912208Y-99960552D01*
X47780931Y-78219428D02*
X47487126Y-79657881D01*
X47912208Y-99960552D02*
X48384991Y-101501913D01*
X48108728Y-76788339D02*
X47780931Y-78219428D01*
X48384991Y-101501913D02*
X48927814Y-103020033D01*
X48483534Y-75304800D02*
X48108728Y-76788339D01*
X48889306Y-73829449D02*
X48483534Y-75304800D01*
X48927814Y-103020033D02*
X49554667Y-104556996D01*
X49554667Y-104556996D02*
X50245401Y-106066311D01*
X49669373Y-71302411D02*
X48889306Y-73829449D01*
X50245401Y-106066311D02*
X51275315Y-108041733D01*
X50552631Y-68809572D02*
X49669373Y-71302411D01*
X51275315Y-108041733D02*
X52423385Y-109950926D01*
X51537605Y-66355146D02*
X50552631Y-68809572D01*
X52423385Y-109950926D02*
X53673937Y-111766378D01*
X52637520Y-63903941D02*
X51537605Y-66355146D01*
X53673937Y-111766378D02*
X55035890Y-113499803D01*
X53832692Y-61497746D02*
X52637520Y-63903941D01*
X55035890Y-113499803D02*
X56472368Y-115106752D01*
X55121275Y-59140241D02*
X53832692Y-61497746D01*
X56433271Y-56952867D02*
X55121275Y-59140241D01*
X56472368Y-115106752D02*
X58008964Y-116618240D01*
X57833583Y-54820944D02*
X56433271Y-56952867D01*
X58008964Y-116618240D02*
X59589928Y-117975873D01*
X59319896Y-52748051D02*
X57833583Y-54820944D01*
X59589928Y-117975873D02*
X61263245Y-119217881D01*
X60715630Y-50995749D02*
X59319896Y-52748051D01*
X61263245Y-119217881D02*
X62705308Y-120142849D01*
X62214302Y-49330598D02*
X60715630Y-50995749D01*
X62705308Y-120142849D02*
X64204741Y-120971623D01*
X63810462Y-47758656D02*
X62214302Y-49330598D01*
X64204741Y-120971623D02*
X65848897Y-121755782D01*
X65504492Y-46289625D02*
X63810462Y-47758656D01*
X65848897Y-121755782D02*
X67533276Y-122449354D01*
X67292421Y-44936459D02*
X65504492Y-46289625D01*
X67533276Y-122449354D02*
X69295045Y-123066217D01*
X68444748Y-44170520D02*
X67292421Y-44936459D01*
X69295045Y-123066217D02*
X71087118Y-123588497D01*
X69638067Y-43470156D02*
X68444748Y-44170520D01*
X70868663Y-42837576D02*
X69638067Y-43470156D01*
X71087118Y-123588497D02*
X72885173Y-124008528D01*
X72072072Y-42304111D02*
X70868663Y-42837576D01*
X72885173Y-124008528D02*
X74703582Y-124329127D01*
X73304905Y-41842786D02*
X72072072Y-42304111D01*
X74562881Y-41455178D02*
X73304905Y-41842786D01*
X74703582Y-124329127D02*
X75285190Y-124410701D01*
X75285190Y-124410701D02*
X75867977Y-124483300D01*
X75825829Y-41148045D02*
X74562881Y-41455178D01*
X75867977Y-124483300D02*
X76418650Y-124542471D01*
X76418650Y-124542471D02*
X76970310Y-124591540D01*
X76970310Y-124591540D02*
X77548571Y-124632590D01*
X77105264Y-40919108D02*
X75825829Y-41148045D01*
X77548571Y-124632590D02*
X78127447Y-124663611D01*
X78127447Y-124663611D02*
X78794063Y-124689738D01*
X78396344Y-40769215D02*
X77105264Y-40919108D01*
X78794063Y-124689738D02*
X79460931Y-124708264D01*
X79065181Y-40725202D02*
X78396344Y-40769215D01*
X79460931Y-124708264D02*
X81625690Y-124695490D01*
X79735197Y-40706785D02*
X79065181Y-40725202D01*
X80493469Y-40710457D02*
X79735197Y-40706785D01*
X81251371Y-40734211D02*
X80493469Y-40710457D01*
X81625690Y-124695490D02*
X83786338Y-124561587D01*
X82014463Y-40778301D02*
X81251371Y-40734211D01*
X82776109Y-40842481D02*
X82014463Y-40778301D01*
X83460723Y-40921664D02*
X82776109Y-40842481D01*
X83786338Y-124561587D02*
X85885378Y-124308646D01*
X84142043Y-41025363D02*
X83460723Y-40921664D01*
X85305654Y-41264617D02*
X84142043Y-41025363D01*
X85885378Y-124308646D02*
X87965444Y-123930098D01*
X86450453Y-41581879D02*
X85305654Y-41264617D01*
X87660681Y-41998017D02*
X86450453Y-41581879D01*
X87965444Y-123930098D02*
X89984780Y-123434572D01*
X88846634Y-42478974D02*
X87660681Y-41998017D01*
X89984780Y-123434572D02*
X91970046Y-122816529D01*
X90054096Y-43044976D02*
X88846634Y-42478974D01*
X91230466Y-43673040D02*
X90054096Y-43044976D01*
X91970046Y-122816529D02*
X93897095Y-122082961D01*
X92384753Y-44367577D02*
X91230466Y-43673040D01*
X93502513Y-45119503D02*
X92384753Y-44367577D01*
X93897095Y-122082961D02*
X95774388Y-121230084D01*
X94829750Y-46116783D02*
X93502513Y-45119503D01*
X95774388Y-121230084D02*
X96803207Y-120699202D01*
X96101298Y-47184195D02*
X94829750Y-46116783D01*
X96803207Y-120699202D02*
X97811594Y-120130455D01*
X97355676Y-48352335D02*
X96101298Y-47184195D01*
X97811594Y-120130455D02*
X98753351Y-119548687D01*
X98551317Y-49580543D02*
X97355676Y-48352335D01*
X98753351Y-119548687D02*
X99669527Y-118927416D01*
X99669527Y-118927416D02*
X100563796Y-118264037D01*
X99760045Y-50946097D02*
X98551317Y-49580543D01*
X100563796Y-118264037D02*
X101429248Y-117563490D01*
X100904969Y-52365584D02*
X99760045Y-50946097D01*
X101429248Y-117563490D02*
X102314691Y-116787760D01*
X102088596Y-53961567D02*
X100904969Y-52365584D01*
X102314691Y-116787760D02*
X103171843Y-115980895D01*
X103171843Y-115980895D02*
X104640030Y-114456867D01*
X103214934Y-55598485D02*
X102088596Y-53961567D01*
X104640030Y-114456867D02*
X106010968Y-112844789D01*
X104696502Y-57942860D02*
X103214934Y-55598485D01*
X106010968Y-112844789D02*
X107279389Y-111150865D01*
X106076544Y-60348380D02*
X104696502Y-57942860D01*
X107279389Y-111150865D02*
X108462544Y-109353772D01*
X107360037Y-62823106D02*
X106076544Y-60348380D01*
X108462544Y-109353772D02*
X109537700Y-107490068D01*
X108538320Y-65349606D02*
X107360037Y-62823106D01*
X109537700Y-107490068D02*
X110501107Y-105566197D01*
X109611257Y-67927937D02*
X108538320Y-65349606D01*
X110501107Y-105566197D02*
X111360010Y-103566133D01*
X110574998Y-70549032D02*
X109611257Y-67927937D01*
X111360010Y-103566133D02*
X112100979Y-101519428D01*
X111426055Y-73203774D02*
X110574998Y-70549032D01*
X112100979Y-101519428D02*
X112721461Y-99433042D01*
X112164316Y-75892079D02*
X111426055Y-73203774D01*
X112698316Y-78173475D02*
X112164316Y-75892079D01*
X112721461Y-99433042D02*
X113222967Y-97303157D01*
X113154582Y-80471689D02*
X112698316Y-78173475D01*
X113222967Y-97303157D02*
X113601501Y-95148018D01*
X113505206Y-82659143D02*
X113154582Y-80471689D01*
X113601501Y-95148018D02*
X113855887Y-92974712D01*
X113767709Y-84858911D02*
X113505206Y-82659143D01*
X113855887Y-92974712D02*
X113979043Y-91005967D01*
X113929436Y-86943730D02*
X113767709Y-84858911D01*
X113979043Y-91005967D02*
X114002282Y-89033519D01*
X114002282Y-89033519D02*
X113929436Y-86943730D01*
M02*
